G04*
G04 #@! TF.GenerationSoftware,Altium Limited,Altium Designer,23.2.1 (34)*
G04*
G04 Layer_Color=2752767*
%FSLAX25Y25*%
%MOIN*%
G70*
G04*
G04 #@! TF.SameCoordinates,342CFCC0-3008-4232-B3F0-62073F027D76*
G04*
G04*
G04 #@! TF.FilePolarity,Positive*
G04*
G01*
G75*
%ADD12C,0.01000*%
%ADD15C,0.00600*%
%ADD91C,0.00500*%
%ADD92C,0.00667*%
D12*
X776500D02*
Y304807D01*
Y351993D02*
Y660000D01*
X751000Y0D02*
X777500D01*
X751000Y660000D02*
X777500D01*
X776500Y0D02*
X778500Y6000D01*
X774500D02*
X776500Y0D01*
X774500Y654000D02*
X776500Y660000D01*
X778500Y654000D01*
X750000Y661000D02*
Y673300D01*
X56000Y661000D02*
Y673300D01*
X424993Y672300D02*
X750000D01*
X56000D02*
X377807D01*
X744000Y674300D02*
X750000Y672300D01*
X744000Y670300D02*
X750000Y672300D01*
X56000D02*
X62000Y670300D01*
X56000Y672300D02*
X62000Y674300D01*
X168897Y283060D02*
X168992Y255894D01*
X137008Y282948D02*
X137103Y255783D01*
X137008Y282948D02*
X168897Y283060D01*
X137103Y255783D02*
X168992Y255894D01*
D15*
X780099Y306407D02*
Y308406D01*
Y307407D01*
X774101D01*
X775101Y306407D01*
X774101Y315404D02*
X775101Y313405D01*
X777100Y311405D01*
X779099D01*
X780099Y312405D01*
Y314405D01*
X779099Y315404D01*
X778100D01*
X777100Y314405D01*
Y311405D01*
X774101Y317404D02*
Y321402D01*
X775101D01*
X779099Y317404D01*
X780099D01*
Y323402D02*
X779099D01*
Y324401D01*
X780099D01*
Y323402D01*
X774101Y332399D02*
X775101Y330399D01*
X777100Y328400D01*
X779099D01*
X780099Y329400D01*
Y331399D01*
X779099Y332399D01*
X778100D01*
X777100Y331399D01*
Y328400D01*
X780099Y337397D02*
X774101D01*
X777100Y334398D01*
Y338397D01*
X780099Y340396D02*
X776100D01*
Y341396D01*
X777100Y342395D01*
X780099D01*
X777100D01*
X776100Y343395D01*
X777100Y344395D01*
X780099D01*
Y346394D02*
X776100D01*
Y347394D01*
X777100Y348394D01*
X780099D01*
X777100D01*
X776100Y349393D01*
X777100Y350393D01*
X780099D01*
X379407Y668701D02*
X381406D01*
X380407D01*
Y674699D01*
X379407Y673699D01*
X384405Y674699D02*
X388404D01*
Y673699D01*
X384405Y669701D01*
Y668701D01*
X394402Y674699D02*
X392403Y673699D01*
X390404Y671700D01*
Y669701D01*
X391403Y668701D01*
X393403D01*
X394402Y669701D01*
Y670700D01*
X393403Y671700D01*
X390404D01*
X396402Y668701D02*
Y669701D01*
X397401D01*
Y668701D01*
X396402D01*
X405399D02*
X401400D01*
X405399Y672700D01*
Y673699D01*
X404399Y674699D01*
X402400D01*
X401400Y673699D01*
X407398D02*
X408398Y674699D01*
X410397D01*
X411397Y673699D01*
Y672700D01*
X410397Y671700D01*
X411397Y670700D01*
Y669701D01*
X410397Y668701D01*
X408398D01*
X407398Y669701D01*
Y670700D01*
X408398Y671700D01*
X407398Y672700D01*
Y673699D01*
X408398Y671700D02*
X410397D01*
X413396Y668701D02*
Y672700D01*
X414396D01*
X415395Y671700D01*
Y668701D01*
Y671700D01*
X416395Y672700D01*
X417395Y671700D01*
Y668701D01*
X419394D02*
Y672700D01*
X420394D01*
X421393Y671700D01*
Y668701D01*
Y671700D01*
X422393Y672700D01*
X423393Y671700D01*
Y668701D01*
D91*
X726700Y635700D02*
Y634700D01*
X728700D01*
Y635700D01*
X729700D01*
Y637700D01*
X728700D01*
Y638700D01*
X726700D01*
Y637700D01*
X725700D01*
Y635700D01*
X726700D01*
X77900D02*
Y634700D01*
X79900D01*
Y635700D01*
X80900D01*
Y637700D01*
X79900D01*
Y638700D01*
X77900D01*
Y637700D01*
X76900D01*
Y635700D01*
X77900D01*
Y20200D02*
Y19200D01*
X79900D01*
Y20200D01*
X80900D01*
Y22200D01*
X79900D01*
Y23200D01*
X77900D01*
Y22200D01*
X76900D01*
Y20200D01*
X77900D01*
X726700D02*
Y19200D01*
X728700D01*
Y20200D01*
X729700D01*
Y22200D01*
X728700D01*
Y23200D01*
X726700D01*
Y22200D01*
X725700D01*
Y20200D01*
X726700D01*
X655492Y295197D02*
X656493Y296197D01*
X657492D01*
X656493Y297197D01*
X657492Y298197D01*
X656493D01*
X655492Y299197D01*
X654493Y298197D01*
X653492D01*
X654493Y297197D01*
X653492Y296197D01*
X654493D01*
X655492Y295197D01*
X655396Y308002D02*
X656396Y309002D01*
X657396D01*
X656396Y310002D01*
X657396Y311002D01*
X656396D01*
X655396Y312002D01*
X654396Y311002D01*
X653396D01*
X654396Y310002D01*
X653396Y309002D01*
X654396D01*
X655396Y308002D01*
Y320808D02*
X656396Y321808D01*
X657396D01*
X656396Y322808D01*
X657396Y323808D01*
X656396D01*
X655396Y324808D01*
X654396Y323808D01*
X653396D01*
X654396Y322808D01*
X653396Y321808D01*
X654396D01*
X655396Y320808D01*
X655496Y333614D02*
X656496Y334614D01*
X657496D01*
X656496Y335614D01*
X657496Y336614D01*
X656496D01*
X655496Y337614D01*
X654496Y336614D01*
X653496D01*
X654496Y335614D01*
X653496Y334614D01*
X654496D01*
X655496Y333614D01*
X654000Y418500D02*
X655000Y419500D01*
X656000D01*
X655000Y420500D01*
X656000Y421500D01*
X655000D01*
X654000Y422500D01*
X653000Y421500D01*
X652000D01*
X653000Y420500D01*
X652000Y419500D01*
X653000D01*
X654000Y418500D01*
X569400Y274588D02*
X570400Y275588D01*
X571400D01*
X570400Y276588D01*
X571400Y277588D01*
X570400D01*
X569400Y278588D01*
X568400Y277588D01*
X567400D01*
X568400Y276588D01*
X567400Y275588D01*
X568400D01*
X569400Y274588D01*
Y261782D02*
X570400Y262782D01*
X571400D01*
X570400Y263782D01*
X571400Y264782D01*
X570400D01*
X569400Y265782D01*
X568400Y264782D01*
X567400D01*
X568400Y263782D01*
X567400Y262782D01*
X568400D01*
X569400Y261782D01*
Y287394D02*
X570400Y288394D01*
X571400D01*
X570400Y289394D01*
X571400Y290394D01*
X570400D01*
X569400Y291394D01*
X568400Y290394D01*
X567400D01*
X568400Y289394D01*
X567400Y288394D01*
X568400D01*
X569400Y287394D01*
Y300200D02*
X570400Y301200D01*
X571400D01*
X570400Y302200D01*
X571400Y303200D01*
X570400D01*
X569400Y304200D01*
X568400Y303200D01*
X567400D01*
X568400Y302200D01*
X567400Y301200D01*
X568400D01*
X569400Y300200D01*
X93200Y164700D02*
X94200Y165700D01*
X95200D01*
X94200Y166700D01*
X95200Y167700D01*
X94200D01*
X93200Y168700D01*
X92200Y167700D01*
X91200D01*
X92200Y166700D01*
X91200Y165700D01*
X92200D01*
X93200Y164700D01*
X108600Y164900D02*
X109600Y165900D01*
X110600D01*
X109600Y166900D01*
X110600Y167900D01*
X109600D01*
X108600Y168900D01*
X107600Y167900D01*
X106600D01*
X107600Y166900D01*
X106600Y165900D01*
X107600D01*
X108600Y164900D01*
X654000Y393300D02*
X655000Y394300D01*
X656000D01*
X655000Y395300D01*
X656000Y396300D01*
X655000D01*
X654000Y397300D01*
X653000Y396300D01*
X652000D01*
X653000Y395300D01*
X652000Y394300D01*
X653000D01*
X654000Y393300D01*
Y405900D02*
X655000Y406900D01*
X656000D01*
X655000Y407900D01*
X656000Y408900D01*
X655000D01*
X654000Y409900D01*
X653000Y408900D01*
X652000D01*
X653000Y407900D01*
X652000Y406900D01*
X653000D01*
X654000Y405900D01*
X631201Y129299D02*
X632201Y130299D01*
X633201D01*
X632201Y131299D01*
X633201Y132299D01*
X632201D01*
X631201Y133299D01*
X630201Y132299D01*
X629201D01*
X630201Y131299D01*
X629201Y130299D01*
X630201D01*
X631201Y129299D01*
X721358Y135402D02*
X722358Y136402D01*
X723358D01*
X722358Y137402D01*
X723358Y138402D01*
X722358D01*
X721358Y139402D01*
X720358Y138402D01*
X719358D01*
X720358Y137402D01*
X719358Y136402D01*
X720358D01*
X721358Y135402D01*
X631299Y146228D02*
X632299Y147228D01*
X633299D01*
X632299Y148228D01*
X633299Y149228D01*
X632299D01*
X631299Y150228D01*
X630299Y149228D01*
X629299D01*
X630299Y148228D01*
X629299Y147228D01*
X630299D01*
X631299Y146228D01*
X626870Y502724D02*
X627870Y503724D01*
X628870D01*
X627870Y504724D01*
X628870Y505724D01*
X627870D01*
X626870Y506724D01*
X625870Y505724D01*
X624870D01*
X625870Y504724D01*
X624870Y503724D01*
X625870D01*
X626870Y502724D01*
X661417Y487567D02*
X662417Y488567D01*
X663417D01*
X662417Y489567D01*
X663417Y490567D01*
X662417D01*
X661417Y491567D01*
X660417Y490567D01*
X659417D01*
X660417Y489567D01*
X659417Y488567D01*
X660417D01*
X661417Y487567D01*
X626575Y516996D02*
X627575Y517996D01*
X628575D01*
X627575Y518996D01*
X628575Y519996D01*
X627575D01*
X626575Y520996D01*
X625575Y519996D01*
X624575D01*
X625575Y518996D01*
X624575Y517996D01*
X625575D01*
X626575Y516996D01*
X652264Y436583D02*
X653264Y437583D01*
X654264D01*
X653264Y438583D01*
X654264Y439583D01*
X653264D01*
X652264Y440583D01*
X651264Y439583D01*
X650264D01*
X651264Y438583D01*
X650264Y437583D01*
X651264D01*
X652264Y436583D01*
X612402Y471917D02*
X613402Y472917D01*
X614402D01*
X613402Y473917D01*
X614402Y474917D01*
X613402D01*
X612402Y475917D01*
X611402Y474917D01*
X610402D01*
X611402Y473917D01*
X610402Y472917D01*
X611402D01*
X612402Y471917D01*
X702165Y98590D02*
X703165Y99590D01*
X704165D01*
X703165Y100591D01*
X704165Y101591D01*
X703165D01*
X702165Y102591D01*
X701165Y101591D01*
X700165D01*
X701165Y100591D01*
X700165Y99590D01*
X701165D01*
X702165Y98590D01*
X646555Y104988D02*
X647555Y105988D01*
X648555D01*
X647555Y106988D01*
X648555Y107988D01*
X647555D01*
X646555Y108988D01*
X645555Y107988D01*
X644555D01*
X645555Y106988D01*
X644555Y105988D01*
X645555D01*
X646555Y104988D01*
X685039Y145933D02*
X683039Y149933D01*
X687039D01*
X685039Y145933D01*
X675039D02*
X673039Y149933D01*
X677039D01*
X675039Y145933D01*
X685039Y155933D02*
X683039Y159933D01*
X687039D01*
X685039Y155933D01*
X675039D02*
X673039Y159933D01*
X677039D01*
X675039Y155933D01*
X685039Y165933D02*
X683039Y169933D01*
X687039D01*
X685039Y165933D01*
X675039D02*
X673039Y169933D01*
X677039D01*
X675039Y165933D01*
X685039Y175933D02*
X683039Y179933D01*
X687039D01*
X685039Y175933D01*
X675039D02*
X673039Y179933D01*
X677039D01*
X675039Y175933D01*
X685039Y185933D02*
X683039Y189933D01*
X687039D01*
X685039Y185933D01*
X675039D02*
X673039Y189933D01*
X677039D01*
X675039Y185933D01*
X685039Y195933D02*
X683039Y199933D01*
X687039D01*
X685039Y195933D01*
X675039D02*
X673039Y199933D01*
X677039D01*
X675039Y195933D01*
X685039Y205933D02*
X683039Y209933D01*
X687039D01*
X685039Y205933D01*
X675039D02*
X673039Y209933D01*
X677039D01*
X675039Y205933D01*
X685039Y215933D02*
X683039Y219933D01*
X687039D01*
X685039Y215933D01*
X675039D02*
X673039Y219933D01*
X677039D01*
X675039Y215933D01*
X685039Y225933D02*
X683039Y229933D01*
X687039D01*
X685039Y225933D01*
X675039D02*
X673039Y229933D01*
X677039D01*
X675039Y225933D01*
X685039Y235933D02*
X683039Y239933D01*
X687039D01*
X685039Y235933D01*
X675039D02*
X673039Y239933D01*
X677039D01*
X675039Y235933D01*
X685039Y245933D02*
X683039Y249933D01*
X687039D01*
X685039Y245933D01*
X675039D02*
X673039Y249933D01*
X677039D01*
X675039Y245933D01*
X685039Y255933D02*
X683039Y259933D01*
X687039D01*
X685039Y255933D01*
X675039D02*
X673039Y259933D01*
X677039D01*
X675039Y255933D01*
X685039Y265933D02*
X683039Y269933D01*
X687039D01*
X685039Y265933D01*
X675039D02*
X673039Y269933D01*
X677039D01*
X675039Y265933D01*
X685039Y275933D02*
X683039Y279933D01*
X687039D01*
X685039Y275933D01*
X675039D02*
X673039Y279933D01*
X677039D01*
X675039Y275933D01*
X685039Y285933D02*
X683039Y289933D01*
X687039D01*
X685039Y285933D01*
X675039D02*
X673039Y289933D01*
X677039D01*
X675039Y285933D01*
X685039Y295933D02*
X683039Y299933D01*
X687039D01*
X685039Y295933D01*
X675039D02*
X673039Y299933D01*
X677039D01*
X675039Y295933D01*
X685039Y305933D02*
X683039Y309933D01*
X687039D01*
X685039Y305933D01*
X675039D02*
X673039Y309933D01*
X677039D01*
X675039Y305933D01*
X685039Y315933D02*
X683039Y319933D01*
X687039D01*
X685039Y315933D01*
X675039D02*
X673039Y319933D01*
X677039D01*
X675039Y315933D01*
X685039Y325933D02*
X683039Y329933D01*
X687039D01*
X685039Y325933D01*
X675039D02*
X673039Y329933D01*
X677039D01*
X675039Y325933D01*
X685039Y335933D02*
X683039Y339933D01*
X687039D01*
X685039Y335933D01*
X675039D02*
X673039Y339933D01*
X677039D01*
X675039Y335933D01*
X700362Y396721D02*
Y400721D01*
X704362D01*
Y396721D01*
X700362D01*
Y406563D02*
Y410563D01*
X704362D01*
Y406563D01*
X700362D01*
Y416405D02*
Y420405D01*
X704362D01*
Y416405D01*
X700362D01*
X104500Y196600D02*
Y200600D01*
X108500D01*
Y196600D01*
X104500D01*
Y206442D02*
Y210442D01*
X108500D01*
Y206442D01*
X104500D01*
Y216285D02*
Y220285D01*
X108500D01*
Y216285D01*
X104500D01*
X151000Y262500D02*
Y266500D01*
X155000D01*
Y262500D01*
X151000D01*
Y272342D02*
Y276343D01*
X155000D01*
Y272342D01*
X151000D01*
X707500Y352700D02*
X708500Y354700D01*
X707500Y356700D01*
X709500Y355700D01*
X711500Y356700D01*
X710500Y354700D01*
X711500Y352700D01*
X709500Y353700D01*
X707500Y352700D01*
X713945Y352800D02*
X714945Y354800D01*
X713945Y356800D01*
X715945Y355800D01*
X717945Y356800D01*
X716945Y354800D01*
X717945Y352800D01*
X715945Y353800D01*
X713945Y352800D01*
X331900Y124800D02*
X332900Y126800D01*
X331900Y128800D01*
X333900Y127800D01*
X335900Y128800D01*
X334900Y126800D01*
X335900Y124800D01*
X333900Y125800D01*
X331900Y124800D01*
X358000Y126200D02*
X359000Y128200D01*
X358000Y130200D01*
X360000Y129200D01*
X362000Y130200D01*
X361000Y128200D01*
X362000Y126200D01*
X360000Y127200D01*
X358000Y126200D01*
X331500Y106200D02*
X332500Y108200D01*
X331500Y110200D01*
X333500Y109200D01*
X335500Y110200D01*
X334500Y108200D01*
X335500Y106200D01*
X333500Y107200D01*
X331500Y106200D01*
X569700Y124900D02*
X570700Y126900D01*
X569700Y128900D01*
X571700Y127900D01*
X573700Y128900D01*
X572700Y126900D01*
X573700Y124900D01*
X571700Y125900D01*
X569700Y124900D01*
X566700Y469000D02*
X567700Y471000D01*
X566700Y473000D01*
X568700Y472000D01*
X570700Y473000D01*
X569700Y471000D01*
X570700Y469000D01*
X568700Y470000D01*
X566700Y469000D01*
X331800Y472200D02*
X332800Y474200D01*
X331800Y476200D01*
X333800Y475200D01*
X335800Y476200D01*
X334800Y474200D01*
X335800Y472200D01*
X333800Y473200D01*
X331800Y472200D01*
X332000Y490900D02*
X333000Y492900D01*
X332000Y494900D01*
X334000Y493900D01*
X336000Y494900D01*
X335000Y492900D01*
X336000Y490900D01*
X334000Y491900D01*
X332000Y490900D01*
X162100Y157500D02*
X163100Y159500D01*
X162100Y161500D01*
X164100Y160500D01*
X166100Y161500D01*
X165100Y159500D01*
X166100Y157500D01*
X164100Y158500D01*
X162100Y157500D01*
X207500Y250900D02*
X208500Y252900D01*
X207500Y254900D01*
X209500Y253900D01*
X211500Y254900D01*
X210500Y252900D01*
X211500Y250900D01*
X209500Y251900D01*
X207500Y250900D01*
X199800Y242100D02*
X200800Y244100D01*
X199800Y246100D01*
X201800Y245100D01*
X203800Y246100D01*
X202800Y244100D01*
X203800Y242100D01*
X201800Y243100D01*
X199800Y242100D01*
X195300Y233500D02*
X196300Y235500D01*
X195300Y237500D01*
X197300Y236500D01*
X199300Y237500D01*
X198300Y235500D01*
X199300Y233500D01*
X197300Y234500D01*
X195300Y233500D01*
X209100Y231400D02*
X210100Y233400D01*
X209100Y235400D01*
X211100Y234400D01*
X213100Y235400D01*
X212100Y233400D01*
X213100Y231400D01*
X211100Y232400D01*
X209100Y231400D01*
X219300Y209200D02*
X220300Y211200D01*
X219300Y213200D01*
X221300Y212200D01*
X223300Y213200D01*
X222300Y211200D01*
X223300Y209200D01*
X221300Y210200D01*
X219300Y209200D01*
X209200Y208500D02*
X210200Y210500D01*
X209200Y212500D01*
X211200Y211500D01*
X213200Y212500D01*
X212200Y210500D01*
X213200Y208500D01*
X211200Y209500D01*
X209200Y208500D01*
X197100Y170900D02*
X198100Y172900D01*
X197100Y174900D01*
X199100Y173900D01*
X201100Y174900D01*
X200100Y172900D01*
X201100Y170900D01*
X199100Y171900D01*
X197100Y170900D01*
Y177700D02*
X198100Y179700D01*
X197100Y181700D01*
X199100Y180700D01*
X201100Y181700D01*
X200100Y179700D01*
X201100Y177700D01*
X199100Y178700D01*
X197100Y177700D01*
X201600Y188300D02*
X202600Y190300D01*
X201600Y192300D01*
X203600Y191300D01*
X205600Y192300D01*
X204600Y190300D01*
X205600Y188300D01*
X203600Y189300D01*
X201600Y188300D01*
X104500Y244400D02*
X105500Y246400D01*
X104500Y248400D01*
X106500Y247400D01*
X108500Y248400D01*
X107500Y246400D01*
X108500Y244400D01*
X106500Y245400D01*
X104500Y244400D01*
X95400Y243000D02*
X96400Y245000D01*
X95400Y247000D01*
X97400Y246000D01*
X99400Y247000D01*
X98400Y245000D01*
X99400Y243000D01*
X97400Y244000D01*
X95400Y243000D01*
X74700Y236100D02*
X75700Y238100D01*
X74700Y240100D01*
X76700Y239100D01*
X78700Y240100D01*
X77700Y238100D01*
X78700Y236100D01*
X76700Y237100D01*
X74700Y236100D01*
X669800Y450300D02*
X670800Y452300D01*
X669800Y454300D01*
X671800Y453300D01*
X673800Y454300D01*
X672800Y452300D01*
X673800Y450300D01*
X671800Y451300D01*
X669800Y450300D01*
X671800Y376800D02*
X672800Y378800D01*
X671800Y380800D01*
X673800Y379800D01*
X675800Y380800D01*
X674800Y378800D01*
X675800Y376800D01*
X673800Y377800D01*
X671800Y376800D01*
X262500Y495911D02*
X263500Y497911D01*
X262500Y499911D01*
X264500Y498911D01*
X266500Y499911D01*
X265500Y497911D01*
X266500Y495911D01*
X264500Y496911D01*
X262500Y495911D01*
X268400Y490400D02*
X269400Y492400D01*
X268400Y494400D01*
X270400Y493400D01*
X272400Y494400D01*
X271400Y492400D01*
X272400Y490400D01*
X270400Y491400D01*
X268400Y490400D01*
X270000Y496000D02*
X271000Y498000D01*
X270000Y500000D01*
X272000Y499000D01*
X274000Y500000D01*
X273000Y498000D01*
X274000Y496000D01*
X272000Y497000D01*
X270000Y496000D01*
X275000Y490443D02*
X276000Y492443D01*
X275000Y494443D01*
X277000Y493443D01*
X279000Y494443D01*
X278000Y492443D01*
X279000Y490443D01*
X277000Y491443D01*
X275000Y490443D01*
X313945Y117215D02*
X314945Y119215D01*
X313945Y121215D01*
X315945Y120215D01*
X317945Y121215D01*
X316945Y119215D01*
X317945Y117215D01*
X315945Y118215D01*
X313945Y117215D01*
Y122683D02*
X314945Y124683D01*
X313945Y126683D01*
X315945Y125683D01*
X317945Y126683D01*
X316945Y124683D01*
X317945Y122683D01*
X315945Y123683D01*
X313945Y122683D01*
X653600Y263700D02*
X654600Y265700D01*
X653600Y267700D01*
X655600Y266700D01*
X657600Y267700D01*
X656600Y265700D01*
X657600Y263700D01*
X655600Y264700D01*
X653600Y263700D01*
X631268Y482154D02*
X632268Y484154D01*
X631268Y486154D01*
X633268Y485153D01*
X635268Y486154D01*
X634268Y484154D01*
X635268Y482154D01*
X633268Y483153D01*
X631268Y482154D01*
X635922Y477356D02*
X636922Y479356D01*
X635922Y481356D01*
X637922Y480356D01*
X639922Y481356D01*
X638922Y479356D01*
X639922Y477356D01*
X637922Y478356D01*
X635922Y477356D01*
X317390Y99575D02*
X318390Y101575D01*
X317390Y103575D01*
X319390Y102575D01*
X321390Y103575D01*
X320390Y101575D01*
X321390Y99575D01*
X319390Y100575D01*
X317390Y99575D01*
X318768Y89142D02*
X319768Y91142D01*
X318768Y93142D01*
X320768Y92142D01*
X322768Y93142D01*
X321768Y91142D01*
X322768Y89142D01*
X320768Y90142D01*
X318768Y89142D01*
X322114Y102033D02*
X323114Y104033D01*
X322114Y106033D01*
X324114Y105033D01*
X326114Y106033D01*
X325114Y104033D01*
X326114Y102033D01*
X324114Y103033D01*
X322114Y102033D01*
X323492Y89732D02*
X324492Y91732D01*
X323492Y93732D01*
X325492Y92732D01*
X327492Y93732D01*
X326492Y91732D01*
X327492Y89732D01*
X325492Y90732D01*
X323492Y89732D01*
X328020Y102626D02*
X329020Y104626D01*
X328020Y106626D01*
X330020Y105626D01*
X332020Y106626D01*
X331020Y104626D01*
X332020Y102626D01*
X330020Y103626D01*
X328020Y102626D01*
X328118Y89831D02*
X329118Y91831D01*
X328118Y93831D01*
X330118Y92831D01*
X332118Y93831D01*
X331118Y91831D01*
X332118Y89831D01*
X330118Y90831D01*
X328118Y89831D01*
X706661Y145146D02*
X707661Y147146D01*
X706661Y149146D01*
X708661Y148146D01*
X710661Y149146D01*
X709661Y147146D01*
X710661Y145146D01*
X708661Y146146D01*
X706661Y145146D01*
X698689Y147213D02*
X699689Y149213D01*
X698689Y151213D01*
X700689Y150213D01*
X702689Y151213D01*
X701689Y149213D01*
X702689Y147213D01*
X700689Y148213D01*
X698689Y147213D01*
X310288Y82956D02*
X311288Y84956D01*
X310288Y86956D01*
X312288Y85956D01*
X314288Y86956D01*
X313288Y84956D01*
X314288Y82956D01*
X312288Y83956D01*
X310288Y82956D01*
X310598Y90716D02*
X311598Y92716D01*
X310598Y94717D01*
X312598Y93717D01*
X314598Y94717D01*
X313598Y92716D01*
X314598Y90716D01*
X312598Y91716D01*
X310598Y90716D01*
X313354Y84516D02*
X314354Y86516D01*
X313354Y88516D01*
X315354Y87516D01*
X317354Y88516D01*
X316354Y86516D01*
X317354Y84516D01*
X315354Y85516D01*
X313354Y84516D01*
X256071Y495911D02*
X257071Y497911D01*
X256071Y499911D01*
X258071Y498911D01*
X260071Y499911D01*
X259071Y497911D01*
X260071Y495911D01*
X258071Y496911D01*
X256071Y495911D01*
X312762Y93573D02*
X313762Y95573D01*
X312762Y97573D01*
X314762Y96573D01*
X316762Y97573D01*
X315762Y95573D01*
X316762Y93573D01*
X314762Y94573D01*
X312762Y93573D01*
X707744Y114929D02*
X708744Y116929D01*
X707744Y118929D01*
X709744Y117929D01*
X711744Y118929D01*
X710744Y116929D01*
X711744Y114929D01*
X709744Y115929D01*
X707744Y114929D01*
X714339Y121031D02*
X715339Y123031D01*
X714339Y125031D01*
X716339Y124031D01*
X718339Y125031D01*
X717339Y123031D01*
X718339Y121031D01*
X716339Y122031D01*
X714339Y121031D01*
X261386Y490421D02*
X262386Y492421D01*
X261386Y494421D01*
X263386Y493421D01*
X265386Y494421D01*
X264386Y492421D01*
X265386Y490421D01*
X263386Y491421D01*
X261386Y490421D01*
X634981Y491576D02*
X635981Y493576D01*
X634981Y495576D01*
X636981Y494576D01*
X638981Y495576D01*
X637981Y493576D01*
X638981Y491576D01*
X636981Y492576D01*
X634981Y491576D01*
X636779Y488945D02*
X637780Y490945D01*
X636779Y492945D01*
X638779Y491945D01*
X640779Y492945D01*
X639780Y490945D01*
X640779Y488945D01*
X638779Y489945D01*
X636779Y488945D01*
X637272Y495933D02*
X638272Y497933D01*
X637272Y499933D01*
X639272Y498933D01*
X641272Y499933D01*
X640272Y497933D01*
X641272Y495933D01*
X639272Y496933D01*
X637272Y495933D01*
X639837Y493581D02*
X640837Y495581D01*
X639837Y497581D01*
X641837Y496582D01*
X643837Y497581D01*
X642837Y495581D01*
X643837Y493581D01*
X641837Y494582D01*
X639837Y493581D01*
X632547Y318472D02*
X633547Y320472D01*
X632547Y322472D01*
X634547Y321472D01*
X636547Y322472D01*
X635547Y320472D01*
X636547Y318472D01*
X634547Y319472D01*
X632547Y318472D01*
X632547Y312862D02*
X633547Y314862D01*
X632547Y316862D01*
X634547Y315862D01*
X636547Y316862D01*
X635547Y314862D01*
X636547Y312862D01*
X634547Y313862D01*
X632547Y312862D01*
X635697Y318571D02*
X636697Y320571D01*
X635697Y322571D01*
X637697Y321571D01*
X639697Y322571D01*
X638697Y320571D01*
X639697Y318571D01*
X637697Y319571D01*
X635697Y318571D01*
X635795Y313059D02*
X636795Y315059D01*
X635795Y317059D01*
X637795Y316059D01*
X639795Y317059D01*
X638795Y315059D01*
X639795Y313059D01*
X637795Y314059D01*
X635795Y313059D01*
X656957Y265913D02*
X657957Y267913D01*
X656957Y269913D01*
X658957Y268913D01*
X660957Y269913D01*
X659957Y267913D01*
X660957Y265913D01*
X658957Y266913D01*
X656957Y265913D01*
X661976Y255972D02*
X662976Y257972D01*
X661976Y259972D01*
X663976Y258972D01*
X665976Y259972D01*
X664976Y257972D01*
X665976Y255972D01*
X663976Y256972D01*
X661976Y255972D01*
X662173Y260992D02*
X663173Y262992D01*
X662173Y264992D01*
X664173Y263992D01*
X666173Y264992D01*
X665173Y262992D01*
X666173Y260992D01*
X664173Y261992D01*
X662173Y260992D01*
X632547Y473886D02*
X633547Y475886D01*
X632547Y477886D01*
X634547Y476886D01*
X636547Y477886D01*
X635547Y475886D01*
X636547Y473886D01*
X634547Y474886D01*
X632547Y473886D01*
X625362Y475953D02*
X626362Y477953D01*
X625362Y479953D01*
X627362Y478953D01*
X629362Y479953D01*
X628362Y477953D01*
X629362Y475953D01*
X627362Y476953D01*
X625362Y475953D01*
X254693Y486779D02*
X255693Y488779D01*
X254693Y490779D01*
X256693Y489780D01*
X258693Y490779D01*
X257693Y488779D01*
X258693Y486779D01*
X256693Y487780D01*
X254693Y486779D01*
X252429Y493177D02*
X253429Y495177D01*
X252429Y497177D01*
X254429Y496177D01*
X256429Y497177D01*
X255429Y495177D01*
X256429Y493177D01*
X254429Y494177D01*
X252429Y493177D01*
X695835Y229693D02*
X696835Y231693D01*
X695835Y233693D01*
X697835Y232693D01*
X699835Y233693D01*
X698835Y231693D01*
X699835Y229693D01*
X697835Y230693D01*
X695835Y229693D01*
Y236976D02*
X696835Y238976D01*
X695835Y240976D01*
X697835Y239976D01*
X699835Y240976D01*
X698835Y238976D01*
X699835Y236976D01*
X697835Y237976D01*
X695835Y236976D01*
X693374Y123492D02*
X694374Y125492D01*
X693374Y127492D01*
X695374Y126492D01*
X697374Y127492D01*
X696374Y125492D01*
X697374Y123492D01*
X695374Y124492D01*
X693374Y123492D01*
X695736Y125756D02*
X696736Y127756D01*
X695736Y129756D01*
X697736Y128756D01*
X699736Y129756D01*
X698736Y127756D01*
X699736Y125756D01*
X697736Y126756D01*
X695736Y125756D01*
Y140815D02*
X696736Y142815D01*
X695736Y144815D01*
X697736Y143815D01*
X699736Y144815D01*
X698736Y142815D01*
X699736Y140815D01*
X697736Y141815D01*
X695736Y140815D01*
X693374Y137961D02*
X694374Y139961D01*
X693374Y141961D01*
X695374Y140961D01*
X697374Y141961D01*
X696374Y139961D01*
X697374Y137961D01*
X695374Y138961D01*
X693374Y137961D01*
X675120Y116451D02*
X676120Y118451D01*
X675120Y120451D01*
X677120Y119451D01*
X679120Y120451D01*
X678120Y118451D01*
X679120Y116451D01*
X677120Y117451D01*
X675120Y116451D01*
X682082Y116477D02*
X683082Y118477D01*
X682082Y120477D01*
X684082Y119477D01*
X686082Y120477D01*
X685082Y118477D01*
X686082Y116477D01*
X684082Y117477D01*
X682082Y116477D01*
X221179Y216689D02*
X222179Y218689D01*
X221179Y220689D01*
X223179Y219689D01*
X225179Y220689D01*
X224179Y218689D01*
X225179Y216689D01*
X223179Y217689D01*
X221179Y216689D01*
X224900Y209000D02*
X225900Y211000D01*
X224900Y213000D01*
X226900Y212000D01*
X228900Y213000D01*
X227900Y211000D01*
X228900Y209000D01*
X226900Y210000D01*
X224900Y209000D01*
X219063Y203906D02*
X220063Y205906D01*
X219063Y207906D01*
X221063Y206906D01*
X223063Y207906D01*
X222063Y205906D01*
X223063Y203906D01*
X221063Y204906D01*
X219063Y203906D01*
X217498Y240762D02*
X218498Y242762D01*
X217498Y244762D01*
X219498Y243762D01*
X221498Y244762D01*
X220498Y242762D01*
X221498Y240762D01*
X219498Y241762D01*
X217498Y240762D01*
X216898Y249870D02*
X217898Y251870D01*
X216898Y253870D01*
X218898Y252870D01*
X220898Y253870D01*
X219898Y251870D01*
X220898Y249870D01*
X218898Y250870D01*
X216898Y249870D01*
X226740Y249476D02*
X227740Y251476D01*
X226740Y253476D01*
X228740Y252476D01*
X230740Y253476D01*
X229740Y251476D01*
X230740Y249476D01*
X228740Y250476D01*
X226740Y249476D01*
X227528Y240815D02*
X228528Y242815D01*
X227528Y244815D01*
X229528Y243815D01*
X231528Y244815D01*
X230528Y242815D01*
X231528Y240815D01*
X229528Y241815D01*
X227528Y240815D01*
X362575Y117882D02*
X363575Y119882D01*
X362575Y121882D01*
X364575Y120882D01*
X366575Y121882D01*
X365575Y119882D01*
X366575Y117882D01*
X364575Y118882D01*
X362575Y117882D01*
Y111976D02*
X363575Y113976D01*
X362575Y115976D01*
X364575Y114976D01*
X366575Y115976D01*
X365575Y113976D01*
X366575Y111976D01*
X364575Y112976D01*
X362575Y111976D01*
X351248Y104004D02*
X352248Y106004D01*
X351248Y108004D01*
X353248Y107004D01*
X355248Y108004D01*
X354248Y106004D01*
X355248Y104004D01*
X353248Y105004D01*
X351248Y104004D01*
X539331Y119457D02*
X540331Y121457D01*
X539331Y123457D01*
X541331Y122457D01*
X543331Y123457D01*
X542331Y121457D01*
X543331Y119457D01*
X541331Y120457D01*
X539331Y119457D01*
Y113551D02*
X540331Y115551D01*
X539331Y117551D01*
X541331Y116551D01*
X543331Y117551D01*
X542331Y115551D01*
X543331Y113551D01*
X541331Y114551D01*
X539331Y113551D01*
X539388Y484491D02*
X540388Y486491D01*
X539388Y488491D01*
X541388Y487491D01*
X543388Y488491D01*
X542388Y486491D01*
X543388Y484491D01*
X541388Y485491D01*
X539388Y484491D01*
Y478586D02*
X540388Y480586D01*
X539388Y482586D01*
X541388Y481586D01*
X543388Y482586D01*
X542388Y480586D01*
X543388Y478586D01*
X541388Y479586D01*
X539388Y478586D01*
X362575Y484122D02*
X363575Y486122D01*
X362575Y488122D01*
X364575Y487122D01*
X366575Y488122D01*
X365575Y486122D01*
X366575Y484122D01*
X364575Y485122D01*
X362575Y484122D01*
Y478217D02*
X363575Y480217D01*
X362575Y482217D01*
X364575Y481216D01*
X366575Y482217D01*
X365575Y480217D01*
X366575Y478217D01*
X364575Y479216D01*
X362575Y478217D01*
X205480Y191996D02*
X206480Y193996D01*
X205480Y195996D01*
X207480Y194996D01*
X209480Y195996D01*
X208480Y193996D01*
X209480Y191996D01*
X207480Y192996D01*
X205480Y191996D01*
X228906Y212272D02*
X229906Y214272D01*
X228906Y216272D01*
X230906Y215272D01*
X232906Y216272D01*
X231906Y214272D01*
X232906Y212272D01*
X230906Y213272D01*
X228906Y212272D01*
X216799Y224083D02*
X217799Y226083D01*
X216799Y228083D01*
X218799Y227083D01*
X220799Y228083D01*
X219799Y226083D01*
X220799Y224083D01*
X218799Y225083D01*
X216799Y224083D01*
X229299Y224575D02*
X230299Y226575D01*
X229299Y228575D01*
X231299Y227575D01*
X233299Y228575D01*
X232299Y226575D01*
X233299Y224575D01*
X231299Y225575D01*
X229299Y224575D01*
X232252Y216602D02*
X233252Y218602D01*
X232252Y220602D01*
X234252Y219602D01*
X236252Y220602D01*
X235252Y218602D01*
X236252Y216602D01*
X234252Y217602D01*
X232252Y216602D01*
X566898Y104890D02*
X567898Y106890D01*
X566898Y108890D01*
X568898Y107890D01*
X570898Y108890D01*
X569898Y106890D01*
X570898Y104890D01*
X568898Y105890D01*
X566898Y104890D01*
X566504Y492390D02*
X567504Y494390D01*
X566504Y496390D01*
X568504Y495390D01*
X570504Y496390D01*
X569504Y494390D01*
X570504Y492390D01*
X568504Y493390D01*
X566504Y492390D01*
X542488Y123492D02*
X543488Y125492D01*
X542488Y127492D01*
X544488Y126492D01*
X546488Y127492D01*
X545488Y125492D01*
X546488Y123492D01*
X544488Y124492D01*
X542488Y123492D01*
X541602Y107744D02*
X542602Y109744D01*
X541602Y111744D01*
X543602Y110744D01*
X545602Y111744D01*
X544602Y109744D01*
X545602Y107744D01*
X543602Y108744D01*
X541602Y107744D01*
X550700Y105000D02*
X551700Y107000D01*
X550700Y109000D01*
X552700Y108000D01*
X554700Y109000D01*
X553700Y107000D01*
X554700Y105000D01*
X552700Y106000D01*
X550700Y105000D01*
X551100Y127400D02*
X552100Y129400D01*
X551100Y131400D01*
X553100Y130400D01*
X555100Y131400D01*
X554100Y129400D01*
X555100Y127400D01*
X553100Y128400D01*
X551100Y127400D01*
X542546Y488527D02*
X543546Y490527D01*
X542546Y492527D01*
X544546Y491527D01*
X546546Y492527D01*
X545546Y490527D01*
X546546Y488527D01*
X544546Y489527D01*
X542546Y488527D01*
X541660Y472779D02*
X542660Y474779D01*
X541660Y476779D01*
X543660Y475779D01*
X545660Y476779D01*
X544660Y474779D01*
X545660Y472779D01*
X543660Y473779D01*
X541660Y472779D01*
X551100Y470000D02*
X552100Y472000D01*
X551100Y474000D01*
X553100Y473000D01*
X555100Y474000D01*
X554100Y472000D01*
X555100Y470000D01*
X553100Y471000D01*
X551100Y470000D01*
X550500Y492200D02*
X551500Y494200D01*
X550500Y496200D01*
X552500Y495200D01*
X554500Y496200D01*
X553500Y494200D01*
X554500Y492200D01*
X552500Y493200D01*
X550500Y492200D01*
X359417Y107941D02*
X360417Y109941D01*
X359417Y111941D01*
X361417Y110941D01*
X363417Y111941D01*
X362417Y109941D01*
X363417Y107941D01*
X361417Y108941D01*
X359417Y107941D01*
X360303Y123689D02*
X361303Y125689D01*
X360303Y127689D01*
X362303Y126689D01*
X364303Y127689D01*
X363303Y125689D01*
X364303Y123689D01*
X362303Y124689D01*
X360303Y123689D01*
X351248Y126839D02*
X352248Y128839D01*
X351248Y130839D01*
X353248Y129839D01*
X355248Y130839D01*
X354248Y128839D01*
X355248Y126839D01*
X353248Y127839D01*
X351248Y126839D01*
X351300Y470400D02*
X352300Y472400D01*
X351300Y474400D01*
X353300Y473400D01*
X355300Y474400D01*
X354300Y472400D01*
X355300Y470400D01*
X353300Y471400D01*
X351300Y470400D01*
X351000Y493000D02*
X352000Y495000D01*
X351000Y497000D01*
X353000Y496000D01*
X355000Y497000D01*
X354000Y495000D01*
X355000Y493000D01*
X353000Y494000D01*
X351000Y493000D01*
X360303Y489929D02*
X361303Y491929D01*
X360303Y493929D01*
X362303Y492929D01*
X364303Y493929D01*
X363303Y491929D01*
X364303Y489929D01*
X362303Y490929D01*
X360303Y489929D01*
X359417Y474181D02*
X360417Y476181D01*
X359417Y478181D01*
X361417Y477181D01*
X363417Y478181D01*
X362417Y476181D01*
X363417Y474181D01*
X361417Y475181D01*
X359417Y474181D01*
X693015Y443234D02*
X694015Y445234D01*
X693015Y447234D01*
X695015Y446234D01*
X697015Y447234D01*
X696015Y445234D01*
X697015Y443234D01*
X695015Y444234D01*
X693015Y443234D01*
X81366Y43965D02*
X82366Y45965D01*
X81366Y47965D01*
X83366Y46965D01*
X85366Y47965D01*
X84366Y45965D01*
X85366Y43965D01*
X83366Y44965D01*
X81366Y43965D01*
X81563Y78020D02*
X82563Y80020D01*
X81563Y82020D01*
X83563Y81020D01*
X85563Y82020D01*
X84563Y80020D01*
X85563Y78020D01*
X83563Y79020D01*
X81563Y78020D01*
X81858Y399279D02*
X82858Y401279D01*
X81858Y403279D01*
X83858Y402280D01*
X85858Y403279D01*
X84858Y401279D01*
X85858Y399279D01*
X83858Y400280D01*
X81858Y399279D01*
X81563Y365028D02*
X82563Y367028D01*
X81563Y369028D01*
X83563Y368028D01*
X85563Y369028D01*
X84563Y367028D01*
X85563Y365028D01*
X83563Y366028D01*
X81563Y365028D01*
X550374Y119574D02*
X551374Y121574D01*
X550374Y123574D01*
X552374Y122574D01*
X554374Y123574D01*
X553374Y121574D01*
X554374Y119574D01*
X552374Y120574D01*
X550374Y119574D01*
Y112574D02*
X551374Y114574D01*
X550374Y116574D01*
X552374Y115574D01*
X554374Y116574D01*
X553374Y114574D01*
X554374Y112574D01*
X552374Y113574D01*
X550374Y112574D01*
X546874D02*
X547874Y114574D01*
X546874Y116574D01*
X548874Y115574D01*
X550874Y116574D01*
X549874Y114574D01*
X550874Y112574D01*
X548874Y113574D01*
X546874Y112574D01*
X553874D02*
X554874Y114574D01*
X553874Y116574D01*
X555874Y115574D01*
X557874Y116574D01*
X556874Y114574D01*
X557874Y112574D01*
X555874Y113574D01*
X553874Y112574D01*
Y119574D02*
X554874Y121574D01*
X553874Y123574D01*
X555874Y122574D01*
X557874Y123574D01*
X556874Y121574D01*
X557874Y119574D01*
X555874Y120574D01*
X553874Y119574D01*
X546874D02*
X547874Y121574D01*
X546874Y123574D01*
X548874Y122574D01*
X550874Y123574D01*
X549874Y121574D01*
X550874Y119574D01*
X548874Y120574D01*
X546874Y119574D01*
Y116074D02*
X547874Y118074D01*
X546874Y120074D01*
X548874Y119074D01*
X550874Y120074D01*
X549874Y118074D01*
X550874Y116074D01*
X548874Y117074D01*
X546874Y116074D01*
X553874D02*
X554874Y118074D01*
X553874Y120074D01*
X555874Y119074D01*
X557874Y120074D01*
X556874Y118074D01*
X557874Y116074D01*
X555874Y117074D01*
X553874Y116074D01*
X550374D02*
X551374Y118074D01*
X550374Y120074D01*
X552374Y119074D01*
X554374Y120074D01*
X553374Y118074D01*
X554374Y116074D01*
X552374Y117074D01*
X550374Y116074D01*
X550416Y484479D02*
X551416Y486479D01*
X550416Y488479D01*
X552416Y487479D01*
X554416Y488479D01*
X553416Y486479D01*
X554416Y484479D01*
X552416Y485479D01*
X550416Y484479D01*
Y477479D02*
X551416Y479479D01*
X550416Y481479D01*
X552416Y480479D01*
X554416Y481479D01*
X553416Y479479D01*
X554416Y477479D01*
X552416Y478479D01*
X550416Y477479D01*
X546916D02*
X547916Y479479D01*
X546916Y481479D01*
X548916Y480479D01*
X550916Y481479D01*
X549916Y479479D01*
X550916Y477479D01*
X548916Y478479D01*
X546916Y477479D01*
X553916D02*
X554916Y479479D01*
X553916Y481479D01*
X555916Y480479D01*
X557916Y481479D01*
X556916Y479479D01*
X557916Y477479D01*
X555916Y478479D01*
X553916Y477479D01*
Y484479D02*
X554916Y486479D01*
X553916Y488479D01*
X555916Y487479D01*
X557916Y488479D01*
X556916Y486479D01*
X557916Y484479D01*
X555916Y485479D01*
X553916Y484479D01*
X546916D02*
X547916Y486479D01*
X546916Y488479D01*
X548916Y487479D01*
X550916Y488479D01*
X549916Y486479D01*
X550916Y484479D01*
X548916Y485479D01*
X546916Y484479D01*
Y480979D02*
X547916Y482979D01*
X546916Y484979D01*
X548916Y483979D01*
X550916Y484979D01*
X549916Y482979D01*
X550916Y480979D01*
X548916Y481979D01*
X546916Y480979D01*
X553916D02*
X554916Y482979D01*
X553916Y484979D01*
X555916Y483979D01*
X557916Y484979D01*
X556916Y482979D01*
X557916Y480979D01*
X555916Y481979D01*
X553916Y480979D01*
X550416D02*
X551416Y482979D01*
X550416Y484979D01*
X552416Y483979D01*
X554416Y484979D01*
X553416Y482979D01*
X554416Y480979D01*
X552416Y481979D01*
X550416Y480979D01*
X700558Y367558D02*
X701557Y369557D01*
X700558Y371557D01*
X702558Y370557D01*
X704558Y371557D01*
X703557Y369557D01*
X704558Y367558D01*
X702558Y368558D01*
X700558Y367558D01*
X691107Y369348D02*
X692107Y371348D01*
X691107Y373348D01*
X693107Y372348D01*
X695107Y373348D01*
X694107Y371348D01*
X695107Y369348D01*
X693107Y370348D01*
X691107Y369348D01*
X701925Y445526D02*
X702925Y447526D01*
X701925Y449526D01*
X703925Y448526D01*
X705925Y449526D01*
X704925Y447526D01*
X705925Y445526D01*
X703925Y446526D01*
X701925Y445526D01*
X351543Y481661D02*
X352543Y483661D01*
X351543Y485661D01*
X353543Y484661D01*
X355543Y485661D01*
X354543Y483661D01*
X355543Y481661D01*
X353543Y482661D01*
X351543Y481661D01*
X355043D02*
X356043Y483661D01*
X355043Y485661D01*
X357043Y484661D01*
X359043Y485661D01*
X358043Y483661D01*
X359043Y481661D01*
X357043Y482661D01*
X355043Y481661D01*
X348043D02*
X349043Y483661D01*
X348043Y485661D01*
X350043Y484661D01*
X352043Y485661D01*
X351043Y483661D01*
X352043Y481661D01*
X350043Y482661D01*
X348043Y481661D01*
Y485161D02*
X349043Y487161D01*
X348043Y489161D01*
X350043Y488161D01*
X352043Y489161D01*
X351043Y487161D01*
X352043Y485161D01*
X350043Y486161D01*
X348043Y485161D01*
X355043D02*
X356043Y487161D01*
X355043Y489161D01*
X357043Y488161D01*
X359043Y489161D01*
X358043Y487161D01*
X359043Y485161D01*
X357043Y486161D01*
X355043Y485161D01*
Y478161D02*
X356043Y480161D01*
X355043Y482161D01*
X357043Y481161D01*
X359043Y482161D01*
X358043Y480161D01*
X359043Y478161D01*
X357043Y479161D01*
X355043Y478161D01*
X348043D02*
X349043Y480161D01*
X348043Y482161D01*
X350043Y481161D01*
X352043Y482161D01*
X351043Y480161D01*
X352043Y478161D01*
X350043Y479161D01*
X348043Y478161D01*
X351543D02*
X352543Y480161D01*
X351543Y482161D01*
X353543Y481161D01*
X355543Y482161D01*
X354543Y480161D01*
X355543Y478161D01*
X353543Y479161D01*
X351543Y478161D01*
Y485161D02*
X352543Y487161D01*
X351543Y489161D01*
X353543Y488161D01*
X355543Y489161D01*
X354543Y487161D01*
X355543Y485161D01*
X353543Y486161D01*
X351543Y485161D01*
Y115520D02*
X352543Y117520D01*
X351543Y119520D01*
X353543Y118520D01*
X355543Y119520D01*
X354543Y117520D01*
X355543Y115520D01*
X353543Y116520D01*
X351543Y115520D01*
Y119020D02*
X352543Y121020D01*
X351543Y123020D01*
X353543Y122020D01*
X355543Y123020D01*
X354543Y121020D01*
X355543Y119020D01*
X353543Y120020D01*
X351543Y119020D01*
Y112020D02*
X352543Y114020D01*
X351543Y116020D01*
X353543Y115020D01*
X355543Y116020D01*
X354543Y114020D01*
X355543Y112020D01*
X353543Y113020D01*
X351543Y112020D01*
X348043Y115520D02*
X349043Y117520D01*
X348043Y119520D01*
X350043Y118520D01*
X352043Y119520D01*
X351043Y117520D01*
X352043Y115520D01*
X350043Y116520D01*
X348043Y115520D01*
X355043D02*
X356043Y117520D01*
X355043Y119520D01*
X357043Y118520D01*
X359043Y119520D01*
X358043Y117520D01*
X359043Y115520D01*
X357043Y116520D01*
X355043Y115520D01*
X348043Y112020D02*
X349043Y114020D01*
X348043Y116020D01*
X350043Y115020D01*
X352043Y116020D01*
X351043Y114020D01*
X352043Y112020D01*
X350043Y113020D01*
X348043Y112020D01*
X355043D02*
X356043Y114020D01*
X355043Y116020D01*
X357043Y115020D01*
X359043Y116020D01*
X358043Y114020D01*
X359043Y112020D01*
X357043Y113020D01*
X355043Y112020D01*
Y119020D02*
X356043Y121020D01*
X355043Y123020D01*
X357043Y122020D01*
X359043Y123020D01*
X358043Y121020D01*
X359043Y119020D01*
X357043Y120020D01*
X355043Y119020D01*
X348043D02*
X349043Y121020D01*
X348043Y123020D01*
X350043Y122020D01*
X352043Y123020D01*
X351043Y121020D01*
X352043Y119020D01*
X350043Y120020D01*
X348043Y119020D01*
X221251Y188431D02*
X222251Y190431D01*
X221251Y192431D01*
X223251Y191431D01*
X225251Y192431D01*
X224251Y190431D01*
X225251Y188431D01*
X223251Y189431D01*
X221251Y188431D01*
Y192831D02*
X222251Y194831D01*
X221251Y196831D01*
X223251Y195831D01*
X225251Y196831D01*
X224251Y194831D01*
X225251Y192831D01*
X223251Y193831D01*
X221251Y192831D01*
X215251Y188431D02*
X216251Y190431D01*
X215251Y192431D01*
X217251Y191431D01*
X219251Y192431D01*
X218251Y190431D01*
X219251Y188431D01*
X217251Y189431D01*
X215251Y188431D01*
Y192831D02*
X216251Y194831D01*
X215251Y196831D01*
X217251Y195831D01*
X219251Y196831D01*
X218251Y194831D01*
X219251Y192831D01*
X217251Y193831D01*
X215251Y192831D01*
X218251Y190631D02*
X219251Y192631D01*
X218251Y194631D01*
X220251Y193631D01*
X222251Y194631D01*
X221251Y192631D01*
X222251Y190631D01*
X220251Y191631D01*
X218251Y190631D01*
X220345Y246911D02*
X221345Y248910D01*
X220345Y250910D01*
X222345Y249910D01*
X224345Y250910D01*
X223345Y248910D01*
X224345Y246911D01*
X222345Y247910D01*
X220345Y246911D01*
X223645D02*
X224645Y248910D01*
X223645Y250910D01*
X225645Y249910D01*
X227645Y250910D01*
X226645Y248910D01*
X227645Y246911D01*
X225645Y247910D01*
X223645Y246911D01*
X220345Y243611D02*
X221345Y245610D01*
X220345Y247610D01*
X222345Y246610D01*
X224345Y247610D01*
X223345Y245610D01*
X224345Y243611D01*
X222345Y244611D01*
X220345Y243611D01*
X223645D02*
X224645Y245610D01*
X223645Y247610D01*
X225645Y246610D01*
X227645Y247610D01*
X226645Y245610D01*
X227645Y243611D01*
X225645Y244611D01*
X223645Y243611D01*
X221179Y220289D02*
X222179Y222289D01*
X221179Y224289D01*
X223179Y223289D01*
X225179Y224289D01*
X224179Y222289D01*
X225179Y220289D01*
X223179Y221289D01*
X221179Y220289D01*
X224779D02*
X225779Y222289D01*
X224779Y224289D01*
X226779Y223289D01*
X228779Y224289D01*
X227779Y222289D01*
X228779Y220289D01*
X226779Y221289D01*
X224779Y220289D01*
Y216689D02*
X225779Y218689D01*
X224779Y220689D01*
X226779Y219689D01*
X228779Y220689D01*
X227779Y218689D01*
X228779Y216689D01*
X226779Y217689D01*
X224779Y216689D01*
X224673Y254398D02*
X225673Y256398D01*
X224673Y258398D01*
X226673Y257398D01*
X228673Y258398D01*
X227673Y256398D01*
X228673Y254398D01*
X226673Y255398D01*
X224673Y254398D01*
X219457Y254299D02*
X220457Y256299D01*
X219457Y258299D01*
X221457Y257299D01*
X223457Y258299D01*
X222457Y256299D01*
X223457Y254299D01*
X221457Y255299D01*
X219457Y254299D01*
X218100Y176000D02*
X219100Y178000D01*
X218100Y180000D01*
X220100Y179000D01*
X222100Y180000D01*
X221100Y178000D01*
X222100Y176000D01*
X220100Y177000D01*
X218100Y176000D01*
X225067Y236287D02*
X226067Y238287D01*
X225067Y240287D01*
X227067Y239287D01*
X229067Y240287D01*
X228067Y238287D01*
X229067Y236287D01*
X227067Y237287D01*
X225067Y236287D01*
X218866Y236189D02*
X219866Y238189D01*
X218866Y240189D01*
X220866Y239189D01*
X222866Y240189D01*
X221866Y238189D01*
X222866Y236189D01*
X220866Y237189D01*
X218866Y236189D01*
X225264Y227724D02*
X226264Y229724D01*
X225264Y231724D01*
X227264Y230724D01*
X229264Y231724D01*
X228264Y229724D01*
X229264Y227724D01*
X227264Y228724D01*
X225264Y227724D01*
X219100Y227600D02*
X220100Y229600D01*
X219100Y231600D01*
X221100Y230600D01*
X223100Y231600D01*
X222100Y229600D01*
X223100Y227600D01*
X221100Y228600D01*
X219100Y227600D01*
D92*
X161996Y175758D02*
G03*
X161996Y175758I-2000J0D01*
G01*
Y195442D02*
G03*
X161996Y195442I-2000J0D01*
G01*
X149004Y185600D02*
G03*
X149004Y185600I-2000J0D01*
G01*
X161596Y220357D02*
G03*
X161596Y220357I-2000J0D01*
G01*
Y240042D02*
G03*
X161596Y240042I-2000J0D01*
G01*
X148604Y230200D02*
G03*
X148604Y230200I-2000J0D01*
G01*
M02*
