G04*
G04 #@! TF.GenerationSoftware,Altium Limited,Altium Designer,23.2.1 (34)*
G04*
G04 Layer_Color=32896*
%FSLAX25Y25*%
%MOIN*%
G70*
G04*
G04 #@! TF.SameCoordinates,342CFCC0-3008-4232-B3F0-62073F027D76*
G04*
G04*
G04 #@! TF.FilePolarity,Positive*
G04*
G01*
G75*
%ADD12C,0.01000*%
%ADD15C,0.00600*%
D12*
X638091Y147638D02*
X695472Y106102D01*
X638681Y130905D02*
X713287Y136122D01*
X653346Y106102D02*
X694882Y101772D01*
X633366Y516535D02*
X652165Y445768D01*
X618012Y468405D02*
X645965Y444095D01*
X633760Y501772D02*
X654331Y491634D01*
X776500Y0D02*
Y304807D01*
Y351993D02*
Y660000D01*
X751000Y0D02*
X777500D01*
X751000Y660000D02*
X777500D01*
X776500Y0D02*
X778500Y6000D01*
X774500D02*
X776500Y0D01*
X774500Y654000D02*
X776500Y660000D01*
X778500Y654000D01*
X750000Y661000D02*
Y673300D01*
X56000Y661000D02*
Y673300D01*
X424993Y672300D02*
X750000D01*
X56000D02*
X377807D01*
X744000Y674300D02*
X750000Y672300D01*
X744000Y670300D02*
X750000Y672300D01*
X56000D02*
X62000Y670300D01*
X56000Y672300D02*
X62000Y674300D01*
X168897Y283060D02*
X168992Y255894D01*
X137008Y282948D02*
X137103Y255783D01*
X137008Y282948D02*
X168897Y283060D01*
X137103Y255783D02*
X168992Y255894D01*
D15*
X780099Y306407D02*
Y308406D01*
Y307407D01*
X774101D01*
X775101Y306407D01*
X774101Y315404D02*
X775101Y313405D01*
X777100Y311405D01*
X779099D01*
X780099Y312405D01*
Y314405D01*
X779099Y315404D01*
X778100D01*
X777100Y314405D01*
Y311405D01*
X774101Y317404D02*
Y321402D01*
X775101D01*
X779099Y317404D01*
X780099D01*
Y323402D02*
X779099D01*
Y324401D01*
X780099D01*
Y323402D01*
X774101Y332399D02*
X775101Y330399D01*
X777100Y328400D01*
X779099D01*
X780099Y329400D01*
Y331399D01*
X779099Y332399D01*
X778100D01*
X777100Y331399D01*
Y328400D01*
X780099Y337397D02*
X774101D01*
X777100Y334398D01*
Y338397D01*
X780099Y340396D02*
X776100D01*
Y341396D01*
X777100Y342395D01*
X780099D01*
X777100D01*
X776100Y343395D01*
X777100Y344395D01*
X780099D01*
Y346394D02*
X776100D01*
Y347394D01*
X777100Y348394D01*
X780099D01*
X777100D01*
X776100Y349393D01*
X777100Y350393D01*
X780099D01*
X379407Y668701D02*
X381406D01*
X380407D01*
Y674699D01*
X379407Y673699D01*
X384405Y674699D02*
X388404D01*
Y673699D01*
X384405Y669701D01*
Y668701D01*
X394402Y674699D02*
X392403Y673699D01*
X390404Y671700D01*
Y669701D01*
X391403Y668701D01*
X393403D01*
X394402Y669701D01*
Y670700D01*
X393403Y671700D01*
X390404D01*
X396402Y668701D02*
Y669701D01*
X397401D01*
Y668701D01*
X396402D01*
X405399D02*
X401400D01*
X405399Y672700D01*
Y673699D01*
X404399Y674699D01*
X402400D01*
X401400Y673699D01*
X407398D02*
X408398Y674699D01*
X410397D01*
X411397Y673699D01*
Y672700D01*
X410397Y671700D01*
X411397Y670700D01*
Y669701D01*
X410397Y668701D01*
X408398D01*
X407398Y669701D01*
Y670700D01*
X408398Y671700D01*
X407398Y672700D01*
Y673699D01*
X408398Y671700D02*
X410397D01*
X413396Y668701D02*
Y672700D01*
X414396D01*
X415395Y671700D01*
Y668701D01*
Y671700D01*
X416395Y672700D01*
X417395Y671700D01*
Y668701D01*
X419394D02*
Y672700D01*
X420394D01*
X421393Y671700D01*
Y668701D01*
Y671700D01*
X422393Y672700D01*
X423393Y671700D01*
Y668701D01*
M02*
