G04*
G04 #@! TF.GenerationSoftware,Altium Limited,Altium Designer,23.2.1 (34)*
G04*
G04 Layer_Color=8421504*
%FSLAX25Y25*%
%MOIN*%
G70*
G04*
G04 #@! TF.SameCoordinates,342CFCC0-3008-4232-B3F0-62073F027D76*
G04*
G04*
G04 #@! TF.FilePolarity,Positive*
G04*
G01*
G75*
%ADD12C,0.01000*%
%ADD15C,0.00600*%
%ADD16R,0.13610X0.01968*%
%ADD17R,0.01100X0.01000*%
%ADD18R,0.03543X0.02756*%
%ADD19R,0.01968X0.02756*%
%ADD20R,0.05733X0.04940*%
%ADD21R,0.03591X0.03772*%
%ADD22R,0.23000X0.09000*%
%ADD23R,0.23000X0.09500*%
%ADD24R,0.09646X0.09646*%
%ADD25R,0.03150X0.00984*%
%ADD26R,0.00984X0.03150*%
%ADD27R,0.02598X0.02441*%
%ADD28R,0.13610X0.01992*%
%ADD29R,0.02441X0.02598*%
%ADD30R,0.02756X0.03543*%
%ADD31R,0.01772X0.05315*%
%ADD32R,0.08898X0.07205*%
%ADD33R,0.05709X0.05709*%
%ADD34R,0.02559X0.00984*%
%ADD35R,0.00984X0.02559*%
%ADD36R,0.01181X0.02953*%
%ADD37R,0.02953X0.01181*%
%ADD38R,0.06890X0.06890*%
%ADD39R,0.13610X0.01575*%
%ADD40R,0.03291X0.13610*%
%ADD41R,0.01968X0.13610*%
%ADD42R,0.01000X0.01100*%
%ADD43R,0.07087X0.05315*%
%ADD44R,0.07284X0.06496*%
%ADD45R,0.03740X0.03937*%
%ADD46R,0.03937X0.03740*%
%ADD47R,0.02423X0.02254*%
D12*
X776500D02*
Y304807D01*
Y351993D02*
Y660000D01*
X751000Y0D02*
X777500D01*
X751000Y660000D02*
X777500D01*
X776500Y0D02*
X778500Y6000D01*
X774500D02*
X776500Y0D01*
X774500Y654000D02*
X776500Y660000D01*
X778500Y654000D01*
X750000Y661000D02*
Y673300D01*
X56000Y661000D02*
Y673300D01*
X424993Y672300D02*
X750000D01*
X56000D02*
X377807D01*
X744000Y674300D02*
X750000Y672300D01*
X744000Y670300D02*
X750000Y672300D01*
X56000D02*
X62000Y670300D01*
X56000Y672300D02*
X62000Y674300D01*
X168897Y283060D02*
X168992Y255894D01*
X137008Y282948D02*
X137103Y255783D01*
X137008Y282948D02*
X168897Y283060D01*
X137103Y255783D02*
X168992Y255894D01*
D15*
X780099Y306407D02*
Y308406D01*
Y307407D01*
X774101D01*
X775101Y306407D01*
X774101Y315404D02*
X775101Y313405D01*
X777100Y311405D01*
X779099D01*
X780099Y312405D01*
Y314405D01*
X779099Y315404D01*
X778100D01*
X777100Y314405D01*
Y311405D01*
X774101Y317404D02*
Y321402D01*
X775101D01*
X779099Y317404D01*
X780099D01*
Y323402D02*
X779099D01*
Y324401D01*
X780099D01*
Y323402D01*
X774101Y332399D02*
X775101Y330399D01*
X777100Y328400D01*
X779099D01*
X780099Y329400D01*
Y331399D01*
X779099Y332399D01*
X778100D01*
X777100Y331399D01*
Y328400D01*
X780099Y337397D02*
X774101D01*
X777100Y334398D01*
Y338397D01*
X780099Y340396D02*
X776100D01*
Y341396D01*
X777100Y342395D01*
X780099D01*
X777100D01*
X776100Y343395D01*
X777100Y344395D01*
X780099D01*
Y346394D02*
X776100D01*
Y347394D01*
X777100Y348394D01*
X780099D01*
X777100D01*
X776100Y349393D01*
X777100Y350393D01*
X780099D01*
X379407Y668701D02*
X381406D01*
X380407D01*
Y674699D01*
X379407Y673699D01*
X384405Y674699D02*
X388404D01*
Y673699D01*
X384405Y669701D01*
Y668701D01*
X394402Y674699D02*
X392403Y673699D01*
X390404Y671700D01*
Y669701D01*
X391403Y668701D01*
X393403D01*
X394402Y669701D01*
Y670700D01*
X393403Y671700D01*
X390404D01*
X396402Y668701D02*
Y669701D01*
X397401D01*
Y668701D01*
X396402D01*
X405399D02*
X401400D01*
X405399Y672700D01*
Y673699D01*
X404399Y674699D01*
X402400D01*
X401400Y673699D01*
X407398D02*
X408398Y674699D01*
X410397D01*
X411397Y673699D01*
Y672700D01*
X410397Y671700D01*
X411397Y670700D01*
Y669701D01*
X410397Y668701D01*
X408398D01*
X407398Y669701D01*
Y670700D01*
X408398Y671700D01*
X407398Y672700D01*
Y673699D01*
X408398Y671700D02*
X410397D01*
X413396Y668701D02*
Y672700D01*
X414396D01*
X415395Y671700D01*
Y668701D01*
Y671700D01*
X416395Y672700D01*
X417395Y671700D01*
Y668701D01*
X419394D02*
Y672700D01*
X420394D01*
X421393Y671700D01*
Y668701D01*
Y671700D01*
X422393Y672700D01*
X423393Y671700D01*
Y668701D01*
D16*
X549399Y461754D02*
D03*
X356484Y505512D02*
D03*
Y461784D02*
D03*
X549396Y95642D02*
D03*
X549398Y139370D02*
D03*
Y505512D02*
D03*
X356483Y139370D02*
D03*
X356483Y95640D02*
D03*
X224100Y168276D02*
D03*
X224000Y278724D02*
D03*
D17*
X549399Y472777D02*
D03*
X356484Y494488D02*
D03*
Y472807D02*
D03*
X549396Y106665D02*
D03*
X549398Y128347D02*
D03*
Y494488D02*
D03*
X356483Y128347D02*
D03*
X356483Y106664D02*
D03*
X224100Y179300D02*
D03*
X224000Y267700D02*
D03*
D18*
X681791Y456102D02*
D03*
Y450591D02*
D03*
X678900Y380156D02*
D03*
Y374644D02*
D03*
X81890Y236221D02*
D03*
Y241732D02*
D03*
X172700Y211056D02*
D03*
Y205544D02*
D03*
X197281Y214582D02*
D03*
Y220094D02*
D03*
Y226787D02*
D03*
Y232299D02*
D03*
D19*
X674606Y455709D02*
D03*
Y452165D02*
D03*
X671000Y375328D02*
D03*
Y378872D02*
D03*
X73228Y241535D02*
D03*
Y237992D02*
D03*
D20*
X703925Y435875D02*
D03*
Y442377D02*
D03*
X106496Y242129D02*
D03*
Y235627D02*
D03*
X702658Y374206D02*
D03*
Y380709D02*
D03*
D21*
X695015Y440996D02*
D03*
Y435272D02*
D03*
X97441Y235327D02*
D03*
Y241051D02*
D03*
X693307Y381110D02*
D03*
Y375386D02*
D03*
D22*
X70000Y384122D02*
D03*
Y62750D02*
D03*
D23*
Y366872D02*
D03*
Y401372D02*
D03*
Y45500D02*
D03*
Y80000D02*
D03*
D24*
X353543Y483661D02*
D03*
X552374Y118074D02*
D03*
X552416Y482979D02*
D03*
X353543Y117520D02*
D03*
D25*
X345965Y478740D02*
D03*
Y480709D02*
D03*
Y482677D02*
D03*
Y484646D02*
D03*
Y486614D02*
D03*
Y488583D02*
D03*
X361122D02*
D03*
Y486614D02*
D03*
Y484646D02*
D03*
Y482677D02*
D03*
Y480709D02*
D03*
Y478740D02*
D03*
X559953Y122995D02*
D03*
Y121026D02*
D03*
Y119058D02*
D03*
Y117089D02*
D03*
Y115121D02*
D03*
Y113152D02*
D03*
X544795D02*
D03*
Y115121D02*
D03*
Y117089D02*
D03*
Y119058D02*
D03*
Y121026D02*
D03*
Y122995D02*
D03*
X559995Y487900D02*
D03*
Y485931D02*
D03*
Y483963D02*
D03*
Y481994D02*
D03*
Y480026D02*
D03*
Y478057D02*
D03*
X544837D02*
D03*
Y480026D02*
D03*
Y481994D02*
D03*
Y483963D02*
D03*
Y485931D02*
D03*
Y487900D02*
D03*
X345965Y112598D02*
D03*
Y114567D02*
D03*
Y116535D02*
D03*
Y118504D02*
D03*
Y120473D02*
D03*
Y122441D02*
D03*
X361122D02*
D03*
Y120473D02*
D03*
Y118504D02*
D03*
Y116535D02*
D03*
Y114567D02*
D03*
Y112598D02*
D03*
D26*
X348622Y491240D02*
D03*
X350590D02*
D03*
X352559D02*
D03*
X354528D02*
D03*
X356496D02*
D03*
X358465D02*
D03*
Y476083D02*
D03*
X356496D02*
D03*
X354528D02*
D03*
X352559D02*
D03*
X350590D02*
D03*
X348622D02*
D03*
X557295Y110495D02*
D03*
X555327D02*
D03*
X553358D02*
D03*
X551390D02*
D03*
X549421D02*
D03*
X547453D02*
D03*
Y125652D02*
D03*
X549421D02*
D03*
X551390D02*
D03*
X553358D02*
D03*
X555327D02*
D03*
X557295D02*
D03*
X557337Y475400D02*
D03*
X555369D02*
D03*
X553400D02*
D03*
X551432D02*
D03*
X549463D02*
D03*
X547495D02*
D03*
Y490557D02*
D03*
X549463D02*
D03*
X551432D02*
D03*
X553400D02*
D03*
X555369D02*
D03*
X557337D02*
D03*
X348622Y125098D02*
D03*
X350590D02*
D03*
X352559D02*
D03*
X354528D02*
D03*
X356496D02*
D03*
X358465D02*
D03*
Y109941D02*
D03*
X356496D02*
D03*
X354528D02*
D03*
X352559D02*
D03*
X350590D02*
D03*
X348622D02*
D03*
D27*
X340453Y474114D02*
D03*
X336988D02*
D03*
X340453Y493012D02*
D03*
X336988D02*
D03*
X565098Y126870D02*
D03*
X568563D02*
D03*
X565433Y109350D02*
D03*
X568898D02*
D03*
X565098Y491929D02*
D03*
X568563D02*
D03*
X565098Y474213D02*
D03*
X568563D02*
D03*
X336791Y108366D02*
D03*
X340256D02*
D03*
X337185Y126772D02*
D03*
X340650D02*
D03*
D28*
X356496Y525492D02*
D03*
X356496Y159350D02*
D03*
X549409Y525492D02*
D03*
Y159350D02*
D03*
D29*
X224000Y264865D02*
D03*
Y261400D02*
D03*
X211101Y217103D02*
D03*
Y213638D02*
D03*
X211003Y226926D02*
D03*
Y230390D02*
D03*
X209400Y259632D02*
D03*
Y256168D02*
D03*
X224000Y232268D02*
D03*
Y235732D02*
D03*
D30*
X182356Y239800D02*
D03*
X176844D02*
D03*
X160800Y159600D02*
D03*
X155288D02*
D03*
X148500Y159700D02*
D03*
X142988D02*
D03*
D31*
X216412Y183871D02*
D03*
X218971D02*
D03*
X221530D02*
D03*
X224089D02*
D03*
X216412Y201391D02*
D03*
X218971D02*
D03*
X221530D02*
D03*
X224089D02*
D03*
D32*
X220251Y192631D02*
D03*
D33*
X223995Y247260D02*
D03*
D34*
X218089Y245253D02*
D03*
Y247260D02*
D03*
Y249268D02*
D03*
X229900D02*
D03*
Y247260D02*
D03*
Y245253D02*
D03*
D35*
X221987Y253166D02*
D03*
X223995D02*
D03*
X226003D02*
D03*
Y241355D02*
D03*
X223995D02*
D03*
X221987D02*
D03*
D36*
X222026Y214583D02*
D03*
X223995D02*
D03*
X225963D02*
D03*
X227932D02*
D03*
Y226394D02*
D03*
X225963D02*
D03*
X223995D02*
D03*
X222026D02*
D03*
D37*
X230885Y217536D02*
D03*
Y219505D02*
D03*
Y221473D02*
D03*
Y223442D02*
D03*
X219074D02*
D03*
Y221473D02*
D03*
Y219505D02*
D03*
Y217536D02*
D03*
D38*
X224979Y220489D02*
D03*
D39*
X356496Y441929D02*
D03*
X549409D02*
D03*
Y75787D02*
D03*
X356496D02*
D03*
D40*
X249131Y221512D02*
D03*
D41*
X245312Y221472D02*
D03*
D42*
X234289D02*
D03*
D43*
X202000Y248687D02*
D03*
Y259513D02*
D03*
D44*
X197912Y190580D02*
D03*
Y200226D02*
D03*
D45*
X207459Y203080D02*
D03*
Y197175D02*
D03*
D46*
X209153Y179700D02*
D03*
X203247D02*
D03*
X209153Y172900D02*
D03*
X203247D02*
D03*
D47*
X218000Y259800D02*
D03*
X214626D02*
D03*
M02*
