G04*
G04 #@! TF.GenerationSoftware,Altium Limited,Altium Designer,23.2.1 (34)*
G04*
G04 Layer_Color=255*
%FSLAX25Y25*%
%MOIN*%
G70*
G04*
G04 #@! TF.SameCoordinates,F271847A-4AD1-4DFD-BFDE-6748CE706F92*
G04*
G04*
G04 #@! TF.FilePolarity,Positive*
G04*
G01*
G75*
%ADD12C,0.01000*%
%ADD15C,0.00394*%
%ADD16C,0.00600*%
%ADD17R,0.13610X0.01575*%
%ADD18R,0.03291X0.13610*%
%ADD19R,0.03543X0.02756*%
%ADD20R,0.01968X0.02756*%
%ADD21R,0.13610X0.01992*%
%ADD22R,0.09646X0.09646*%
%ADD23R,0.03150X0.00984*%
%ADD24R,0.00984X0.03150*%
%ADD25R,0.02598X0.02441*%
%ADD26R,0.13610X0.01968*%
%ADD27R,0.01100X0.01000*%
%ADD28R,0.01968X0.13610*%
%ADD29R,0.01000X0.01100*%
%ADD30R,0.05733X0.04940*%
%ADD31R,0.03591X0.03772*%
%ADD32R,0.23000X0.09000*%
%ADD33R,0.23000X0.09500*%
%ADD34R,0.02441X0.02598*%
%ADD35R,0.02756X0.03543*%
%ADD36R,0.01772X0.05315*%
%ADD37R,0.08898X0.07205*%
%ADD38R,0.05709X0.05709*%
%ADD39R,0.02559X0.00984*%
%ADD40R,0.00984X0.02559*%
%ADD41R,0.01181X0.02953*%
%ADD42R,0.02953X0.01181*%
%ADD43R,0.06890X0.06890*%
%ADD44R,0.07087X0.05315*%
%ADD45R,0.07284X0.06496*%
%ADD46R,0.03740X0.03937*%
%ADD47R,0.03937X0.03740*%
%ADD48R,0.02423X0.02254*%
%ADD86C,0.27559*%
%ADD87C,0.07087*%
%ADD88C,0.06400*%
%ADD89C,0.07874*%
%ADD90C,0.06299*%
D12*
X301905Y381390D02*
X302000Y354225D01*
X270016Y381279D02*
X270111Y354114D01*
X270016Y381279D02*
X301905Y381390D01*
X270111Y354114D02*
X302000Y354225D01*
D15*
X190000Y21000D02*
Y221000D01*
X450093Y192713D02*
Y221000D01*
X190000Y220000D02*
X294354D01*
X342539D02*
X450093D01*
X190000D02*
X196000Y218000D01*
X190000Y220000D02*
X196000Y222000D01*
X444093D02*
X450093Y220000D01*
X444093Y218000D02*
X450093Y220000D01*
X880000Y21000D02*
Y231000D01*
X721897Y226489D02*
Y231000D01*
X800949Y230000D02*
X880000D01*
X721897D02*
X800949D01*
X874000Y232000D02*
X880000Y230000D01*
X874000Y228000D02*
X880000Y230000D01*
X721897D02*
X727897Y228000D01*
X721897Y230000D02*
X727897Y232000D01*
X191000Y20000D02*
X551000D01*
X537527Y81799D02*
X551000D01*
X550000Y20000D02*
Y50899D01*
Y81799D01*
Y20000D02*
X552000Y26000D01*
X548000D02*
X550000Y20000D01*
X548000Y75799D02*
X550000Y81799D01*
X552000Y75799D01*
X191000Y840000D02*
X571000D01*
X490484Y722797D02*
X571000D01*
X570000Y781399D02*
Y840000D01*
Y722797D02*
Y781399D01*
X568000Y834000D02*
X570000Y840000D01*
X572000Y834000D01*
X570000Y722797D02*
X572000Y728797D01*
X568000D02*
X570000Y722797D01*
X881000Y20000D02*
X901000D01*
X881000Y840000D02*
X901000D01*
X900000Y20000D02*
Y401308D01*
Y455492D02*
Y840000D01*
Y20000D02*
X902000Y26000D01*
X898000D02*
X900000Y20000D01*
X898000Y834000D02*
X900000Y840000D01*
X902000Y834000D01*
X880000Y841000D02*
Y861000D01*
X190000Y841000D02*
Y861000D01*
X559992Y860000D02*
X880000D01*
X190000D02*
X506808D01*
X874000Y862000D02*
X880000Y860000D01*
X874000Y858000D02*
X880000Y860000D01*
X190000D02*
X196000Y858000D01*
X190000Y860000D02*
X196000Y862000D01*
X490026Y112800D02*
Y148782D01*
X488937Y112800D02*
Y151073D01*
X489482Y113800D02*
X490026D01*
X488937D02*
X489482D01*
X484026Y115800D02*
X490026Y113800D01*
X484026Y111800D02*
X490026Y113800D01*
X488937D02*
X494937Y111800D01*
X488937Y113800D02*
X494937Y115800D01*
X363912Y241257D02*
Y268700D01*
X450089Y243907D02*
Y268700D01*
X363912Y267700D02*
X381808D01*
X428994D02*
X450089D01*
X363912D02*
X369912Y265700D01*
X363912Y267700D02*
X369912Y269700D01*
X444089D02*
X450089Y267700D01*
X444089Y265700D02*
X450089Y267700D01*
X428539Y791504D02*
X529097D01*
X478892Y722768D02*
X529097D01*
X528097Y757136D02*
Y791504D01*
Y722768D02*
Y757136D01*
X526097Y785504D02*
X528097Y791504D01*
X530097Y785504D01*
X528097Y722768D02*
X530097Y728768D01*
X526097D02*
X528097Y722768D01*
X426600Y191250D02*
X449122D01*
X426600Y246368D02*
X488492D01*
X427600Y191250D02*
Y218809D01*
Y246368D01*
Y191250D02*
X429600Y197250D01*
X425600D02*
X427600Y191250D01*
X425600Y240368D02*
X427600Y246368D01*
X429600Y240368D01*
X491026Y149782D02*
X522400D01*
X496800Y139926D02*
X522400D01*
X521400Y144854D02*
Y149782D01*
Y139926D02*
Y144854D01*
X519400Y143782D02*
X521400Y149782D01*
X523400Y143782D01*
X521400Y139926D02*
X523400Y145926D01*
X519400D02*
X521400Y139926D01*
X496288Y181707D02*
X561400D01*
X497298Y203116D02*
X561400D01*
X560400D02*
Y213116D01*
Y171707D02*
Y181707D01*
Y203116D02*
X562400Y209116D01*
X558400D02*
X560400Y203116D01*
X558400Y175707D02*
X560400Y181707D01*
X562400Y175707D01*
X490039Y149778D02*
X539000D01*
X490035Y171858D02*
X539000D01*
X538000Y149778D02*
Y160818D01*
Y171858D01*
Y149778D02*
X540000Y155778D01*
X536000D02*
X538000Y149778D01*
X536000Y165858D02*
X538000Y171858D01*
X540000Y165858D01*
X496800Y139926D02*
X511200D01*
X496552Y118188D02*
X511200D01*
X510200Y129057D02*
Y139926D01*
Y118188D02*
Y129057D01*
X508200Y133926D02*
X510200Y139926D01*
X512200Y133926D01*
X510200Y118188D02*
X512200Y124188D01*
X508200D02*
X510200Y118188D01*
X536697Y252368D02*
X538697Y246368D01*
X540697Y252368D01*
X538697Y313035D02*
X540697Y307035D01*
X536697D02*
X538697Y313035D01*
Y246368D02*
Y279702D01*
Y313035D01*
X489492Y246368D02*
X539697D01*
X484367Y313035D02*
X539697D01*
D16*
X299952Y222399D02*
X297953Y221399D01*
X295953Y219400D01*
Y217401D01*
X296953Y216401D01*
X298953D01*
X299952Y217401D01*
Y218400D01*
X298953Y219400D01*
X295953D01*
X305950Y222399D02*
X303951Y221399D01*
X301952Y219400D01*
Y217401D01*
X302951Y216401D01*
X304951D01*
X305950Y217401D01*
Y218400D01*
X304951Y219400D01*
X301952D01*
X307950Y216401D02*
Y217401D01*
X308949D01*
Y216401D01*
X307950D01*
X312948Y221399D02*
X313948Y222399D01*
X315947D01*
X316947Y221399D01*
Y217401D01*
X315947Y216401D01*
X313948D01*
X312948Y217401D01*
Y221399D01*
X322945Y222399D02*
X320945Y221399D01*
X318946Y219400D01*
Y217401D01*
X319946Y216401D01*
X321945D01*
X322945Y217401D01*
Y218400D01*
X321945Y219400D01*
X318946D01*
X327943Y216401D02*
Y222399D01*
X324944Y219400D01*
X328943D01*
X330942Y216401D02*
Y220400D01*
X331942D01*
X332942Y219400D01*
Y216401D01*
Y219400D01*
X333941Y220400D01*
X334941Y219400D01*
Y216401D01*
X336940D02*
Y220400D01*
X337940D01*
X338940Y219400D01*
Y216401D01*
Y219400D01*
X339939Y220400D01*
X340939Y219400D01*
Y216401D01*
X753599Y220600D02*
Y226598D01*
X750600Y223599D01*
X754599D01*
X756598Y225598D02*
X757598Y226598D01*
X759597D01*
X760597Y225598D01*
Y221600D01*
X759597Y220600D01*
X757598D01*
X756598Y221600D01*
Y225598D01*
X762596Y220600D02*
Y221600D01*
X763596D01*
Y220600D01*
X762596D01*
X767594D02*
X769594D01*
X768594D01*
Y226598D01*
X767594Y225598D01*
X776592Y226598D02*
X772593D01*
Y223599D01*
X774592Y224599D01*
X775592D01*
X776592Y223599D01*
Y221600D01*
X775592Y220600D01*
X773593D01*
X772593Y221600D01*
X778591Y225598D02*
X779591Y226598D01*
X781590D01*
X782590Y225598D01*
Y224599D01*
X781590Y223599D01*
X782590Y222599D01*
Y221600D01*
X781590Y220600D01*
X779591D01*
X778591Y221600D01*
Y222599D01*
X779591Y223599D01*
X778591Y224599D01*
Y225598D01*
X779591Y223599D02*
X781590D01*
X784589Y220600D02*
Y224599D01*
X785589D01*
X786588Y223599D01*
Y220600D01*
Y223599D01*
X787588Y224599D01*
X788588Y223599D01*
Y220600D01*
X790587D02*
Y224599D01*
X791587D01*
X792586Y223599D01*
Y220600D01*
Y223599D01*
X793586Y224599D01*
X794586Y223599D01*
Y220600D01*
X569400Y20600D02*
Y22599D01*
Y21600D01*
X563402D01*
X564402Y20600D01*
X563402Y29597D02*
Y25598D01*
X566401D01*
X565401Y27598D01*
Y28597D01*
X566401Y29597D01*
X568400D01*
X569400Y28597D01*
Y26598D01*
X568400Y25598D01*
X569400Y31596D02*
X568400D01*
Y32596D01*
X569400D01*
Y31596D01*
X563402Y40593D02*
X564402Y38594D01*
X566401Y36595D01*
X568400D01*
X569400Y37595D01*
Y39594D01*
X568400Y40593D01*
X567401D01*
X566401Y39594D01*
Y36595D01*
X568400Y42593D02*
X569400Y43593D01*
Y45592D01*
X568400Y46592D01*
X564402D01*
X563402Y45592D01*
Y43593D01*
X564402Y42593D01*
X565401D01*
X566401Y43593D01*
Y46592D01*
X563402Y48591D02*
Y52590D01*
X564402D01*
X568400Y48591D01*
X569400D01*
Y54589D02*
X565401D01*
Y55589D01*
X566401Y56588D01*
X569400D01*
X566401D01*
X565401Y57588D01*
X566401Y58588D01*
X569400D01*
Y60587D02*
X565401D01*
Y61587D01*
X566401Y62586D01*
X569400D01*
X566401D01*
X565401Y63586D01*
X566401Y64586D01*
X569400D01*
X579400Y754599D02*
Y750600D01*
X575401Y754599D01*
X574402D01*
X573402Y753599D01*
Y751600D01*
X574402Y750600D01*
X578400Y756598D02*
X579400Y757598D01*
Y759597D01*
X578400Y760597D01*
X574402D01*
X573402Y759597D01*
Y757598D01*
X574402Y756598D01*
X575401D01*
X576401Y757598D01*
Y760597D01*
X579400Y762596D02*
X578400D01*
Y763596D01*
X579400D01*
Y762596D01*
X573402Y767594D02*
Y771593D01*
X574402D01*
X578400Y767594D01*
X579400D01*
X573402Y777591D02*
X574402Y775592D01*
X576401Y773593D01*
X578400D01*
X579400Y774592D01*
Y776592D01*
X578400Y777591D01*
X577401D01*
X576401Y776592D01*
Y773593D01*
X578400Y779591D02*
X579400Y780590D01*
Y782590D01*
X578400Y783589D01*
X574402D01*
X573402Y782590D01*
Y780590D01*
X574402Y779591D01*
X575401D01*
X576401Y780590D01*
Y783589D01*
X579400Y785589D02*
X575401D01*
Y786588D01*
X576401Y787588D01*
X579400D01*
X576401D01*
X575401Y788588D01*
X576401Y789587D01*
X579400D01*
Y791587D02*
X575401D01*
Y792586D01*
X576401Y793586D01*
X579400D01*
X576401D01*
X575401Y794586D01*
X576401Y795585D01*
X579400D01*
X903599Y406907D02*
Y402908D01*
X899600Y406907D01*
X898601D01*
X897601Y405907D01*
Y403908D01*
X898601Y402908D01*
Y408906D02*
X897601Y409906D01*
Y411905D01*
X898601Y412905D01*
X902599D01*
X903599Y411905D01*
Y409906D01*
X902599Y408906D01*
X898601D01*
Y414904D02*
X897601Y415904D01*
Y417903D01*
X898601Y418903D01*
X899600D01*
X900600Y417903D01*
X901600Y418903D01*
X902599D01*
X903599Y417903D01*
Y415904D01*
X902599Y414904D01*
X901600D01*
X900600Y415904D01*
X899600Y414904D01*
X898601D01*
X900600Y415904D02*
Y417903D01*
X903599Y420902D02*
X902599D01*
Y421902D01*
X903599D01*
Y420902D01*
Y429900D02*
Y425901D01*
X899600Y429900D01*
X898601D01*
X897601Y428900D01*
Y426900D01*
X898601Y425901D01*
Y431899D02*
X897601Y432899D01*
Y434898D01*
X898601Y435898D01*
X899600D01*
X900600Y434898D01*
X901600Y435898D01*
X902599D01*
X903599Y434898D01*
Y432899D01*
X902599Y431899D01*
X901600D01*
X900600Y432899D01*
X899600Y431899D01*
X898601D01*
X900600Y432899D02*
Y434898D01*
X898601Y437897D02*
X897601Y438897D01*
Y440896D01*
X898601Y441896D01*
X902599D01*
X903599Y440896D01*
Y438897D01*
X902599Y437897D01*
X898601D01*
X903599Y443895D02*
X899600D01*
Y444895D01*
X900600Y445894D01*
X903599D01*
X900600D01*
X899600Y446894D01*
X900600Y447894D01*
X903599D01*
Y449893D02*
X899600D01*
Y450893D01*
X900600Y451892D01*
X903599D01*
X900600D01*
X899600Y452892D01*
X900600Y453892D01*
X903599D01*
X508408Y856401D02*
X510407D01*
X509408D01*
Y862399D01*
X508408Y861399D01*
X513407Y862399D02*
X517405D01*
Y861399D01*
X513407Y857401D01*
Y856401D01*
X523403Y862399D02*
X519405D01*
Y859400D01*
X521404Y860400D01*
X522403D01*
X523403Y859400D01*
Y857401D01*
X522403Y856401D01*
X520404D01*
X519405Y857401D01*
X525403Y856401D02*
Y857401D01*
X526402D01*
Y856401D01*
X525403D01*
X534400D02*
X530401D01*
X534400Y860400D01*
Y861399D01*
X533400Y862399D01*
X531401D01*
X530401Y861399D01*
X540398Y862399D02*
X538398Y861399D01*
X536399Y859400D01*
Y857401D01*
X537399Y856401D01*
X539398D01*
X540398Y857401D01*
Y858400D01*
X539398Y859400D01*
X536399D01*
X542397Y861399D02*
X543397Y862399D01*
X545396D01*
X546396Y861399D01*
Y857401D01*
X545396Y856401D01*
X543397D01*
X542397Y857401D01*
Y861399D01*
X548395Y856401D02*
Y860400D01*
X549395D01*
X550394Y859400D01*
Y856401D01*
Y859400D01*
X551394Y860400D01*
X552394Y859400D01*
Y856401D01*
X554393D02*
Y860400D01*
X555393D01*
X556393Y859400D01*
Y856401D01*
Y859400D01*
X557392Y860400D01*
X558392Y859400D01*
Y856401D01*
X458700Y109798D02*
X459700Y110798D01*
X461699D01*
X462699Y109798D01*
Y105800D01*
X461699Y104800D01*
X459700D01*
X458700Y105800D01*
Y109798D01*
X464698Y104800D02*
Y105800D01*
X465698D01*
Y104800D01*
X464698D01*
X473695D02*
X469696D01*
X473695Y108799D01*
Y109798D01*
X472695Y110798D01*
X470696D01*
X469696Y109798D01*
X475695Y110798D02*
X479693D01*
Y109798D01*
X475695Y105800D01*
Y104800D01*
X481693Y110798D02*
X485691D01*
Y109798D01*
X481693Y105800D01*
Y104800D01*
X487691D02*
Y108799D01*
X488690D01*
X489690Y107799D01*
Y104800D01*
Y107799D01*
X490690Y108799D01*
X491689Y107799D01*
Y104800D01*
X493689D02*
Y108799D01*
X494688D01*
X495688Y107799D01*
Y104800D01*
Y107799D01*
X496688Y108799D01*
X497687Y107799D01*
Y104800D01*
X387406Y264101D02*
X383408D01*
X387406Y268100D01*
Y269099D01*
X386407Y270099D01*
X384407D01*
X383408Y269099D01*
X389406Y264101D02*
X391405D01*
X390406D01*
Y270099D01*
X389406Y269099D01*
X394404Y264101D02*
Y265101D01*
X395404D01*
Y264101D01*
X394404D01*
X399403Y269099D02*
X400402Y270099D01*
X402402D01*
X403401Y269099D01*
Y268100D01*
X402402Y267100D01*
X403401Y266100D01*
Y265101D01*
X402402Y264101D01*
X400402D01*
X399403Y265101D01*
Y266100D01*
X400402Y267100D01*
X399403Y268100D01*
Y269099D01*
X400402Y267100D02*
X402402D01*
X405401Y269099D02*
X406400Y270099D01*
X408400D01*
X409399Y269099D01*
Y268100D01*
X408400Y267100D01*
X409399Y266100D01*
Y265101D01*
X408400Y264101D01*
X406400D01*
X405401Y265101D01*
Y266100D01*
X406400Y267100D01*
X405401Y268100D01*
Y269099D01*
X406400Y267100D02*
X408400D01*
X411399Y265101D02*
X412398Y264101D01*
X414398D01*
X415397Y265101D01*
Y269099D01*
X414398Y270099D01*
X412398D01*
X411399Y269099D01*
Y268100D01*
X412398Y267100D01*
X415397D01*
X417397Y264101D02*
Y268100D01*
X418396D01*
X419396Y267100D01*
Y264101D01*
Y267100D01*
X420396Y268100D01*
X421395Y267100D01*
Y264101D01*
X423395D02*
Y268100D01*
X424395D01*
X425394Y267100D01*
Y264101D01*
Y267100D01*
X426394Y268100D01*
X427393Y267100D01*
Y264101D01*
X540800Y730026D02*
Y732025D01*
Y731026D01*
X534802D01*
X535802Y730026D01*
X534802Y735024D02*
Y739023D01*
X535802D01*
X539800Y735024D01*
X540800D01*
Y741022D02*
X539800D01*
Y742022D01*
X540800D01*
Y741022D01*
Y749020D02*
X534802D01*
X537801Y746021D01*
Y750020D01*
X534802Y756018D02*
Y752019D01*
X537801D01*
X536801Y754018D01*
Y755018D01*
X537801Y756018D01*
X539800D01*
X540800Y755018D01*
Y753019D01*
X539800Y752019D01*
Y758017D02*
X540800Y759017D01*
Y761016D01*
X539800Y762016D01*
X535802D01*
X534802Y761016D01*
Y759017D01*
X535802Y758017D01*
X536801D01*
X537801Y759017D01*
Y762016D01*
X540800Y764015D02*
X536801D01*
Y765015D01*
X537801Y766014D01*
X540800D01*
X537801D01*
X536801Y767014D01*
X537801Y768014D01*
X540800D01*
Y770013D02*
X536801D01*
Y771013D01*
X537801Y772012D01*
X540800D01*
X537801D01*
X536801Y773012D01*
X537801Y774012D01*
X540800D01*
X420600Y198200D02*
Y200199D01*
Y199200D01*
X414602D01*
X415602Y198200D01*
X420600Y206197D02*
X414602D01*
X417601Y203198D01*
Y207197D01*
X420600Y209196D02*
X419600D01*
Y210196D01*
X420600D01*
Y209196D01*
X415602Y214195D02*
X414602Y215195D01*
Y217194D01*
X415602Y218194D01*
X419600D01*
X420600Y217194D01*
Y215195D01*
X419600Y214195D01*
X415602D01*
Y220193D02*
X414602Y221193D01*
Y223192D01*
X415602Y224192D01*
X419600D01*
X420600Y223192D01*
Y221193D01*
X419600Y220193D01*
X415602D01*
Y226191D02*
X414602Y227191D01*
Y229190D01*
X415602Y230190D01*
X419600D01*
X420600Y229190D01*
Y227191D01*
X419600Y226191D01*
X415602D01*
X420600Y232189D02*
X416601D01*
Y233189D01*
X417601Y234188D01*
X420600D01*
X417601D01*
X416601Y235188D01*
X417601Y236188D01*
X420600D01*
Y238187D02*
X416601D01*
Y239187D01*
X417601Y240186D01*
X420600D01*
X417601D01*
X416601Y241186D01*
X417601Y242186D01*
X420600D01*
X533400Y112399D02*
Y108400D01*
X529401Y112399D01*
X528402D01*
X527402Y111399D01*
Y109400D01*
X528402Y108400D01*
X533400Y114398D02*
X532400D01*
Y115398D01*
X533400D01*
Y114398D01*
X527402Y123395D02*
Y119396D01*
X530401D01*
X529401Y121396D01*
Y122396D01*
X530401Y123395D01*
X532400D01*
X533400Y122396D01*
Y120396D01*
X532400Y119396D01*
X528402Y125394D02*
X527402Y126394D01*
Y128393D01*
X528402Y129393D01*
X532400D01*
X533400Y128393D01*
Y126394D01*
X532400Y125394D01*
X528402D01*
Y131393D02*
X527402Y132392D01*
Y134392D01*
X528402Y135391D01*
X529401D01*
X530401Y134392D01*
Y133392D01*
Y134392D01*
X531401Y135391D01*
X532400D01*
X533400Y134392D01*
Y132392D01*
X532400Y131393D01*
X533400Y137391D02*
X529401D01*
Y138390D01*
X530401Y139390D01*
X533400D01*
X530401D01*
X529401Y140390D01*
X530401Y141389D01*
X533400D01*
Y143389D02*
X529401D01*
Y144388D01*
X530401Y145388D01*
X533400D01*
X530401D01*
X529401Y146388D01*
X530401Y147387D01*
X533400D01*
X568798Y175317D02*
Y171318D01*
X571797D01*
X570797Y173317D01*
Y174317D01*
X571797Y175317D01*
X573796D01*
X574796Y174317D01*
Y172318D01*
X573796Y171318D01*
X574796Y177316D02*
X573796D01*
Y178316D01*
X574796D01*
Y177316D01*
Y185313D02*
X568798D01*
X571797Y182315D01*
Y186313D01*
X569798Y188313D02*
X568798Y189312D01*
Y191312D01*
X569798Y192311D01*
X570797D01*
X571797Y191312D01*
Y190312D01*
Y191312D01*
X572797Y192311D01*
X573796D01*
X574796Y191312D01*
Y189312D01*
X573796Y188313D01*
X569798Y194311D02*
X568798Y195310D01*
Y197310D01*
X569798Y198309D01*
X570797D01*
X571797Y197310D01*
X572797Y198309D01*
X573796D01*
X574796Y197310D01*
Y195310D01*
X573796Y194311D01*
X572797D01*
X571797Y195310D01*
X570797Y194311D01*
X569798D01*
X571797Y195310D02*
Y197310D01*
X574796Y200309D02*
X570797D01*
Y201308D01*
X571797Y202308D01*
X574796D01*
X571797D01*
X570797Y203308D01*
X571797Y204307D01*
X574796D01*
Y206307D02*
X570797D01*
Y207306D01*
X571797Y208306D01*
X574796D01*
X571797D01*
X570797Y209306D01*
X571797Y210305D01*
X574796D01*
X543902Y142899D02*
Y138900D01*
X546901D01*
X545901Y140899D01*
Y141899D01*
X546901Y142899D01*
X548900D01*
X549900Y141899D01*
Y139900D01*
X548900Y138900D01*
X549900Y144898D02*
X548900D01*
Y145898D01*
X549900D01*
Y144898D01*
X543902Y153895D02*
X544902Y151896D01*
X546901Y149896D01*
X548900D01*
X549900Y150896D01*
Y152895D01*
X548900Y153895D01*
X547901D01*
X546901Y152895D01*
Y149896D01*
X544902Y155894D02*
X543902Y156894D01*
Y158894D01*
X544902Y159893D01*
X548900D01*
X549900Y158894D01*
Y156894D01*
X548900Y155894D01*
X544902D01*
Y161893D02*
X543902Y162892D01*
Y164892D01*
X544902Y165891D01*
X545901D01*
X546901Y164892D01*
X547901Y165891D01*
X548900D01*
X549900Y164892D01*
Y162892D01*
X548900Y161893D01*
X547901D01*
X546901Y162892D01*
X545901Y161893D01*
X544902D01*
X546901Y162892D02*
Y164892D01*
X549900Y167891D02*
X545901D01*
Y168890D01*
X546901Y169890D01*
X549900D01*
X546901D01*
X545901Y170890D01*
X546901Y171889D01*
X549900D01*
Y173889D02*
X545901D01*
Y174888D01*
X546901Y175888D01*
X549900D01*
X546901D01*
X545901Y176888D01*
X546901Y177887D01*
X549900D01*
X513102Y96899D02*
Y92900D01*
X516101D01*
X515101Y94899D01*
Y95899D01*
X516101Y96899D01*
X518100D01*
X519100Y95899D01*
Y93900D01*
X518100Y92900D01*
X519100Y98898D02*
X518100D01*
Y99898D01*
X519100D01*
Y98898D01*
X513102Y107895D02*
Y103896D01*
X516101D01*
X515101Y105896D01*
Y106895D01*
X516101Y107895D01*
X518100D01*
X519100Y106895D01*
Y104896D01*
X518100Y103896D01*
X519100Y113893D02*
Y109895D01*
X515101Y113893D01*
X514102D01*
X513102Y112893D01*
Y110894D01*
X514102Y109895D01*
X519100Y119891D02*
Y115893D01*
X515101Y119891D01*
X514102D01*
X513102Y118892D01*
Y116892D01*
X514102Y115893D01*
X519100Y121891D02*
X515101D01*
Y122890D01*
X516101Y123890D01*
X519100D01*
X516101D01*
X515101Y124890D01*
X516101Y125889D01*
X519100D01*
Y127889D02*
X515101D01*
Y128888D01*
X516101Y129888D01*
X519100D01*
X516101D01*
X515101Y130888D01*
X516101Y131887D01*
X519100D01*
X551400Y253626D02*
Y255625D01*
Y254626D01*
X545402D01*
X546402Y253626D01*
X545402Y262623D02*
X546402Y260624D01*
X548401Y258624D01*
X550400D01*
X551400Y259624D01*
Y261623D01*
X550400Y262623D01*
X549401D01*
X548401Y261623D01*
Y258624D01*
X551400Y264622D02*
X550400D01*
Y265622D01*
X551400D01*
Y264622D01*
X550400Y269621D02*
X551400Y270620D01*
Y272620D01*
X550400Y273620D01*
X546402D01*
X545402Y272620D01*
Y270620D01*
X546402Y269621D01*
X547401D01*
X548401Y270620D01*
Y273620D01*
X546402Y275619D02*
X545402Y276619D01*
Y278618D01*
X546402Y279618D01*
X547401D01*
X548401Y278618D01*
Y277618D01*
Y278618D01*
X549401Y279618D01*
X550400D01*
X551400Y278618D01*
Y276619D01*
X550400Y275619D01*
X546402Y281617D02*
X545402Y282617D01*
Y284616D01*
X546402Y285616D01*
X547401D01*
X548401Y284616D01*
Y283616D01*
Y284616D01*
X549401Y285616D01*
X550400D01*
X551400Y284616D01*
Y282617D01*
X550400Y281617D01*
X551400Y287615D02*
X547401D01*
Y288615D01*
X548401Y289614D01*
X551400D01*
X548401D01*
X547401Y290614D01*
X548401Y291614D01*
X551400D01*
Y293613D02*
X547401D01*
Y294613D01*
X548401Y295612D01*
X551400D01*
X548401D01*
X547401Y296612D01*
X548401Y297612D01*
X551400D01*
D17*
X489475Y595437D02*
D03*
X682388D02*
D03*
X489475Y118941D02*
D03*
X682388D02*
D03*
D18*
X382110Y319843D02*
D03*
D19*
X310200Y340044D02*
D03*
Y345556D02*
D03*
X814799Y554433D02*
D03*
Y548921D02*
D03*
X811908Y478487D02*
D03*
Y472975D02*
D03*
X214898Y334551D02*
D03*
Y340063D02*
D03*
X305708Y309387D02*
D03*
Y303875D02*
D03*
X330289Y312913D02*
D03*
Y318425D02*
D03*
Y325117D02*
D03*
Y330629D02*
D03*
D20*
X317400Y344372D02*
D03*
Y340828D02*
D03*
X807614Y554039D02*
D03*
Y550496D02*
D03*
X804008Y473659D02*
D03*
Y477202D02*
D03*
X206236Y339866D02*
D03*
Y336323D02*
D03*
D21*
X682406Y202665D02*
D03*
X489492Y202665D02*
D03*
X682398Y679095D02*
D03*
X489484D02*
D03*
D22*
X486531Y637264D02*
D03*
X685404Y636581D02*
D03*
X685370Y161389D02*
D03*
X486539Y160835D02*
D03*
D23*
X478953Y632342D02*
D03*
Y634311D02*
D03*
Y636279D02*
D03*
Y638248D02*
D03*
Y640217D02*
D03*
Y642185D02*
D03*
X494110D02*
D03*
Y640217D02*
D03*
Y638248D02*
D03*
Y636279D02*
D03*
Y634311D02*
D03*
Y632342D02*
D03*
X692983Y641502D02*
D03*
Y639534D02*
D03*
Y637565D02*
D03*
Y635597D02*
D03*
Y633628D02*
D03*
Y631660D02*
D03*
X677825D02*
D03*
Y633628D02*
D03*
Y635597D02*
D03*
Y637565D02*
D03*
Y639534D02*
D03*
Y641502D02*
D03*
X677791Y166310D02*
D03*
Y164341D02*
D03*
Y162373D02*
D03*
Y160404D02*
D03*
Y158436D02*
D03*
Y156467D02*
D03*
X692949D02*
D03*
Y158436D02*
D03*
Y160404D02*
D03*
Y162373D02*
D03*
Y164341D02*
D03*
Y166310D02*
D03*
X478961Y155913D02*
D03*
Y157882D02*
D03*
Y159850D02*
D03*
Y161819D02*
D03*
Y163787D02*
D03*
Y165756D02*
D03*
X494118D02*
D03*
Y163787D02*
D03*
Y161819D02*
D03*
Y159850D02*
D03*
Y157882D02*
D03*
Y155913D02*
D03*
D24*
X481610Y644842D02*
D03*
X483579D02*
D03*
X485547D02*
D03*
X487516D02*
D03*
X489484D02*
D03*
X491453D02*
D03*
Y629685D02*
D03*
X489484D02*
D03*
X487516D02*
D03*
X485547D02*
D03*
X483579D02*
D03*
X481610D02*
D03*
X690325Y629002D02*
D03*
X688357D02*
D03*
X686388D02*
D03*
X684420D02*
D03*
X682451D02*
D03*
X680483D02*
D03*
Y644160D02*
D03*
X682451D02*
D03*
X684420D02*
D03*
X686388D02*
D03*
X688357D02*
D03*
X690325D02*
D03*
X690291Y168967D02*
D03*
X688323D02*
D03*
X686354D02*
D03*
X684386D02*
D03*
X682417D02*
D03*
X680449D02*
D03*
Y153810D02*
D03*
X682417D02*
D03*
X684386D02*
D03*
X686354D02*
D03*
X688323D02*
D03*
X690291D02*
D03*
X481618Y168413D02*
D03*
X483587D02*
D03*
X485555D02*
D03*
X487524D02*
D03*
X489492D02*
D03*
X491461D02*
D03*
Y153256D02*
D03*
X489492D02*
D03*
X487524D02*
D03*
X485555D02*
D03*
X483587D02*
D03*
X481618D02*
D03*
D25*
X469976Y627716D02*
D03*
X473441D02*
D03*
X469976Y646614D02*
D03*
X473441D02*
D03*
X698087Y645532D02*
D03*
X701551D02*
D03*
X698087Y627815D02*
D03*
X701551D02*
D03*
X701559Y170185D02*
D03*
X698095D02*
D03*
X701894Y152665D02*
D03*
X698429D02*
D03*
X473252Y151681D02*
D03*
X469787D02*
D03*
X473646Y170087D02*
D03*
X470181D02*
D03*
D26*
X489472Y615386D02*
D03*
X682387Y615356D02*
D03*
X489472Y659114D02*
D03*
X682386D02*
D03*
X682393Y138957D02*
D03*
X682394Y182685D02*
D03*
X489479Y138955D02*
D03*
X489479Y182685D02*
D03*
X357108Y266607D02*
D03*
X357008Y377054D02*
D03*
D27*
X489472Y626409D02*
D03*
X682387Y626379D02*
D03*
X489472Y648091D02*
D03*
X682386D02*
D03*
X682393Y149980D02*
D03*
X682394Y171661D02*
D03*
X489479Y149979D02*
D03*
X489479Y171661D02*
D03*
X357108Y277631D02*
D03*
X357008Y366031D02*
D03*
D28*
X378320Y319802D02*
D03*
D29*
X367297D02*
D03*
D30*
X836933Y534206D02*
D03*
Y540708D02*
D03*
X239504Y340460D02*
D03*
Y333958D02*
D03*
X835665Y472537D02*
D03*
Y479039D02*
D03*
D31*
X828023Y539327D02*
D03*
Y533602D02*
D03*
X230449Y333658D02*
D03*
Y339382D02*
D03*
X826315Y479441D02*
D03*
Y473717D02*
D03*
D32*
X203008Y482453D02*
D03*
Y161081D02*
D03*
D33*
Y465203D02*
D03*
Y499703D02*
D03*
Y143831D02*
D03*
Y178331D02*
D03*
D34*
X357008Y363195D02*
D03*
Y359731D02*
D03*
X344109Y315434D02*
D03*
Y311969D02*
D03*
X344011Y325257D02*
D03*
Y328721D02*
D03*
X342408Y357963D02*
D03*
Y354498D02*
D03*
X357008Y330598D02*
D03*
Y334063D02*
D03*
D35*
X311556Y325700D02*
D03*
X306044D02*
D03*
X293808Y257931D02*
D03*
X288296D02*
D03*
X281508Y258031D02*
D03*
X275996D02*
D03*
D36*
X349420Y282202D02*
D03*
X351979D02*
D03*
X354538D02*
D03*
X357097D02*
D03*
X349420Y299722D02*
D03*
X351979D02*
D03*
X354538D02*
D03*
X357097D02*
D03*
D37*
X353259Y290962D02*
D03*
D38*
X357003Y345591D02*
D03*
D39*
X351097Y343583D02*
D03*
Y345591D02*
D03*
Y347599D02*
D03*
X362908D02*
D03*
Y345591D02*
D03*
Y343583D02*
D03*
D40*
X354995Y351497D02*
D03*
X357003D02*
D03*
X359011D02*
D03*
Y339686D02*
D03*
X357003D02*
D03*
X354995D02*
D03*
D41*
X355034Y312914D02*
D03*
X357003D02*
D03*
X358971D02*
D03*
X360940D02*
D03*
Y324725D02*
D03*
X358971D02*
D03*
X357003D02*
D03*
X355034D02*
D03*
D42*
X363893Y315867D02*
D03*
Y317835D02*
D03*
Y319804D02*
D03*
Y321772D02*
D03*
X352081D02*
D03*
Y319804D02*
D03*
Y317835D02*
D03*
Y315867D02*
D03*
D43*
X357987Y318819D02*
D03*
D44*
X335008Y347017D02*
D03*
Y357844D02*
D03*
D45*
X330920Y288911D02*
D03*
Y298557D02*
D03*
D46*
X340467Y301411D02*
D03*
Y295505D02*
D03*
D47*
X342161Y278031D02*
D03*
X336255D02*
D03*
X342161Y271231D02*
D03*
X336255D02*
D03*
D48*
X351008Y358131D02*
D03*
X347633D02*
D03*
D86*
X840000Y60000D02*
D03*
X230000D02*
D03*
X840000Y800000D02*
D03*
X230000D02*
D03*
D87*
X808047Y436264D02*
D03*
X818047D02*
D03*
X808047Y426264D02*
D03*
X818047D02*
D03*
X808047Y416264D02*
D03*
X818047D02*
D03*
X808047Y406264D02*
D03*
X818047D02*
D03*
X808047Y396264D02*
D03*
X818047D02*
D03*
X808047Y386264D02*
D03*
X818047D02*
D03*
X808047Y376264D02*
D03*
X818047D02*
D03*
X808047Y366264D02*
D03*
X818047D02*
D03*
X808047Y356264D02*
D03*
X818047D02*
D03*
X808047Y346264D02*
D03*
X818047D02*
D03*
X808047Y336264D02*
D03*
X818047D02*
D03*
X808047Y326264D02*
D03*
X818047D02*
D03*
X808047Y316264D02*
D03*
X818047D02*
D03*
X808047Y306264D02*
D03*
X818047D02*
D03*
X808047Y296264D02*
D03*
X818047D02*
D03*
X808047Y286264D02*
D03*
X818047D02*
D03*
X808047Y276264D02*
D03*
X818047D02*
D03*
X808047Y266264D02*
D03*
X818047D02*
D03*
X808047Y256264D02*
D03*
X818047D02*
D03*
X808047Y246264D02*
D03*
X818047D02*
D03*
D88*
X772048Y397708D02*
D03*
X847319Y206799D02*
D03*
X740190Y623347D02*
D03*
X766638Y639248D02*
D03*
X766366Y653158D02*
D03*
X771951Y410514D02*
D03*
Y423320D02*
D03*
X772051Y436126D02*
D03*
X787008Y518831D02*
D03*
X720000Y410514D02*
D03*
Y397708D02*
D03*
Y423320D02*
D03*
Y436126D02*
D03*
X226208Y265031D02*
D03*
X241608Y265231D02*
D03*
X787008Y493631D02*
D03*
Y506231D02*
D03*
X772272Y174713D02*
D03*
X851685Y187307D02*
D03*
X772224Y190976D02*
D03*
X794425Y587898D02*
D03*
X785268Y575827D02*
D03*
X739858Y151618D02*
D03*
D89*
X835370Y497051D02*
D03*
Y506894D02*
D03*
Y516736D02*
D03*
X239508Y296931D02*
D03*
Y306773D02*
D03*
Y316616D02*
D03*
X286008Y362831D02*
D03*
Y372673D02*
D03*
D90*
X293004Y274088D02*
D03*
Y293773D02*
D03*
X280012Y283931D02*
D03*
X292604Y318688D02*
D03*
Y338373D02*
D03*
X279612Y328531D02*
D03*
M02*
