G04*
G04 #@! TF.GenerationSoftware,Altium Limited,Altium Designer,23.2.1 (34)*
G04*
G04 Layer_Physical_Order=1*
G04 Layer_Color=255*
%FSLAX25Y25*%
%MOIN*%
G70*
G04*
G04 #@! TF.SameCoordinates,342CFCC0-3008-4232-B3F0-62073F027D76*
G04*
G04*
G04 #@! TF.FilePolarity,Positive*
G04*
G01*
G75*
%ADD12C,0.01000*%
%ADD15C,0.00600*%
%ADD16R,0.13610X0.01968*%
%ADD17R,0.01100X0.01000*%
%ADD18R,0.03543X0.02756*%
%ADD19R,0.01968X0.02756*%
%ADD20R,0.05733X0.04940*%
%ADD21R,0.03591X0.03772*%
%ADD22R,0.23000X0.09000*%
%ADD23R,0.23000X0.09500*%
%ADD24R,0.09646X0.09646*%
%ADD25R,0.03150X0.00984*%
%ADD26R,0.00984X0.03150*%
%ADD27R,0.02598X0.02441*%
%ADD28R,0.13610X0.01992*%
%ADD29R,0.02441X0.02598*%
%ADD30R,0.02756X0.03543*%
%ADD31R,0.01772X0.05315*%
%ADD32R,0.08898X0.07205*%
%ADD33R,0.05709X0.05709*%
%ADD34R,0.02559X0.00984*%
%ADD35R,0.00984X0.02559*%
%ADD36R,0.01181X0.02953*%
%ADD37R,0.02953X0.01181*%
%ADD38R,0.06890X0.06890*%
%ADD39R,0.13610X0.01575*%
%ADD40R,0.03291X0.13610*%
%ADD41R,0.01968X0.13610*%
%ADD42R,0.01000X0.01100*%
%ADD43R,0.07087X0.05315*%
%ADD44R,0.07284X0.06496*%
%ADD45R,0.03740X0.03937*%
%ADD46R,0.03937X0.03740*%
%ADD47R,0.02423X0.02254*%
%ADD78C,0.01500*%
%ADD79C,0.02000*%
%ADD80C,0.00700*%
%ADD81C,0.01100*%
%ADD82C,0.04000*%
%ADD83C,0.07000*%
%ADD84C,0.03000*%
%ADD85C,0.23622*%
%ADD86C,0.06400*%
%ADD87C,0.07087*%
%ADD88C,0.07874*%
%ADD89C,0.06299*%
%ADD90C,0.01968*%
G36*
X588779Y514077D02*
X576633D01*
Y525943D01*
X522186D01*
Y514077D01*
X510039D01*
X510041Y514079D01*
Y569194D01*
X510039Y569195D01*
X588779D01*
Y514077D01*
D02*
G37*
G36*
X395866D02*
X383720D01*
Y525943D01*
X329273D01*
Y514077D01*
X317126D01*
X317127Y514079D01*
Y569194D01*
X317126Y569195D01*
X395866D01*
Y514077D01*
D02*
G37*
G36*
X556182Y506476D02*
X555829Y506122D01*
X542968Y506122D01*
X542614Y506476D01*
X542615Y524902D01*
X556182D01*
X556182Y506476D01*
D02*
G37*
G36*
X363269D02*
X362915Y506122D01*
X350054Y506122D01*
X349701Y506476D01*
X349701Y524902D01*
X363269D01*
X363269Y506476D01*
D02*
G37*
G36*
X556202Y504528D02*
X549945Y494685D01*
X548851D01*
X542595Y504528D01*
Y504724D01*
X556202D01*
Y504528D01*
D02*
G37*
G36*
X363287D02*
X357031Y494685D01*
X355937D01*
X349681Y504528D01*
Y504724D01*
X363287D01*
Y504528D01*
D02*
G37*
G36*
X553890Y493981D02*
Y493132D01*
X553876D01*
Y487983D01*
X553890D01*
Y487386D01*
X551413D01*
X550955Y487885D01*
X550955Y487983D01*
X550955Y488371D01*
Y493132D01*
X550955Y493132D01*
X550955D01*
X550955Y493132D01*
X551114Y493567D01*
X552020Y494473D01*
X553398D01*
X553890Y493981D01*
D02*
G37*
G36*
X354934Y494081D02*
Y492988D01*
X355004D01*
Y489076D01*
X355004Y488665D01*
X355004Y488166D01*
X355001Y488091D01*
X352067D01*
Y488665D01*
X352083D01*
Y493815D01*
X352067D01*
Y494587D01*
X352559Y495079D01*
X353937D01*
X354934Y494081D01*
D02*
G37*
G36*
X365354Y493602D02*
Y476181D01*
X363583Y474409D01*
X357988D01*
Y478657D01*
X357988D01*
X357874Y478839D01*
Y479232D01*
X357874D01*
Y488091D01*
X357874D01*
Y488165D01*
X357988Y488665D01*
X357988Y488665D01*
Y492988D01*
X358034D01*
Y493566D01*
X358957Y494488D01*
X364469D01*
X365354Y493602D01*
D02*
G37*
G36*
X354853Y479095D02*
X355004Y478657D01*
X355004Y478657D01*
X355004Y478657D01*
Y474307D01*
X354934D01*
Y473241D01*
X353937Y472244D01*
X352559D01*
X352067Y472736D01*
Y473508D01*
X352083D01*
Y478657D01*
X352067D01*
Y479232D01*
X354763D01*
X354853Y479095D01*
D02*
G37*
G36*
X547971Y487983D02*
X547971D01*
X548083Y487878D01*
Y487386D01*
X548083D01*
Y478517D01*
X548083D01*
Y478475D01*
X547971Y477975D01*
X547971D01*
Y474277D01*
X547849D01*
Y473077D01*
X547000Y472228D01*
X541489D01*
X540603Y473114D01*
Y490536D01*
X542374Y492307D01*
X547971D01*
Y487983D01*
D02*
G37*
G36*
X553890Y477975D02*
X553876D01*
Y472825D01*
X553890D01*
Y472130D01*
X553398Y471638D01*
X552020D01*
X551287Y472371D01*
X550955Y472893D01*
Y477975D01*
X550955Y477975D01*
X550955Y477975D01*
X551116Y478408D01*
X551194Y478528D01*
X553890D01*
Y477975D01*
D02*
G37*
G36*
X363287Y462768D02*
Y462571D01*
X349681D01*
Y462768D01*
X355937Y472610D01*
X357031D01*
X363287Y462768D01*
D02*
G37*
G36*
X556202Y462738D02*
Y462541D01*
X542595D01*
Y462738D01*
X548851Y472580D01*
X549946D01*
X556202Y462738D01*
D02*
G37*
G36*
X556182Y442696D02*
X555829Y442343D01*
X551220Y442343D01*
X551141Y442358D01*
X546850D01*
X546772Y442343D01*
X542968Y442343D01*
X542614Y442696D01*
X542615Y461122D01*
X556182D01*
X556182Y442696D01*
D02*
G37*
G36*
X363269D02*
X362915Y442343D01*
X358307Y442343D01*
X358228Y442358D01*
X353937D01*
X353858Y442343D01*
X350054Y442343D01*
X349701Y442696D01*
X349701Y461122D01*
X363269D01*
X363269Y442696D01*
D02*
G37*
G36*
X708465Y414272D02*
X705917D01*
X705710Y414772D01*
X706313Y415374D01*
X706963Y416500D01*
X707299Y417756D01*
Y417906D01*
X702362D01*
X697425D01*
Y417756D01*
X697762Y416500D01*
X698412Y415374D01*
X699014Y414772D01*
X698807Y414272D01*
X692323D01*
Y432386D01*
X694515D01*
Y435272D01*
X695015D01*
Y435772D01*
X697811D01*
Y437303D01*
X700059D01*
Y436375D01*
X703925D01*
X707792D01*
Y437303D01*
X708465D01*
Y414272D01*
D02*
G37*
G36*
X551141Y408976D02*
X549615D01*
Y404374D01*
X454684D01*
Y38645D01*
X549204D01*
Y42836D01*
X546850D01*
Y75195D01*
X551141D01*
Y42836D01*
X549615D01*
Y38234D01*
X356290D01*
Y42836D01*
X353937D01*
Y75195D01*
X358228D01*
Y42836D01*
X356702D01*
Y38645D01*
X450394D01*
Y214705D01*
X250383D01*
Y228315D01*
X450394D01*
Y404374D01*
X356290D01*
Y408976D01*
X353937D01*
Y441339D01*
X358228D01*
Y408976D01*
X356702D01*
Y404787D01*
X549204D01*
Y408976D01*
X546850D01*
Y441339D01*
X551141D01*
Y408976D01*
D02*
G37*
G36*
X698462Y401802D02*
X698412Y401752D01*
X697762Y400626D01*
X697425Y399370D01*
Y399220D01*
X702362D01*
Y398720D01*
X702862D01*
Y393783D01*
X703012D01*
X704268Y394120D01*
X705394Y394770D01*
X706313Y395689D01*
X706685Y396334D01*
X707185Y396200D01*
Y379232D01*
X706524D01*
Y380209D01*
X702657D01*
X698791D01*
Y379232D01*
X696103D01*
Y380610D01*
X693307D01*
Y381110D01*
X692807D01*
Y383996D01*
X691043D01*
Y402264D01*
X698270D01*
X698462Y401802D01*
D02*
G37*
G36*
X230811Y279134D02*
X217201D01*
Y377394D01*
X58563D01*
Y391004D01*
X230811D01*
Y279134D01*
D02*
G37*
G36*
X230803Y277739D02*
X224547Y267897D01*
X223453D01*
X217197Y277739D01*
Y277936D01*
X230803D01*
Y277739D01*
D02*
G37*
G36*
X215211Y262389D02*
X215125Y262182D01*
Y259800D01*
X214626D01*
Y259300D01*
X212414D01*
Y258200D01*
X211620D01*
Y259132D01*
X207179D01*
Y257080D01*
X207088Y256988D01*
X206543D01*
Y259013D01*
X197457D01*
Y256988D01*
X196949D01*
X196600Y257337D01*
Y268200D01*
X200800Y272400D01*
X205200D01*
X215211Y262389D01*
D02*
G37*
G36*
X225200Y259100D02*
X224500Y258400D01*
Y257600D01*
X223962Y257062D01*
X223500Y257253D01*
Y257602D01*
X222441Y258661D01*
X218839D01*
X218500Y259000D01*
Y260823D01*
X219291Y261614D01*
X225200D01*
Y259100D01*
D02*
G37*
G36*
X229035Y256201D02*
Y252953D01*
X231299Y250689D01*
Y240453D01*
X228051Y237205D01*
X226673D01*
X226220Y237657D01*
Y238032D01*
X225847D01*
X225590Y238287D01*
Y244488D01*
X222539D01*
Y243635D01*
X222503D01*
Y239075D01*
X222539D01*
Y238189D01*
X222382Y238032D01*
X221779D01*
Y237429D01*
X221457Y237106D01*
X220079D01*
X219193Y237992D01*
Y241535D01*
X216831Y243898D01*
Y251772D01*
X220276Y255217D01*
Y256693D01*
X221063Y257480D01*
X222180D01*
X222499Y257162D01*
X222539Y256957D01*
Y255446D01*
X222503D01*
Y250887D01*
X222539D01*
Y250197D01*
X225492D01*
Y256791D01*
X226181Y257480D01*
X227756D01*
X229035Y256201D01*
D02*
G37*
G36*
X125492Y214961D02*
X110828D01*
X110570Y215461D01*
X111101Y216379D01*
X111437Y217635D01*
Y217785D01*
X106500D01*
X101563D01*
Y217635D01*
X101899Y216379D01*
X102430Y215461D01*
X102173Y214961D01*
X95276D01*
Y232441D01*
X96941D01*
Y235327D01*
X97441D01*
Y235827D01*
X100236D01*
Y237500D01*
X102629D01*
Y236127D01*
X106496D01*
X110363D01*
Y237500D01*
X125492D01*
Y214961D01*
D02*
G37*
G36*
X215700Y218300D02*
X216597D01*
Y217914D01*
X219074D01*
Y217036D01*
X216597D01*
Y215946D01*
X219292D01*
X219484Y215484D01*
X217300Y213300D01*
Y205049D01*
X216912D01*
Y201391D01*
X216412D01*
Y200891D01*
X214526D01*
Y198900D01*
X212600D01*
X210330Y201170D01*
Y202580D01*
X204589D01*
Y201189D01*
X203016Y199616D01*
X202750Y199726D01*
X193271D01*
Y196071D01*
X186000Y188800D01*
X181000Y193800D01*
Y212000D01*
X185000Y216000D01*
X194509D01*
Y215082D01*
X200053D01*
Y216053D01*
X205000Y221000D01*
X213000D01*
X215700Y218300D01*
D02*
G37*
G36*
X244525Y214669D02*
X244328D01*
X234486Y220924D01*
Y222019D01*
X244328Y228275D01*
X244525D01*
Y214669D01*
D02*
G37*
G36*
X248774Y214708D02*
X246292Y214667D01*
X245546D01*
X245545Y214669D01*
Y228275D01*
X245558Y228291D01*
X247493Y228316D01*
X248774D01*
Y214708D01*
D02*
G37*
G36*
X221779Y230484D02*
Y229969D01*
X222295D01*
X222539Y229724D01*
Y228871D01*
X222404D01*
Y223918D01*
X222539D01*
Y223917D01*
X225394D01*
Y223918D01*
X225585D01*
Y228871D01*
X225394D01*
Y229528D01*
X225835Y229969D01*
X226220D01*
Y230354D01*
X226673Y230807D01*
X227953D01*
X230709Y228051D01*
X231398D01*
X232480Y226969D01*
Y223064D01*
X228408D01*
Y219882D01*
X233361D01*
Y219922D01*
X234114D01*
X235236Y218799D01*
Y217618D01*
X227953Y210335D01*
X225984D01*
X225394Y210925D01*
Y212107D01*
X225585D01*
Y217060D01*
X225394D01*
Y217126D01*
X221555D01*
X221555Y222566D01*
X221555Y222835D01*
X221550Y223064D01*
X221150Y223064D01*
X217618D01*
Y226476D01*
X219587Y228445D01*
Y230118D01*
X220374Y230906D01*
X221358D01*
X221779Y230484D01*
D02*
G37*
G36*
X222441Y206496D02*
Y205049D01*
X222203D01*
Y197734D01*
X222441D01*
Y196063D01*
X218012D01*
Y197734D01*
X218298D01*
Y204940D01*
X218320Y205049D01*
Y205524D01*
X219980Y207185D01*
X221752D01*
X222441Y206496D01*
D02*
G37*
G36*
X230903Y169261D02*
Y169064D01*
X217297D01*
Y169261D01*
X223553Y179103D01*
X224647D01*
X230903Y169261D01*
D02*
G37*
G36*
X214526Y184371D02*
X216412D01*
Y183871D01*
X216912D01*
Y180214D01*
X218471D01*
Y183871D01*
X219471D01*
Y180214D01*
X219614D01*
X219400Y180000D01*
X219157Y179757D01*
X218976Y179682D01*
X218418Y179124D01*
X218343Y178943D01*
X214665Y175265D01*
Y170079D01*
X206987Y162400D01*
X196800D01*
X186000Y151600D01*
Y163000D01*
X191000Y168000D01*
X204000D01*
X206030Y170030D01*
X208653D01*
Y172900D01*
Y175770D01*
X207000D01*
Y176830D01*
X208653D01*
Y179700D01*
X209153D01*
Y180200D01*
X212121D01*
Y182203D01*
X214526Y184608D01*
Y184371D01*
D02*
G37*
G36*
X395866Y147935D02*
X383720D01*
Y159801D01*
X329273D01*
Y147935D01*
X317126D01*
X317127Y147937D01*
Y203052D01*
X317126Y203053D01*
X395866D01*
Y147935D01*
D02*
G37*
G36*
X588779Y147935D02*
X576633D01*
Y159801D01*
X522186D01*
Y147935D01*
X510039D01*
X510041Y147937D01*
Y203052D01*
X510039Y203053D01*
X588779D01*
Y147935D01*
D02*
G37*
G36*
X363268Y140334D02*
X362915Y139980D01*
X350054Y139980D01*
X349700Y140334D01*
X349701Y158760D01*
X363268D01*
X363268Y140334D01*
D02*
G37*
G36*
X556182Y140334D02*
X555829Y139980D01*
X542968Y139980D01*
X542614Y140334D01*
X542615Y158760D01*
X556182D01*
X556182Y140334D01*
D02*
G37*
G36*
X363286Y138386D02*
X357030Y128543D01*
X355936D01*
X349680Y138386D01*
Y138583D01*
X363286D01*
Y138386D01*
D02*
G37*
G36*
X556202Y138386D02*
X549945Y128543D01*
X548851D01*
X542595Y138386D01*
Y138583D01*
X556202D01*
Y138386D01*
D02*
G37*
G36*
X553839Y128937D02*
Y128227D01*
X553835D01*
Y123078D01*
X553839D01*
Y122441D01*
X551143D01*
X551024Y122623D01*
X550913Y123078D01*
X550913Y123078D01*
X550913Y123078D01*
Y126847D01*
X550948D01*
Y128220D01*
X551277Y128738D01*
X551968Y129429D01*
X553346D01*
X553839Y128937D01*
D02*
G37*
G36*
X354933Y127843D02*
Y126847D01*
X355004D01*
Y122524D01*
X355004Y122524D01*
X355004Y122524D01*
X354853Y122086D01*
X354763Y121949D01*
X352067D01*
Y122524D01*
X352083D01*
Y127673D01*
X352067D01*
Y128347D01*
X352559Y128839D01*
X353937D01*
X354933Y127843D01*
D02*
G37*
G36*
X365354Y127362D02*
Y109941D01*
X363583Y108169D01*
X357988D01*
Y112516D01*
X357988D01*
X357874Y112598D01*
Y113091D01*
X357874D01*
Y121960D01*
X357874D01*
Y122024D01*
X357988Y122524D01*
X357988D01*
Y126847D01*
X358033D01*
Y127324D01*
X358957Y128248D01*
X364469D01*
X365354Y127362D01*
D02*
G37*
G36*
X547848Y126847D02*
X547929D01*
Y123078D01*
X547929D01*
X548032Y122835D01*
Y122441D01*
X548032D01*
Y113681D01*
X553839D01*
Y113070D01*
X553835D01*
Y107920D01*
X553839D01*
Y107087D01*
X553346Y106595D01*
X551968D01*
X550946Y107617D01*
Y108165D01*
X550913D01*
Y113070D01*
X550886D01*
Y113091D01*
X548032D01*
Y113070D01*
X547929D01*
Y108165D01*
X547929Y108165D01*
X547846D01*
Y108083D01*
X546949Y107185D01*
X541437D01*
X540551Y108071D01*
Y125492D01*
X542323Y127264D01*
X547848D01*
Y126847D01*
D02*
G37*
G36*
X355004Y113016D02*
X355004Y112516D01*
X355004Y112105D01*
Y108164D01*
X354933D01*
Y107000D01*
X353937Y106004D01*
X352559D01*
X352067Y106496D01*
Y107366D01*
X352083D01*
Y112516D01*
X352067D01*
Y113091D01*
X355001D01*
X355004Y113016D01*
D02*
G37*
G36*
X556200Y96626D02*
Y96429D01*
X542593D01*
Y96626D01*
X548849Y106468D01*
X549944D01*
X556200Y96626D01*
D02*
G37*
G36*
X363286Y96624D02*
Y96428D01*
X349680D01*
Y96624D01*
X355936Y106467D01*
X357030D01*
X363286Y96624D01*
D02*
G37*
G36*
X556168Y76553D02*
X555815Y76200D01*
X551215Y76200D01*
X551141Y76215D01*
X546850D01*
X546777Y76200D01*
X542954Y76200D01*
X542600Y76554D01*
X542601Y94980D01*
X556168D01*
X556168Y76553D01*
D02*
G37*
G36*
X363268D02*
X362915Y76200D01*
X358301Y76200D01*
X358228Y76215D01*
X353937D01*
X353864Y76200D01*
X350054Y76200D01*
X349700Y76554D01*
X349701Y94980D01*
X363268D01*
X363268Y76553D01*
D02*
G37*
G36*
X230906Y55945D02*
X58563D01*
Y69555D01*
X217295D01*
Y167815D01*
X230906D01*
Y55945D01*
D02*
G37*
%LPC*%
G36*
X707792Y435375D02*
X704425D01*
Y432405D01*
X707792D01*
Y435375D01*
D02*
G37*
G36*
X703425D02*
X700059D01*
Y432405D01*
X703425D01*
Y435375D01*
D02*
G37*
G36*
X697811Y434772D02*
X695515D01*
Y432386D01*
X697811D01*
Y434772D01*
D02*
G37*
G36*
X703012Y423343D02*
X702862D01*
Y418905D01*
X707299D01*
Y419056D01*
X706963Y420311D01*
X706313Y421437D01*
X705394Y422356D01*
X704268Y423006D01*
X703012Y423343D01*
D02*
G37*
G36*
X701862D02*
X701712D01*
X700457Y423006D01*
X699331Y422356D01*
X698412Y421437D01*
X697762Y420311D01*
X697425Y419056D01*
Y418905D01*
X701862D01*
Y423343D01*
D02*
G37*
G36*
Y398220D02*
X697425D01*
Y398071D01*
X697762Y396815D01*
X698412Y395689D01*
X699331Y394770D01*
X700457Y394120D01*
X701712Y393783D01*
X701862D01*
Y398220D01*
D02*
G37*
G36*
X696103Y383996D02*
X693807D01*
Y381610D01*
X696103D01*
Y383996D01*
D02*
G37*
G36*
X706524Y384178D02*
X703157D01*
Y381209D01*
X706524D01*
Y384178D01*
D02*
G37*
G36*
X702157D02*
X698791D01*
Y381209D01*
X702157D01*
Y384178D01*
D02*
G37*
G36*
X214125Y261927D02*
X212414D01*
Y260300D01*
X214125D01*
Y261927D01*
D02*
G37*
G36*
X211620Y261931D02*
X209900D01*
Y260132D01*
X211620D01*
Y261931D01*
D02*
G37*
G36*
X208900D02*
X207179D01*
Y260132D01*
X208900D01*
Y261931D01*
D02*
G37*
G36*
X206543Y263171D02*
X202500D01*
Y260013D01*
X206543D01*
Y263171D01*
D02*
G37*
G36*
X201500D02*
X197457D01*
Y260013D01*
X201500D01*
Y263171D01*
D02*
G37*
G36*
X100236Y234827D02*
X97941D01*
Y232441D01*
X100236D01*
Y234827D01*
D02*
G37*
G36*
X110363Y235127D02*
X106996D01*
Y232157D01*
X110363D01*
Y235127D01*
D02*
G37*
G36*
X105996D02*
X102629D01*
Y232157D01*
X105996D01*
Y235127D01*
D02*
G37*
G36*
X107150Y223222D02*
X107000D01*
Y218785D01*
X111437D01*
Y218935D01*
X111101Y220191D01*
X110451Y221316D01*
X109531Y222236D01*
X108406Y222886D01*
X107150Y223222D01*
D02*
G37*
G36*
X106000D02*
X105850D01*
X104594Y222886D01*
X103469Y222236D01*
X102549Y221316D01*
X101899Y220191D01*
X101563Y218935D01*
Y218785D01*
X106000D01*
Y223222D01*
D02*
G37*
G36*
X213322Y219402D02*
X211601D01*
Y217603D01*
X213322D01*
Y219402D01*
D02*
G37*
G36*
X210601D02*
X208881D01*
Y217603D01*
X210601D01*
Y219402D01*
D02*
G37*
G36*
X200053Y214082D02*
X197781D01*
Y212204D01*
X200053D01*
Y214082D01*
D02*
G37*
G36*
X196781D02*
X194509D01*
Y212204D01*
X196781D01*
Y214082D01*
D02*
G37*
G36*
X213322Y216603D02*
X208881D01*
Y214804D01*
Y211339D01*
X208881D01*
X209244Y210839D01*
X209177Y210500D01*
X209331Y209726D01*
X209769Y209069D01*
X210426Y208631D01*
X211200Y208477D01*
X211974Y208631D01*
X212631Y209069D01*
X213069Y209726D01*
X213223Y210500D01*
X213156Y210839D01*
X213322Y211339D01*
X213322D01*
Y214804D01*
Y216603D01*
D02*
G37*
G36*
X210330Y206049D02*
X207959D01*
Y203580D01*
X210330D01*
Y206049D01*
D02*
G37*
G36*
X206959D02*
X204589D01*
Y203580D01*
X206959D01*
Y206049D01*
D02*
G37*
G36*
X215912Y205049D02*
X214526D01*
Y201891D01*
X215912D01*
Y205049D01*
D02*
G37*
G36*
X202554Y204474D02*
X198412D01*
Y200726D01*
X202554D01*
Y204474D01*
D02*
G37*
G36*
X197412D02*
X193271D01*
Y200726D01*
X197412D01*
Y204474D01*
D02*
G37*
G36*
X215912Y183371D02*
X214526D01*
Y180214D01*
X215912D01*
Y183371D01*
D02*
G37*
G36*
X212121Y179200D02*
X209653D01*
Y176830D01*
X212121D01*
Y179200D01*
D02*
G37*
G36*
Y175770D02*
X209653D01*
Y173400D01*
X212121D01*
Y175770D01*
D02*
G37*
G36*
Y172400D02*
X209653D01*
Y170030D01*
X212121D01*
Y172400D01*
D02*
G37*
%LPD*%
D12*
X663800Y354700D02*
X709500D01*
X654000Y364500D02*
X663800Y354700D01*
X654000Y364500D02*
Y395300D01*
X358563Y126264D02*
Y126501D01*
X360000Y127938D01*
X358465Y125098D02*
Y126165D01*
X360000Y127938D02*
Y128200D01*
X358465Y126165D02*
X358563Y126264D01*
X557303Y108981D02*
X557384Y108900D01*
X557295Y110495D02*
X557303Y110487D01*
Y108981D02*
Y110487D01*
X256693Y488779D02*
X279072Y466400D01*
X344057D02*
X350590Y472933D01*
X279072Y466400D02*
X344057D01*
X81791Y241634D02*
X81890Y241732D01*
X73327Y241634D02*
X81791D01*
X73228Y241535D02*
X73327Y241634D01*
X81890Y236221D02*
X82284D01*
X83177Y235327D02*
X97441D01*
X82284Y236221D02*
X83177Y235327D01*
X674803Y455905D02*
X681595D01*
X674606Y455709D02*
X674803Y455905D01*
X681595D02*
X681791Y456102D01*
X671000Y375128D02*
X671484Y374644D01*
X678900D01*
X671000Y375128D02*
Y375328D01*
X92900Y166700D02*
X93200Y167000D01*
X106485Y218300D02*
X106500Y218285D01*
X97700Y218300D02*
X106485D01*
X93200Y167000D02*
Y213800D01*
X97700Y218300D01*
X314665Y90847D02*
X316732D01*
X325394Y99508D02*
X342323D01*
X316732Y90847D02*
X325394Y99508D01*
X309154Y85335D02*
X314665Y90847D01*
X350583Y109933D02*
X350590Y109941D01*
X350583Y107768D02*
Y109933D01*
X342323Y99508D02*
X350583Y107768D01*
X618110Y134646D02*
X631299Y147835D01*
Y148228D01*
X562205Y134646D02*
X618110D01*
X555335Y127776D02*
X562205Y134646D01*
X555335Y125660D02*
Y127776D01*
X555327Y125652D02*
X555335Y125660D01*
X557295Y125652D02*
X557303Y125660D01*
Y127084D01*
X557427Y127208D01*
X618701Y511122D02*
X626575Y518996D01*
X618701Y505704D02*
Y511122D01*
X613489Y500492D02*
X618701Y505704D01*
X562303Y500492D02*
X613489D01*
X557329Y490565D02*
X557337Y490557D01*
X557329Y490565D02*
Y492080D01*
X348614Y491248D02*
Y493014D01*
Y491248D02*
X348622Y491240D01*
X348521Y493108D02*
X348614Y493014D01*
X348630Y474205D02*
Y476075D01*
X348622Y476083D02*
X348630Y476075D01*
X350590Y472933D02*
Y476083D01*
X555369Y490557D02*
Y493558D01*
X562303Y500492D01*
X216412Y183871D02*
X218971D01*
X356496Y491240D02*
Y492307D01*
X356484Y492319D02*
Y494488D01*
Y492319D02*
X356496Y492307D01*
X356484Y475004D02*
X356496Y475016D01*
Y476083D01*
X356484Y472807D02*
Y475004D01*
X356496Y125098D02*
Y128173D01*
X549398Y491689D02*
X549463Y491624D01*
X549398Y491689D02*
Y494488D01*
X549463Y490557D02*
Y491624D01*
X549399Y474261D02*
X549463Y474325D01*
Y475400D01*
X549399Y472807D02*
Y474261D01*
X549421Y109428D02*
Y110495D01*
X549396Y109403D02*
X549421Y109428D01*
X549396Y106665D02*
Y109403D01*
X549398Y126742D02*
Y128347D01*
X549421Y125652D02*
Y126719D01*
X549398Y126742D02*
X549421Y126719D01*
X356483Y128186D02*
Y128347D01*
Y128186D02*
X356496Y128173D01*
X356483Y128347D02*
Y128543D01*
X356496Y108874D02*
Y109941D01*
X356483Y106664D02*
Y108861D01*
X356496Y108874D01*
X216195Y219505D02*
X219074D01*
X213300Y222400D02*
X216195Y219505D01*
X202062Y222400D02*
X213300D01*
X197675Y226787D02*
X202062Y222400D01*
X197281Y226787D02*
X197675D01*
X211003Y226926D02*
X211474D01*
X216836Y221564D01*
X218983D01*
X219074Y221473D01*
X776500Y0D02*
Y304807D01*
Y351993D02*
Y660000D01*
X751000Y0D02*
X777500D01*
X751000Y660000D02*
X777500D01*
X776500Y0D02*
X778500Y6000D01*
X774500D02*
X776500Y0D01*
X774500Y654000D02*
X776500Y660000D01*
X778500Y654000D01*
X750000Y661000D02*
Y673300D01*
X56000Y661000D02*
Y673300D01*
X424993Y672300D02*
X750000D01*
X56000D02*
X377807D01*
X744000Y674300D02*
X750000Y672300D01*
X744000Y670300D02*
X750000Y672300D01*
X56000D02*
X62000Y670300D01*
X56000Y672300D02*
X62000Y674300D01*
X168897Y283060D02*
X168992Y255894D01*
X137008Y282948D02*
X137103Y255783D01*
X137008Y282948D02*
X168897Y283060D01*
X137103Y255783D02*
X168992Y255894D01*
D15*
X780099Y306407D02*
Y308406D01*
Y307407D01*
X774101D01*
X775101Y306407D01*
X774101Y315404D02*
X775101Y313405D01*
X777100Y311405D01*
X779099D01*
X780099Y312405D01*
Y314405D01*
X779099Y315404D01*
X778100D01*
X777100Y314405D01*
Y311405D01*
X774101Y317404D02*
Y321402D01*
X775101D01*
X779099Y317404D01*
X780099D01*
Y323402D02*
X779099D01*
Y324401D01*
X780099D01*
Y323402D01*
X774101Y332399D02*
X775101Y330399D01*
X777100Y328400D01*
X779099D01*
X780099Y329400D01*
Y331399D01*
X779099Y332399D01*
X778100D01*
X777100Y331399D01*
Y328400D01*
X780099Y337397D02*
X774101D01*
X777100Y334398D01*
Y338397D01*
X780099Y340396D02*
X776100D01*
Y341396D01*
X777100Y342395D01*
X780099D01*
X777100D01*
X776100Y343395D01*
X777100Y344395D01*
X780099D01*
Y346394D02*
X776100D01*
Y347394D01*
X777100Y348394D01*
X780099D01*
X777100D01*
X776100Y349393D01*
X777100Y350393D01*
X780099D01*
X379407Y668701D02*
X381406D01*
X380407D01*
Y674699D01*
X379407Y673699D01*
X384405Y674699D02*
X388404D01*
Y673699D01*
X384405Y669701D01*
Y668701D01*
X394402Y674699D02*
X392403Y673699D01*
X390404Y671700D01*
Y669701D01*
X391403Y668701D01*
X393403D01*
X394402Y669701D01*
Y670700D01*
X393403Y671700D01*
X390404D01*
X396402Y668701D02*
Y669701D01*
X397401D01*
Y668701D01*
X396402D01*
X405399D02*
X401400D01*
X405399Y672700D01*
Y673699D01*
X404399Y674699D01*
X402400D01*
X401400Y673699D01*
X407398D02*
X408398Y674699D01*
X410397D01*
X411397Y673699D01*
Y672700D01*
X410397Y671700D01*
X411397Y670700D01*
Y669701D01*
X410397Y668701D01*
X408398D01*
X407398Y669701D01*
Y670700D01*
X408398Y671700D01*
X407398Y672700D01*
Y673699D01*
X408398Y671700D02*
X410397D01*
X413396Y668701D02*
Y672700D01*
X414396D01*
X415395Y671700D01*
Y668701D01*
Y671700D01*
X416395Y672700D01*
X417395Y671700D01*
Y668701D01*
X419394D02*
Y672700D01*
X420394D01*
X421393Y671700D01*
Y668701D01*
Y671700D01*
X422393Y672700D01*
X423393Y671700D01*
Y668701D01*
D16*
X549399Y461754D02*
D03*
X356484Y505512D02*
D03*
Y461784D02*
D03*
X549396Y95642D02*
D03*
X549398Y139370D02*
D03*
Y505512D02*
D03*
X356483Y139370D02*
D03*
X356483Y95640D02*
D03*
X224100Y168276D02*
D03*
X224000Y278724D02*
D03*
D17*
X549399Y472777D02*
D03*
X356484Y494488D02*
D03*
Y472807D02*
D03*
X549396Y106665D02*
D03*
X549398Y128347D02*
D03*
Y494488D02*
D03*
X356483Y128347D02*
D03*
X356483Y106664D02*
D03*
X224100Y179300D02*
D03*
X224000Y267700D02*
D03*
D18*
X681791Y456102D02*
D03*
Y450591D02*
D03*
X678900Y380156D02*
D03*
Y374644D02*
D03*
X81890Y236221D02*
D03*
Y241732D02*
D03*
X172700Y211056D02*
D03*
Y205544D02*
D03*
X197281Y214582D02*
D03*
Y220094D02*
D03*
Y226787D02*
D03*
Y232299D02*
D03*
D19*
X674606Y455709D02*
D03*
Y452165D02*
D03*
X671000Y375328D02*
D03*
Y378872D02*
D03*
X73228Y241535D02*
D03*
Y237992D02*
D03*
D20*
X703925Y435875D02*
D03*
Y442377D02*
D03*
X106496Y242129D02*
D03*
Y235627D02*
D03*
X702658Y374206D02*
D03*
Y380709D02*
D03*
D21*
X695015Y440996D02*
D03*
Y435272D02*
D03*
X97441Y235327D02*
D03*
Y241051D02*
D03*
X693307Y381110D02*
D03*
Y375386D02*
D03*
D22*
X70000Y384122D02*
D03*
Y62750D02*
D03*
D23*
Y366872D02*
D03*
Y401372D02*
D03*
Y45500D02*
D03*
Y80000D02*
D03*
D24*
X353543Y483661D02*
D03*
X552374Y118074D02*
D03*
X552416Y482979D02*
D03*
X353543Y117520D02*
D03*
D25*
X345965Y478740D02*
D03*
Y480709D02*
D03*
Y482677D02*
D03*
Y484646D02*
D03*
Y486614D02*
D03*
Y488583D02*
D03*
X361122D02*
D03*
Y486614D02*
D03*
Y484646D02*
D03*
Y482677D02*
D03*
Y480709D02*
D03*
Y478740D02*
D03*
X559953Y122995D02*
D03*
Y121026D02*
D03*
Y119058D02*
D03*
Y117089D02*
D03*
Y115121D02*
D03*
Y113152D02*
D03*
X544795D02*
D03*
Y115121D02*
D03*
Y117089D02*
D03*
Y119058D02*
D03*
Y121026D02*
D03*
Y122995D02*
D03*
X559995Y487900D02*
D03*
Y485931D02*
D03*
Y483963D02*
D03*
Y481994D02*
D03*
Y480026D02*
D03*
Y478057D02*
D03*
X544837D02*
D03*
Y480026D02*
D03*
Y481994D02*
D03*
Y483963D02*
D03*
Y485931D02*
D03*
Y487900D02*
D03*
X345965Y112598D02*
D03*
Y114567D02*
D03*
Y116535D02*
D03*
Y118504D02*
D03*
Y120473D02*
D03*
Y122441D02*
D03*
X361122D02*
D03*
Y120473D02*
D03*
Y118504D02*
D03*
Y116535D02*
D03*
Y114567D02*
D03*
Y112598D02*
D03*
D26*
X348622Y491240D02*
D03*
X350590D02*
D03*
X352559D02*
D03*
X354528D02*
D03*
X356496D02*
D03*
X358465D02*
D03*
Y476083D02*
D03*
X356496D02*
D03*
X354528D02*
D03*
X352559D02*
D03*
X350590D02*
D03*
X348622D02*
D03*
X557295Y110495D02*
D03*
X555327D02*
D03*
X553358D02*
D03*
X551390D02*
D03*
X549421D02*
D03*
X547453D02*
D03*
Y125652D02*
D03*
X549421D02*
D03*
X551390D02*
D03*
X553358D02*
D03*
X555327D02*
D03*
X557295D02*
D03*
X557337Y475400D02*
D03*
X555369D02*
D03*
X553400D02*
D03*
X551432D02*
D03*
X549463D02*
D03*
X547495D02*
D03*
Y490557D02*
D03*
X549463D02*
D03*
X551432D02*
D03*
X553400D02*
D03*
X555369D02*
D03*
X557337D02*
D03*
X348622Y125098D02*
D03*
X350590D02*
D03*
X352559D02*
D03*
X354528D02*
D03*
X356496D02*
D03*
X358465D02*
D03*
Y109941D02*
D03*
X356496D02*
D03*
X354528D02*
D03*
X352559D02*
D03*
X350590D02*
D03*
X348622D02*
D03*
D27*
X340453Y474114D02*
D03*
X336988D02*
D03*
X340453Y493012D02*
D03*
X336988D02*
D03*
X565098Y126870D02*
D03*
X568563D02*
D03*
X565433Y109350D02*
D03*
X568898D02*
D03*
X565098Y491929D02*
D03*
X568563D02*
D03*
X565098Y474213D02*
D03*
X568563D02*
D03*
X336791Y108366D02*
D03*
X340256D02*
D03*
X337185Y126772D02*
D03*
X340650D02*
D03*
D28*
X356496Y525492D02*
D03*
X356496Y159350D02*
D03*
X549409Y525492D02*
D03*
Y159350D02*
D03*
D29*
X224000Y264865D02*
D03*
Y261400D02*
D03*
X211101Y217103D02*
D03*
Y213638D02*
D03*
X211003Y226926D02*
D03*
Y230390D02*
D03*
X209400Y259632D02*
D03*
Y256168D02*
D03*
X224000Y232268D02*
D03*
Y235732D02*
D03*
D30*
X182356Y239800D02*
D03*
X176844D02*
D03*
X160800Y159600D02*
D03*
X155288D02*
D03*
X148500Y159700D02*
D03*
X142988D02*
D03*
D31*
X216412Y183871D02*
D03*
X218971D02*
D03*
X221530D02*
D03*
X224089D02*
D03*
X216412Y201391D02*
D03*
X218971D02*
D03*
X221530D02*
D03*
X224089D02*
D03*
D32*
X220251Y192631D02*
D03*
D33*
X223995Y247260D02*
D03*
D34*
X218089Y245253D02*
D03*
Y247260D02*
D03*
Y249268D02*
D03*
X229900D02*
D03*
Y247260D02*
D03*
Y245253D02*
D03*
D35*
X221987Y253166D02*
D03*
X223995D02*
D03*
X226003D02*
D03*
Y241355D02*
D03*
X223995D02*
D03*
X221987D02*
D03*
D36*
X222026Y214583D02*
D03*
X223995D02*
D03*
X225963D02*
D03*
X227932D02*
D03*
Y226394D02*
D03*
X225963D02*
D03*
X223995D02*
D03*
X222026D02*
D03*
D37*
X230885Y217536D02*
D03*
Y219505D02*
D03*
Y221473D02*
D03*
Y223442D02*
D03*
X219074D02*
D03*
Y221473D02*
D03*
Y219505D02*
D03*
Y217536D02*
D03*
D38*
X224979Y220489D02*
D03*
D39*
X356496Y441929D02*
D03*
X549409D02*
D03*
Y75787D02*
D03*
X356496D02*
D03*
D40*
X249131Y221512D02*
D03*
D41*
X245312Y221472D02*
D03*
D42*
X234289D02*
D03*
D43*
X202000Y248687D02*
D03*
Y259513D02*
D03*
D44*
X197912Y190580D02*
D03*
Y200226D02*
D03*
D45*
X207459Y203080D02*
D03*
Y197175D02*
D03*
D46*
X209153Y179700D02*
D03*
X203247D02*
D03*
X209153Y172900D02*
D03*
X203247D02*
D03*
D47*
X218000Y259800D02*
D03*
X214626D02*
D03*
D78*
X702362Y392500D02*
Y398721D01*
Y391528D02*
Y392500D01*
X646457Y444390D02*
X691318Y399528D01*
X701662Y393200D02*
X702362Y392500D01*
X688400Y393200D02*
X701662D01*
X661100Y420500D02*
X688400Y393200D01*
X654000Y420500D02*
X661100D01*
X715945Y354800D02*
Y413287D01*
Y142815D02*
Y354800D01*
X565098Y129961D02*
X566437Y131299D01*
X631201D01*
X339277Y469100D02*
X340453Y470276D01*
X259132Y492443D02*
X282475Y469100D01*
X339277D01*
X340453Y493012D02*
Y496169D01*
X333071Y497047D02*
X339574D01*
X331201Y495177D02*
X333071Y497047D01*
X339574D02*
X340453Y496169D01*
X73228Y237992D02*
X73282Y238046D01*
X76646D01*
X76700Y238100D01*
X671867Y452233D02*
X674539D01*
X671800Y452300D02*
X671867Y452233D01*
X674539D02*
X674606Y452165D01*
X681791Y443709D02*
Y450591D01*
Y443709D02*
X690228Y435272D01*
X695015D01*
X671036Y378836D02*
X673764D01*
X671000Y378872D02*
X671036Y378836D01*
X673764D02*
X673800Y378800D01*
X692830Y380633D02*
X693307Y381110D01*
X679377Y380633D02*
X692830D01*
X678900Y380156D02*
X679377Y380633D01*
X693307Y381110D02*
X693307Y381110D01*
X693307Y381110D02*
X693307D01*
X340650Y123524D02*
Y126772D01*
X339075Y121949D02*
X340650Y123524D01*
X312205Y121949D02*
X339075D01*
X309154Y118898D02*
X312205Y121949D01*
X309154Y85335D02*
Y118898D01*
X702165Y100591D02*
X712795Y111221D01*
X709449Y390650D02*
X712795Y387303D01*
Y111221D02*
Y387303D01*
X309154Y36417D02*
Y85335D01*
Y36417D02*
X332972Y12598D01*
X312288Y37045D02*
X333881Y15453D01*
X312288Y37045D02*
Y84956D01*
X312598Y92716D02*
X312659Y92777D01*
X315833D01*
X324366Y101311D01*
X336083D01*
X339707Y104934D01*
Y107896D02*
X340177Y108366D01*
X340256D01*
X339707Y104934D02*
Y107896D01*
X333881Y15453D02*
X604823D01*
X706299Y116929D01*
X614173Y12598D02*
X702165Y100591D01*
X332972Y12598D02*
X614173D01*
X706299Y116929D02*
X709744D01*
X721358Y128051D02*
Y137402D01*
X716339Y123031D02*
X721358Y128051D01*
X565098Y126870D02*
Y129961D01*
X715945Y142815D02*
X721358Y137402D01*
X567787Y497539D02*
X620852D01*
X626870Y503558D01*
Y504724D01*
X661417Y447441D02*
Y489567D01*
Y447441D02*
X690453Y418405D01*
X661417Y489567D02*
Y490893D01*
X659900Y492410D02*
X661417Y490893D01*
X627658Y638287D02*
X649705Y616240D01*
X659900Y492410D02*
Y492757D01*
X649705Y502953D02*
Y616240D01*
Y502953D02*
X659900Y492757D01*
X625394Y634941D02*
X646457Y613878D01*
X575098Y107087D02*
X646457D01*
X646555Y106988D01*
X646457Y444390D02*
Y613878D01*
X691318Y399528D02*
X701554D01*
X702362Y398721D01*
X702362D01*
X568110Y467323D02*
X605807D01*
X612402Y473917D01*
X565098Y470335D02*
X568110Y467323D01*
X711502Y417730D02*
X715945Y413287D01*
X703037Y417730D02*
X711502D01*
X702362Y418405D02*
X703037Y417730D01*
X565433Y106220D02*
X567717Y103937D01*
X565433Y106220D02*
Y109350D01*
X567717Y103937D02*
X571949D01*
X575098Y107087D01*
X702362Y391528D02*
X703241Y390650D01*
X709449D01*
X250492Y495247D02*
X253297Y492443D01*
X250492Y495247D02*
Y618504D01*
X253297Y492443D02*
X259132D01*
X254429Y495177D02*
X331201D01*
X253150Y496457D02*
X254429Y495177D01*
X340453Y470276D02*
Y474114D01*
X250492Y618504D02*
X270276Y638287D01*
X627658D01*
X253150Y496457D02*
Y616142D01*
X271949Y634941D01*
X625394D01*
X565098Y470335D02*
Y474213D01*
X690453Y418405D02*
X702362D01*
X565647Y495400D02*
X567787Y497539D01*
X565647Y492400D02*
Y495400D01*
X565176Y491929D02*
X565647Y492400D01*
X565098Y491929D02*
X565176D01*
X221530Y183871D02*
Y191352D01*
X220251Y192631D02*
X221530Y191352D01*
X148550Y159650D02*
X155238D01*
X148500Y159700D02*
X148550Y159650D01*
X155238D02*
X155288Y159600D01*
Y171050D02*
X159996Y175758D01*
X155288Y159600D02*
Y171050D01*
X147004Y185600D02*
Y197204D01*
X155344Y205544D02*
X172700D01*
X147004Y197204D02*
X155344Y205544D01*
X159596Y220357D02*
X168898Y211056D01*
X172700D01*
X197281Y220094D02*
Y226787D01*
X204700Y228700D02*
X206474Y226926D01*
X211003D01*
X204700Y228700D02*
Y234900D01*
X199800Y239800D02*
X204700Y234900D01*
X182356Y239800D02*
X199800D01*
X176844Y239406D02*
Y239800D01*
X146604Y230200D02*
X167638D01*
X176844Y239406D01*
X153000Y246639D02*
X159596Y240042D01*
X153000Y246639D02*
Y264500D01*
D79*
X333900Y126800D02*
X337157D01*
X337185Y126772D01*
X336625Y108200D02*
X336791Y108366D01*
X333500Y108200D02*
X336625D01*
X558250Y109350D02*
X565433D01*
X568563Y126870D02*
X568593Y126900D01*
X571700D01*
X568563Y474031D02*
Y474213D01*
X568602Y471098D02*
Y473992D01*
X568563Y474031D02*
X568602Y473992D01*
Y471098D02*
X568700Y471000D01*
X333800Y474200D02*
X336902D01*
X336988Y474114D01*
X336876Y492900D02*
X336988Y493012D01*
X334000Y492900D02*
X336876D01*
X160900Y159500D02*
X164100D01*
X160800Y159600D02*
X160900Y159500D01*
X209400Y253000D02*
X209500Y252900D01*
X209400Y253000D02*
Y256168D01*
X201800Y244100D02*
Y248487D01*
X197300Y232317D02*
Y235500D01*
X197281Y232299D02*
X197300Y232317D01*
X211003Y230390D02*
X211100Y230488D01*
Y233400D01*
X211101Y213638D02*
X211200Y213540D01*
Y210500D02*
Y213540D01*
X199100Y172900D02*
X203247D01*
X199100Y179700D02*
X203247D01*
X106496Y242129D02*
X106500Y242133D01*
Y246400D01*
X97400Y245000D02*
X97441Y244959D01*
Y241051D02*
Y244959D01*
X346752Y126772D02*
X347933Y125591D01*
X340650Y126772D02*
X346752D01*
X340256Y108366D02*
X347835D01*
X348031Y108563D01*
X558071Y126870D02*
X565098D01*
X340453Y493012D02*
X347910D01*
X340453Y474114D02*
X347917D01*
X558169Y491929D02*
X565098D01*
X207480Y193996D02*
Y197154D01*
X207459Y197175D02*
X207480Y197154D01*
X568898Y106890D02*
Y109350D01*
X568504Y491988D02*
Y494390D01*
Y491988D02*
X568563Y491929D01*
X558169Y474803D02*
X564902D01*
X565098Y474213D02*
Y474606D01*
X564902Y474803D02*
X565098Y474606D01*
X142988Y159700D02*
Y160094D01*
X131800Y171282D02*
X142988Y160094D01*
X201800Y248487D02*
X202000Y248687D01*
D80*
X315945Y129724D02*
X317021Y130800D01*
X349613D02*
X350590Y129823D01*
X317021Y130800D02*
X349613D01*
X350590Y125098D02*
Y129823D01*
X315945Y124683D02*
Y129724D01*
X265059Y517941D02*
X283600Y499400D01*
X344138D02*
X350448Y493089D01*
X283600Y499400D02*
X344138D01*
X260039Y502372D02*
Y612205D01*
Y502372D02*
X264500Y497911D01*
X282091Y480709D02*
X345965D01*
X270400Y492400D02*
X282091Y480709D01*
X262303Y507697D02*
X272000Y498000D01*
X262303Y507697D02*
Y610138D01*
X277000Y492443D02*
X286766Y482677D01*
X345965D01*
X265059Y517941D02*
Y608760D01*
X642913Y350197D02*
X646310Y346800D01*
X658700D01*
X665300Y340200D01*
Y327810D02*
Y340200D01*
Y327810D02*
X670079Y323031D01*
X670633Y317933D02*
X675039D01*
X662703Y310002D02*
X670633Y317933D01*
X655396Y310002D02*
X662703D01*
X670079Y323031D02*
X677953D01*
X642913Y350197D02*
Y490945D01*
X677953Y323031D02*
X679921Y321063D01*
Y302815D02*
Y321063D01*
X648597Y310002D02*
X655396D01*
X632264Y317933D02*
X640667D01*
X648597Y310002D01*
X674671Y297565D02*
X675039Y297933D01*
X655861Y297565D02*
X674671D01*
X655492Y297197D02*
X655861Y297565D01*
X559995Y483963D02*
X624895D01*
X325689Y116535D02*
X345965D01*
X317520Y108366D02*
X325689Y116535D01*
X314762Y118031D02*
X315945Y119215D01*
X314762Y95573D02*
Y118031D01*
X317520Y103445D02*
Y108366D01*
X569400Y289394D02*
X593094Y265700D01*
X655600D01*
X569400Y276588D02*
X585388Y260600D01*
X655600D01*
X658957Y263957D02*
Y267913D01*
X655600Y260600D02*
X658957Y263957D01*
X569400Y263782D02*
X579442Y253740D01*
X661417D01*
X627362Y293938D02*
X655600Y265700D01*
X627362Y293938D02*
Y455315D01*
X633957Y485186D02*
Y494685D01*
X635039Y495768D01*
Y606496D01*
X633268Y484497D02*
X633957Y485186D01*
X633268Y484154D02*
Y484497D01*
X636122Y485630D02*
X637922Y483830D01*
Y479356D02*
Y483830D01*
X636122Y485630D02*
Y492531D01*
X636981Y493391D02*
Y493576D01*
X636122Y492531D02*
X636981Y493391D01*
X640256Y474311D02*
Y489468D01*
X638779Y490945D02*
X640256Y489468D01*
X637697Y471752D02*
X640256Y474311D01*
X637697Y320571D02*
Y471752D01*
Y476279D01*
X258071Y497911D02*
Y498168D01*
X257283Y498956D02*
X258071Y498168D01*
X257283Y498956D02*
Y612992D01*
X317520Y103445D02*
X319390Y101575D01*
X317968Y40989D02*
Y88341D01*
X320768Y91142D01*
X324114Y107283D02*
X331398Y114567D01*
X324114Y104033D02*
Y107283D01*
X331398Y114567D02*
X345965D01*
X320302Y42297D02*
Y86542D01*
X325492Y91732D01*
X330020Y104626D02*
Y108957D01*
X333661Y112598D01*
X345965D01*
X323031Y84744D02*
X330118Y91831D01*
X323031Y42913D02*
Y84744D01*
X601378Y18307D02*
X708661Y125591D01*
Y147146D01*
X658465Y96161D02*
X700689Y138386D01*
Y232283D01*
X680196Y252776D02*
X700689Y232283D01*
X317968Y40989D02*
X338157Y20800D01*
X323031Y42913D02*
X340256Y25689D01*
X315234Y86396D02*
X315354Y86516D01*
X315234Y39785D02*
Y86396D01*
X257283Y612992D02*
X274902Y630610D01*
X263386Y492421D02*
X277067Y478740D01*
X345965D01*
X621555Y628051D02*
X639764Y609842D01*
Y497933D02*
Y609842D01*
X641831Y495581D02*
Y611319D01*
X622539Y630610D02*
X641831Y611319D01*
X639272Y497933D02*
X639764D01*
X636937Y496921D02*
X642913Y490945D01*
X620125Y625492D02*
X636937Y608680D01*
Y496921D02*
Y608680D01*
X618504Y623032D02*
X635039Y606496D01*
X555327Y105697D02*
X564862Y96161D01*
X658465D01*
X634547Y320472D02*
Y475886D01*
X634547Y475886D01*
Y292323D02*
Y314862D01*
X630905Y319291D02*
Y477953D01*
Y319291D02*
X632264Y317933D01*
X637697Y293012D02*
Y314961D01*
X637795Y315059D01*
X634547Y292323D02*
X658957Y267913D01*
X663976Y257972D02*
X669172Y252776D01*
X680196D01*
X637697Y293012D02*
X661417Y269291D01*
Y253740D02*
Y269291D01*
X664173Y262992D02*
X679980D01*
X661417Y253740D02*
X672342Y242815D01*
X634305Y476128D02*
X634547Y475886D01*
X625486Y485931D02*
X634305Y477113D01*
Y476128D02*
Y477113D01*
X627362Y455315D02*
Y477953D01*
X624895Y483963D02*
X630905Y477953D01*
X559995Y485931D02*
X625486D01*
X672342Y242815D02*
X680158D01*
X685039Y237933D01*
X274902Y630610D02*
X622539D01*
X260039Y612205D02*
X275886Y628051D01*
X621555D01*
X262303Y610138D02*
X277658Y625492D01*
X620125D01*
X675039Y297933D02*
X679921Y302815D01*
X279331Y623032D02*
X618504D01*
X350448Y491382D02*
Y493089D01*
Y491382D02*
X350590Y491240D01*
X265059Y608760D02*
X279331Y623032D01*
X626076Y487900D02*
X637697Y476279D01*
X559995Y487900D02*
X626076D01*
X679980Y262992D02*
X685039Y257933D01*
X555511Y473131D02*
Y475258D01*
X555369Y475400D02*
X555511Y475258D01*
Y473131D02*
X564961Y463681D01*
X618996D01*
X627362Y455315D01*
X697736Y231594D02*
X697835Y231693D01*
Y238976D02*
Y245138D01*
X685039Y257933D02*
X697835Y245138D01*
X315234Y39785D02*
X336713Y18307D01*
X601378D01*
X338157Y20800D02*
X600327D01*
X705709Y126181D01*
X320302Y42297D02*
X339272Y23327D01*
X599705D01*
X697736Y121358D01*
Y127756D01*
X340256Y25689D02*
X599016D01*
X695374Y122047D01*
Y125492D01*
X705709Y126181D02*
Y339862D01*
X679109Y348622D02*
X696949D01*
X705709Y339862D01*
X669488Y339001D02*
X679109Y348622D01*
X669488Y333484D02*
Y339001D01*
Y333484D02*
X675039Y327933D01*
X697736Y142815D02*
Y231594D01*
Y138779D02*
Y142815D01*
X676777Y118451D02*
X677120D01*
X559953Y119058D02*
X676170D01*
X676777Y118451D01*
X684082Y118477D02*
Y118530D01*
X703248Y137697D01*
Y338386D01*
X695374Y346260D02*
X703248Y338386D01*
X683366Y346260D02*
X695374D01*
X675039Y337933D02*
X683366Y346260D01*
X679983Y121026D02*
X697736Y138779D01*
X559953Y121026D02*
X679983D01*
X555327Y105697D02*
Y110495D01*
X559953Y122995D02*
X678408D01*
X695374Y139961D01*
Y227598D01*
X685039Y237933D02*
X695374Y227598D01*
D81*
X221300Y211200D02*
Y211435D01*
X221986Y212121D01*
Y214543D02*
X222067Y214624D01*
X221986Y212121D02*
Y214543D01*
X223179Y218689D02*
X223179D01*
X222084Y217594D02*
X223179Y218689D01*
X222084Y217594D02*
Y217594D01*
X222067Y217577D02*
X222084Y217594D01*
X222067Y214624D02*
Y217577D01*
X224000Y264865D02*
Y267700D01*
X223995Y253166D02*
Y261395D01*
X224000Y261400D01*
X220100Y178000D02*
Y178235D01*
X219900Y178000D02*
X220100D01*
Y178235D02*
X221400Y179535D01*
Y183741D01*
X221530Y183871D01*
X224089Y179300D02*
Y183871D01*
Y179300D02*
X224100D01*
X223995Y235732D02*
Y241355D01*
Y235732D02*
X224000D01*
Y226394D02*
Y232268D01*
X223995Y226394D02*
X224000D01*
X223995Y201391D02*
Y214583D01*
Y201391D02*
X224089D01*
X230885Y221472D02*
X234289D01*
X230885D02*
Y221473D01*
D82*
X198192Y190300D02*
X203600D01*
X197912Y190580D02*
X198192Y190300D01*
X703925Y442377D02*
Y447526D01*
X70000Y45500D02*
X70465Y45965D01*
X83366D01*
X70000Y80020D02*
X83563D01*
X70000Y80000D02*
Y80020D01*
Y401372D02*
X83858D01*
Y401279D02*
Y401372D01*
X70000Y367028D02*
X83563D01*
X70000Y366872D02*
Y367028D01*
X702558Y369557D02*
Y374106D01*
X702658Y374206D01*
D83*
X92900Y166700D02*
X93200D01*
X120882Y218118D02*
X126800Y224036D01*
Y287900D01*
X133300Y294400D01*
X175200D01*
X199800Y269800D01*
X131000Y151000D02*
X137000Y145000D01*
X179900D01*
X184000Y149100D01*
Y203900D01*
X131000Y151000D02*
Y208000D01*
X120882Y218118D02*
X131000Y208000D01*
D84*
X695015Y440996D02*
Y445234D01*
X693107Y371348D02*
Y375186D01*
X693307Y375386D01*
D85*
X727700Y636700D02*
D03*
X78900D02*
D03*
Y21200D02*
D03*
X727700D02*
D03*
D86*
X655492Y297197D02*
D03*
X655396Y310002D02*
D03*
Y322808D02*
D03*
X655496Y335614D02*
D03*
X654000Y420500D02*
D03*
X569400Y276588D02*
D03*
Y263782D02*
D03*
Y289394D02*
D03*
Y302200D02*
D03*
X93200Y166700D02*
D03*
X108600Y166900D02*
D03*
X654000Y395300D02*
D03*
Y407900D02*
D03*
X631201Y131299D02*
D03*
X721358Y137402D02*
D03*
X631299Y148228D02*
D03*
X626870Y504724D02*
D03*
X661417Y489567D02*
D03*
X626575Y518996D02*
D03*
X652264Y438583D02*
D03*
X612402Y473917D02*
D03*
X702165Y100591D02*
D03*
X646555Y106988D02*
D03*
D87*
X685039Y147933D02*
D03*
X675039D02*
D03*
X685039Y157933D02*
D03*
X675039D02*
D03*
X685039Y167933D02*
D03*
X675039D02*
D03*
X685039Y177933D02*
D03*
X675039D02*
D03*
X685039Y187933D02*
D03*
X675039D02*
D03*
X685039Y197933D02*
D03*
X675039D02*
D03*
X685039Y207933D02*
D03*
X675039D02*
D03*
X685039Y217933D02*
D03*
X675039D02*
D03*
X685039Y227933D02*
D03*
X675039D02*
D03*
X685039Y237933D02*
D03*
X675039D02*
D03*
X685039Y247933D02*
D03*
X675039D02*
D03*
X685039Y257933D02*
D03*
X675039D02*
D03*
X685039Y267933D02*
D03*
X675039D02*
D03*
X685039Y277933D02*
D03*
X675039D02*
D03*
X685039Y287933D02*
D03*
X675039D02*
D03*
X685039Y297933D02*
D03*
X675039D02*
D03*
X685039Y307933D02*
D03*
X675039D02*
D03*
X685039Y317933D02*
D03*
X675039D02*
D03*
X685039Y327933D02*
D03*
X675039D02*
D03*
X685039Y337933D02*
D03*
X675039D02*
D03*
D88*
X702362Y398721D02*
D03*
Y408563D02*
D03*
Y418405D02*
D03*
X106500Y198600D02*
D03*
Y208442D02*
D03*
Y218285D02*
D03*
X153000Y264500D02*
D03*
Y274342D02*
D03*
D89*
X159996Y175758D02*
D03*
Y195442D02*
D03*
X147004Y185600D02*
D03*
X159596Y220357D02*
D03*
Y240042D02*
D03*
X146604Y230200D02*
D03*
D90*
X709500Y354700D02*
D03*
X715945Y354800D02*
D03*
X333900Y126800D02*
D03*
X360000Y128200D02*
D03*
X333500Y108200D02*
D03*
X571700Y126900D02*
D03*
X568700Y471000D02*
D03*
X333800Y474200D02*
D03*
X334000Y492900D02*
D03*
X164100Y159500D02*
D03*
X209500Y252900D02*
D03*
X201800Y244100D02*
D03*
X197300Y235500D02*
D03*
X211100Y233400D02*
D03*
X221300Y211200D02*
D03*
X211200Y210500D02*
D03*
X199100Y172900D02*
D03*
Y179700D02*
D03*
X203600Y190300D02*
D03*
X106500Y246400D02*
D03*
X97400Y245000D02*
D03*
X76700Y238100D02*
D03*
X671800Y452300D02*
D03*
X673800Y378800D02*
D03*
X264500Y497911D02*
D03*
X270400Y492400D02*
D03*
X272000Y498000D02*
D03*
X277000Y492443D02*
D03*
X315945Y119215D02*
D03*
Y124683D02*
D03*
X655600Y265700D02*
D03*
X633268Y484154D02*
D03*
X637922Y479356D02*
D03*
X319390Y101575D02*
D03*
X320768Y91142D02*
D03*
X324114Y104033D02*
D03*
X325492Y91732D02*
D03*
X330020Y104626D02*
D03*
X330118Y91831D02*
D03*
X708661Y147146D02*
D03*
X700689Y149213D02*
D03*
X312288Y84956D02*
D03*
X312598Y92716D02*
D03*
X315354Y86516D02*
D03*
X258071Y497911D02*
D03*
X314762Y95573D02*
D03*
X709744Y116929D02*
D03*
X716339Y123031D02*
D03*
X263386Y492421D02*
D03*
X636981Y493576D02*
D03*
X638779Y490945D02*
D03*
X639272Y497933D02*
D03*
X641837Y495581D02*
D03*
X634547Y320472D02*
D03*
X634547Y314862D02*
D03*
X637697Y320571D02*
D03*
X637795Y315059D02*
D03*
X658957Y267913D02*
D03*
X663976Y257972D02*
D03*
X664173Y262992D02*
D03*
X634547Y475886D02*
D03*
X627362Y477953D02*
D03*
X256693Y488779D02*
D03*
X254429Y495177D02*
D03*
X697835Y231693D02*
D03*
Y238976D02*
D03*
X695374Y125492D02*
D03*
X697736Y127756D02*
D03*
Y142815D02*
D03*
X695374Y139961D02*
D03*
X677120Y118451D02*
D03*
X684082Y118477D02*
D03*
X223179Y218689D02*
D03*
X226900Y211000D02*
D03*
X221063Y205906D02*
D03*
X219498Y242762D02*
D03*
X218898Y251870D02*
D03*
X228740Y251476D02*
D03*
X229528Y242815D02*
D03*
X364575Y119882D02*
D03*
Y113976D02*
D03*
X353248Y106004D02*
D03*
X541331Y121457D02*
D03*
Y115551D02*
D03*
X541388Y486491D02*
D03*
Y480586D02*
D03*
X364575Y486122D02*
D03*
Y480217D02*
D03*
X207480Y193996D02*
D03*
X230906Y214272D02*
D03*
X218799Y226083D02*
D03*
X231299Y226575D02*
D03*
X234252Y218602D02*
D03*
X568898Y106890D02*
D03*
X568504Y494390D02*
D03*
X544488Y125492D02*
D03*
X543602Y109744D02*
D03*
X552700Y107000D02*
D03*
X553100Y129400D02*
D03*
X544546Y490527D02*
D03*
X543660Y474779D02*
D03*
X553100Y472000D02*
D03*
X552500Y494200D02*
D03*
X361417Y109941D02*
D03*
X362303Y125689D02*
D03*
X353248Y128839D02*
D03*
X353300Y472400D02*
D03*
X353000Y495000D02*
D03*
X362303Y491929D02*
D03*
X361417Y476181D02*
D03*
X695015Y445234D02*
D03*
X83366Y45965D02*
D03*
X83563Y80020D02*
D03*
X83858Y401279D02*
D03*
X83563Y367028D02*
D03*
X552374Y121574D02*
D03*
Y114574D02*
D03*
X548874D02*
D03*
X555874D02*
D03*
Y121574D02*
D03*
X548874D02*
D03*
Y118074D02*
D03*
X555874D02*
D03*
X552374D02*
D03*
X552416Y486479D02*
D03*
Y479479D02*
D03*
X548916D02*
D03*
X555916D02*
D03*
Y486479D02*
D03*
X548916D02*
D03*
Y482979D02*
D03*
X555916D02*
D03*
X552416D02*
D03*
X702558Y369557D02*
D03*
X693107Y371348D02*
D03*
X703925Y447526D02*
D03*
X353543Y483661D02*
D03*
X357043D02*
D03*
X350043D02*
D03*
Y487161D02*
D03*
X357043D02*
D03*
Y480161D02*
D03*
X350043D02*
D03*
X353543D02*
D03*
Y487161D02*
D03*
Y117520D02*
D03*
Y121020D02*
D03*
Y114020D02*
D03*
X350043Y117520D02*
D03*
X357043D02*
D03*
X350043Y114020D02*
D03*
X357043D02*
D03*
Y121020D02*
D03*
X350043D02*
D03*
X223251Y190431D02*
D03*
Y194831D02*
D03*
X217251Y190431D02*
D03*
Y194831D02*
D03*
X220251Y192631D02*
D03*
X222345Y248910D02*
D03*
X225645D02*
D03*
X222345Y245610D02*
D03*
X225645D02*
D03*
X223179Y222289D02*
D03*
X226779D02*
D03*
Y218689D02*
D03*
X226673Y256398D02*
D03*
X221457Y256299D02*
D03*
X220100Y178000D02*
D03*
X227067Y238287D02*
D03*
X220866Y238189D02*
D03*
X227264Y229724D02*
D03*
X221100Y229600D02*
D03*
M02*
