G04*
G04 #@! TF.GenerationSoftware,Altium Limited,Altium Designer,23.2.1 (34)*
G04*
G04 Layer_Color=65535*
%FSLAX25Y25*%
%MOIN*%
G70*
G04*
G04 #@! TF.SameCoordinates,EA82DE16-3429-4144-A5AD-2FDE9807C310*
G04*
G04*
G04 #@! TF.FilePolarity,Positive*
G04*
G01*
G75*
%ADD10C,0.00800*%
%ADD11C,0.01000*%
D10*
X243295Y16666D02*
Y19998D01*
X242628Y20664D01*
X241295D01*
X240629Y19998D01*
Y16666D01*
X239296Y20664D02*
Y17998D01*
X237296D01*
X236630Y18665D01*
Y20664D01*
X235297D02*
X233964D01*
X234631D01*
Y17998D01*
X235297D01*
X231965D02*
X230632Y20664D01*
X229299Y17998D01*
X225967Y20664D02*
X227300D01*
X227966Y19998D01*
Y18665D01*
X227300Y17998D01*
X225967D01*
X225300Y18665D01*
Y19331D01*
X227966D01*
X223967Y17998D02*
Y20664D01*
Y19331D01*
X223301Y18665D01*
X222635Y17998D01*
X221968D01*
X219969Y20664D02*
X217969D01*
X217303Y19998D01*
X217969Y19331D01*
X219302D01*
X219969Y18665D01*
X219302Y17998D01*
X217303D01*
X215970Y20664D02*
X214637D01*
X215303D01*
Y17998D01*
X215970D01*
X211971Y17332D02*
Y17998D01*
X212638D01*
X211305D01*
X211971D01*
Y19998D01*
X211305Y20664D01*
X209305Y17998D02*
Y19998D01*
X208639Y20664D01*
X206640D01*
Y21331D01*
X207306Y21997D01*
X207973D01*
X206640Y20664D02*
Y17998D01*
X200642Y20664D02*
X199309D01*
X198642Y19998D01*
Y18665D01*
X199309Y17998D01*
X200642D01*
X201308Y18665D01*
Y19998D01*
X200642Y20664D01*
X196643D02*
Y17332D01*
Y18665D01*
X197309D01*
X195976D01*
X196643D01*
Y17332D01*
X195976Y16666D01*
X189978Y20664D02*
Y16666D01*
X188645Y17998D01*
X187312Y16666D01*
Y20664D01*
X185980D02*
X184647D01*
X185313D01*
Y17998D01*
X185980D01*
X179982D02*
X181981D01*
X182647Y18665D01*
Y19998D01*
X181981Y20664D01*
X179982D01*
X178649Y16666D02*
Y20664D01*
Y18665D01*
X177982Y17998D01*
X176649D01*
X175983Y18665D01*
Y20664D01*
X174650D02*
X173317D01*
X173984D01*
Y17998D01*
X174650D01*
X169985Y21997D02*
X169318D01*
X168652Y21331D01*
Y17998D01*
X170651D01*
X171318Y18665D01*
Y19998D01*
X170651Y20664D01*
X168652D01*
X166653Y17998D02*
X165320D01*
X164653Y18665D01*
Y20664D01*
X166653D01*
X167319Y19998D01*
X166653Y19331D01*
X164653D01*
X163320Y20664D02*
Y17998D01*
X161321D01*
X160654Y18665D01*
Y20664D01*
X240629Y24717D02*
X243295D01*
Y28716D01*
X240629D01*
X243295Y26716D02*
X241962D01*
X236630Y24717D02*
X239296D01*
Y28716D01*
X236630D01*
X239296Y26716D02*
X237963D01*
X232631Y25383D02*
X233298Y24717D01*
X234631D01*
X235297Y25383D01*
Y28049D01*
X234631Y28716D01*
X233298D01*
X232631Y28049D01*
X228632Y25383D02*
X229299Y24717D01*
X230632D01*
X231298Y25383D01*
Y26050D01*
X230632Y26716D01*
X229299D01*
X228632Y27383D01*
Y28049D01*
X229299Y28716D01*
X230632D01*
X231298Y28049D01*
X221302Y28716D02*
Y24717D01*
X223301Y26716D01*
X220635D01*
X219302Y25383D02*
X218636Y24717D01*
X217303D01*
X216636Y25383D01*
Y26050D01*
X217303Y26716D01*
X217969D01*
X217303D01*
X216636Y27383D01*
Y28049D01*
X217303Y28716D01*
X218636D01*
X219302Y28049D01*
X215303Y25383D02*
X214637Y24717D01*
X213304D01*
X212638Y25383D01*
Y28049D01*
X213304Y28716D01*
X214637D01*
X215303Y28049D01*
Y25383D01*
X207306Y24717D02*
Y28716D01*
X205973Y27383D01*
X204640Y28716D01*
Y24717D01*
X200642Y28716D02*
X203307D01*
X200642Y26050D01*
Y25383D01*
X201308Y24717D01*
X202641D01*
X203307Y25383D01*
X197309Y28716D02*
Y24717D01*
X199309Y26716D01*
X196643D01*
X240629Y31435D02*
X243295D01*
Y33435D01*
X241962Y32768D01*
X241295D01*
X240629Y33435D01*
Y34767D01*
X241295Y35434D01*
X242628D01*
X243295Y34767D01*
X239296Y35434D02*
Y34767D01*
X238629D01*
Y35434D01*
X239296D01*
X235964Y32102D02*
X235297Y31435D01*
X233964D01*
X233298Y32102D01*
Y32768D01*
X233964Y33435D01*
X233298Y34101D01*
Y34767D01*
X233964Y35434D01*
X235297D01*
X235964Y34767D01*
Y34101D01*
X235297Y33435D01*
X235964Y32768D01*
Y32102D01*
X235297Y33435D02*
X233964D01*
X225300Y32102D02*
X225967Y31435D01*
X227300D01*
X227966Y32102D01*
Y34767D01*
X227300Y35434D01*
X225967D01*
X225300Y34767D01*
Y33435D01*
X226633D01*
X223967Y31435D02*
Y35434D01*
Y33435D01*
X221302D01*
Y31435D01*
Y35434D01*
X219969Y32768D02*
X217303D01*
X219969Y35434D01*
X217303D01*
X211971D02*
Y31435D01*
X209972D01*
X209305Y32102D01*
Y33435D01*
X209972Y34101D01*
X211971D01*
X207306Y32768D02*
X205973D01*
X205307Y33435D01*
Y35434D01*
X207306D01*
X207973Y34767D01*
X207306Y34101D01*
X205307D01*
X203307Y32102D02*
Y32768D01*
X203974D01*
X202641D01*
X203307D01*
Y34767D01*
X202641Y35434D01*
X197976Y32768D02*
X199975D01*
X200642Y33435D01*
Y34767D01*
X199975Y35434D01*
X197976D01*
X196643Y31435D02*
Y35434D01*
Y33435D01*
X195976Y32768D01*
X194643D01*
X193977Y33435D01*
Y35434D01*
X188645D02*
Y32768D01*
X187312Y31435D01*
X185980Y32768D01*
Y35434D01*
Y33435D01*
X188645D01*
X184647Y35434D02*
Y32768D01*
X182647D01*
X181981Y33435D01*
Y35434D01*
X179982Y32102D02*
Y32768D01*
X180648D01*
X179315D01*
X179982D01*
Y34767D01*
X179315Y35434D01*
X175316D02*
X176649D01*
X177316Y34767D01*
Y33435D01*
X176649Y32768D01*
X175316D01*
X174650Y33435D01*
Y34101D01*
X177316D01*
X173317Y35434D02*
Y32768D01*
X171318D01*
X170651Y33435D01*
Y35434D01*
X169318D02*
Y32768D01*
X167319D01*
X166653Y33435D01*
Y35434D01*
X164653Y32768D02*
X163320D01*
X162654Y33435D01*
Y35434D01*
X164653D01*
X165320Y34767D01*
X164653Y34101D01*
X162654D01*
X243295Y42152D02*
Y38154D01*
X241295D01*
X240629Y38820D01*
Y40153D01*
X241295Y40819D01*
X243295D01*
X241962D02*
X240629Y42152D01*
X239296Y39487D02*
Y41486D01*
X238629Y42152D01*
X236630D01*
Y42819D01*
X237296Y43485D01*
X237963D01*
X236630Y42152D02*
Y39487D01*
X234631D02*
X233298D01*
X232631Y40153D01*
Y42152D01*
X234631D01*
X235297Y41486D01*
X234631Y40819D01*
X232631D01*
X231298Y42152D02*
Y39487D01*
X229299D01*
X228632Y40153D01*
Y42152D01*
X220635Y38820D02*
X221302Y38154D01*
X222635D01*
X223301Y38820D01*
Y39487D01*
X222635Y40153D01*
X221302D01*
X220635Y40819D01*
Y41486D01*
X221302Y42152D01*
X222635D01*
X223301Y41486D01*
X218636Y38820D02*
Y39487D01*
X219302D01*
X217969D01*
X218636D01*
Y41486D01*
X217969Y42152D01*
X215970Y39487D02*
Y42152D01*
Y40819D01*
X215303Y40153D01*
X214637Y39487D01*
X213971D01*
X211305Y42152D02*
X209972D01*
X209305Y41486D01*
Y40153D01*
X209972Y39487D01*
X211305D01*
X211971Y40153D01*
Y41486D01*
X211305Y42152D01*
X207973Y38154D02*
Y42152D01*
Y40153D01*
X207306Y39487D01*
X205973D01*
X205307Y40153D01*
Y42152D01*
X203974D02*
Y39487D01*
X203307D01*
X202641Y40153D01*
Y42152D01*
Y40153D01*
X201975Y39487D01*
X201308Y40153D01*
Y42152D01*
X199309Y39487D02*
X197976D01*
X197309Y40153D01*
Y42152D01*
X199309D01*
X199975Y41486D01*
X199309Y40819D01*
X197309D01*
X195976Y42152D02*
Y39487D01*
X193977D01*
X193311Y40153D01*
Y42152D01*
X243295Y46205D02*
Y50204D01*
Y48204D01*
X240629D01*
Y46205D01*
Y50204D01*
X239296Y47538D02*
Y49537D01*
X238629Y50204D01*
X236630D01*
Y50870D01*
X237296Y51537D01*
X237963D01*
X236630Y50204D02*
Y47538D01*
X235297D02*
Y49537D01*
X234631Y50204D01*
X232631D01*
Y47538D01*
X231298Y50204D02*
Y47538D01*
X229299D01*
X228632Y48204D01*
Y50204D01*
X227300D02*
Y47538D01*
X226633D01*
X225967Y48204D01*
Y50204D01*
Y48204D01*
X225300Y47538D01*
X224634Y48204D01*
Y50204D01*
X223301D02*
X221968D01*
X222635D01*
Y47538D01*
X223301D01*
X219969Y50204D02*
Y47538D01*
X217969D01*
X217303Y48204D01*
Y50204D01*
X209305Y46872D02*
X209972Y46205D01*
X211305D01*
X211971Y46872D01*
Y49537D01*
X211305Y50204D01*
X209972D01*
X209305Y49537D01*
X207973Y46205D02*
Y50204D01*
Y48204D01*
X207306Y47538D01*
X205973D01*
X205307Y48204D01*
Y50204D01*
X203307D02*
X201975D01*
X201308Y49537D01*
Y48204D01*
X201975Y47538D01*
X203307D01*
X203974Y48204D01*
Y49537D01*
X203307Y50204D01*
X199975D02*
X198642D01*
X199309D01*
Y47538D01*
X199975D01*
X243295Y58255D02*
Y54256D01*
X240629Y58255D01*
Y54256D01*
X238629Y55589D02*
X237296D01*
X236630Y56256D01*
Y58255D01*
X238629D01*
X239296Y57589D01*
X238629Y56922D01*
X236630D01*
X234631Y54923D02*
Y55589D01*
X235297D01*
X233964D01*
X234631D01*
Y57589D01*
X233964Y58255D01*
X231965Y54256D02*
Y58255D01*
Y56256D01*
X231298Y55589D01*
X229965D01*
X229299Y56256D01*
Y58255D01*
X227300Y55589D02*
X225967D01*
X225300Y56256D01*
Y58255D01*
X227300D01*
X227966Y57589D01*
X227300Y56922D01*
X225300D01*
X223967Y58255D02*
Y55589D01*
X221968D01*
X221302Y56256D01*
Y58255D01*
X219969D02*
X218636D01*
X219302D01*
Y55589D01*
X219969D01*
X214637Y58255D02*
X215970D01*
X216636Y57589D01*
Y56256D01*
X215970Y55589D01*
X214637D01*
X213971Y56256D01*
Y56922D01*
X216636D01*
X212638Y58255D02*
X211305D01*
X211971D01*
Y54256D01*
X212638D01*
X205307D02*
Y58255D01*
Y56922D01*
X202641Y54256D01*
X204640Y56256D01*
X202641Y58255D01*
X200642Y55589D02*
X199309D01*
X198642Y56256D01*
Y58255D01*
X200642D01*
X201308Y57589D01*
X200642Y56922D01*
X198642D01*
X197309Y58255D02*
X195976D01*
X196643D01*
Y54256D01*
X197309D01*
X193311Y55589D02*
X191978D01*
X191311Y56256D01*
Y58255D01*
X193311D01*
X193977Y57589D01*
X193311Y56922D01*
X191311D01*
X189978Y58255D02*
Y55589D01*
X187979D01*
X187312Y56256D01*
Y58255D01*
X185313Y54923D02*
Y55589D01*
X185980D01*
X184647D01*
X185313D01*
Y57589D01*
X184647Y58255D01*
X181981Y55589D02*
X180648D01*
X179982Y56256D01*
Y58255D01*
X181981D01*
X182647Y57589D01*
X181981Y56922D01*
X179982D01*
X178649Y55589D02*
Y58255D01*
Y56922D01*
X177982Y56256D01*
X177316Y55589D01*
X176649D01*
D11*
X155147Y240963D02*
X157146D01*
X156146D01*
Y245961D01*
X157146Y246961D01*
X158146D01*
X159145Y245961D01*
X153147Y246961D02*
X151148D01*
X152147D01*
Y240963D01*
X153147Y241963D01*
X179745Y159460D02*
X183744D01*
X185743Y157461D01*
X183744Y155462D01*
X179745D01*
X182744D01*
Y159460D01*
X179745Y153462D02*
X185743D01*
X179745Y149463D01*
X185743D01*
Y147464D02*
Y143465D01*
Y145465D01*
X179745D01*
Y141466D02*
Y139467D01*
Y140466D01*
X185743D01*
X184744Y141466D01*
M02*
