G04*
G04 #@! TF.GenerationSoftware,Altium Limited,Altium Designer,23.2.1 (34)*
G04*
G04 Layer_Color=8388736*
%FSLAX25Y25*%
%MOIN*%
G70*
G04*
G04 #@! TF.SameCoordinates,CA660C8E-C53F-4193-A26E-31EAB45B7BEE*
G04*
G04*
G04 #@! TF.FilePolarity,Negative*
G04*
G01*
G75*
%ADD15R,0.13610X0.01575*%
%ADD16R,0.03291X0.13610*%
%ADD19R,0.13610X0.01992*%
%ADD24R,0.13610X0.01968*%
%ADD25R,0.01100X0.01000*%
%ADD26R,0.01968X0.13610*%
%ADD27R,0.01000X0.01100*%
%ADD46R,0.02423X0.02254*%
%ADD47R,0.03842X0.03055*%
%ADD48R,0.02268X0.03055*%
%ADD49R,0.09945X0.09945*%
%ADD50R,0.03449X0.01284*%
%ADD51R,0.01284X0.03449*%
%ADD52R,0.02898X0.02740*%
%ADD53R,0.06032X0.05239*%
%ADD54R,0.03890X0.04071*%
%ADD55R,0.23299X0.09299*%
%ADD56R,0.23299X0.09799*%
%ADD57R,0.02740X0.02898*%
%ADD58R,0.03055X0.03842*%
%ADD59R,0.02071X0.05614*%
%ADD60R,0.09197X0.07504*%
%ADD61R,0.06008X0.06008*%
%ADD62R,0.02858X0.01284*%
%ADD63R,0.01284X0.02858*%
%ADD64R,0.01480X0.03252*%
%ADD65R,0.03252X0.01480*%
%ADD66R,0.07189X0.07189*%
%ADD67R,0.07386X0.05614*%
%ADD68R,0.07583X0.06795*%
%ADD69R,0.04039X0.04236*%
%ADD70R,0.04236X0.04039*%
%ADD71C,0.27858*%
%ADD72C,0.07386*%
%ADD73C,0.06699*%
%ADD74C,0.08173*%
%ADD75C,0.06598*%
%ADD76C,0.02268*%
D15*
X489475Y595437D02*
D03*
X682388D02*
D03*
X489475Y118941D02*
D03*
X682388D02*
D03*
D16*
X382110Y319843D02*
D03*
D19*
X682406Y202665D02*
D03*
X489492Y202665D02*
D03*
X682398Y679095D02*
D03*
X489484D02*
D03*
D24*
X489472Y615386D02*
D03*
X682387Y615356D02*
D03*
X489472Y659114D02*
D03*
X682386D02*
D03*
X682393Y138957D02*
D03*
X682394Y182685D02*
D03*
X489479Y138955D02*
D03*
X489479Y182685D02*
D03*
X357108Y266607D02*
D03*
X357008Y377054D02*
D03*
D25*
X489472Y626409D02*
D03*
X682387Y626379D02*
D03*
X489472Y648091D02*
D03*
X682386D02*
D03*
X682393Y149980D02*
D03*
X682394Y171661D02*
D03*
X489479Y149979D02*
D03*
X489479Y171661D02*
D03*
X357108Y277631D02*
D03*
X357008Y366031D02*
D03*
D26*
X378320Y319802D02*
D03*
D27*
X367297D02*
D03*
D46*
X351008Y358131D02*
D03*
X347633D02*
D03*
D47*
X310200Y340044D02*
D03*
Y345556D02*
D03*
X814799Y554433D02*
D03*
Y548921D02*
D03*
X811908Y478487D02*
D03*
Y472975D02*
D03*
X214898Y334551D02*
D03*
Y340063D02*
D03*
X305708Y309387D02*
D03*
Y303875D02*
D03*
X330289Y312913D02*
D03*
Y318425D02*
D03*
Y325117D02*
D03*
Y330629D02*
D03*
D48*
X317400Y344372D02*
D03*
Y340828D02*
D03*
X807614Y554039D02*
D03*
Y550496D02*
D03*
X804008Y473659D02*
D03*
Y477202D02*
D03*
X206236Y339866D02*
D03*
Y336323D02*
D03*
D49*
X486531Y637264D02*
D03*
X685404Y636581D02*
D03*
X685370Y161389D02*
D03*
X486539Y160835D02*
D03*
D50*
X478953Y632342D02*
D03*
Y634311D02*
D03*
Y636279D02*
D03*
Y638248D02*
D03*
Y640217D02*
D03*
Y642185D02*
D03*
X494110D02*
D03*
Y640217D02*
D03*
Y638248D02*
D03*
Y636279D02*
D03*
Y634311D02*
D03*
Y632342D02*
D03*
X692983Y641502D02*
D03*
Y639534D02*
D03*
Y637565D02*
D03*
Y635597D02*
D03*
Y633628D02*
D03*
Y631660D02*
D03*
X677825D02*
D03*
Y633628D02*
D03*
Y635597D02*
D03*
Y637565D02*
D03*
Y639534D02*
D03*
Y641502D02*
D03*
X677791Y166310D02*
D03*
Y164341D02*
D03*
Y162373D02*
D03*
Y160404D02*
D03*
Y158436D02*
D03*
Y156467D02*
D03*
X692949D02*
D03*
Y158436D02*
D03*
Y160404D02*
D03*
Y162373D02*
D03*
Y164341D02*
D03*
Y166310D02*
D03*
X478961Y155913D02*
D03*
Y157882D02*
D03*
Y159850D02*
D03*
Y161819D02*
D03*
Y163787D02*
D03*
Y165756D02*
D03*
X494118D02*
D03*
Y163787D02*
D03*
Y161819D02*
D03*
Y159850D02*
D03*
Y157882D02*
D03*
Y155913D02*
D03*
D51*
X481610Y644842D02*
D03*
X483579D02*
D03*
X485547D02*
D03*
X487516D02*
D03*
X489484D02*
D03*
X491453D02*
D03*
Y629685D02*
D03*
X489484D02*
D03*
X487516D02*
D03*
X485547D02*
D03*
X483579D02*
D03*
X481610D02*
D03*
X690325Y629002D02*
D03*
X688357D02*
D03*
X686388D02*
D03*
X684420D02*
D03*
X682451D02*
D03*
X680483D02*
D03*
Y644160D02*
D03*
X682451D02*
D03*
X684420D02*
D03*
X686388D02*
D03*
X688357D02*
D03*
X690325D02*
D03*
X690291Y168967D02*
D03*
X688323D02*
D03*
X686354D02*
D03*
X684386D02*
D03*
X682417D02*
D03*
X680449D02*
D03*
Y153810D02*
D03*
X682417D02*
D03*
X684386D02*
D03*
X686354D02*
D03*
X688323D02*
D03*
X690291D02*
D03*
X481618Y168413D02*
D03*
X483587D02*
D03*
X485555D02*
D03*
X487524D02*
D03*
X489492D02*
D03*
X491461D02*
D03*
Y153256D02*
D03*
X489492D02*
D03*
X487524D02*
D03*
X485555D02*
D03*
X483587D02*
D03*
X481618D02*
D03*
D52*
X469976Y627716D02*
D03*
X473441D02*
D03*
X469976Y646614D02*
D03*
X473441D02*
D03*
X698087Y645532D02*
D03*
X701551D02*
D03*
X698087Y627815D02*
D03*
X701551D02*
D03*
X701559Y170185D02*
D03*
X698095D02*
D03*
X701894Y152665D02*
D03*
X698429D02*
D03*
X473252Y151681D02*
D03*
X469787D02*
D03*
X473646Y170087D02*
D03*
X470181D02*
D03*
D53*
X836933Y534206D02*
D03*
Y540708D02*
D03*
X239504Y340460D02*
D03*
Y333958D02*
D03*
X835665Y472537D02*
D03*
Y479039D02*
D03*
D54*
X828023Y539327D02*
D03*
Y533602D02*
D03*
X230449Y333658D02*
D03*
Y339382D02*
D03*
X826315Y479441D02*
D03*
Y473717D02*
D03*
D55*
X203008Y482453D02*
D03*
Y161081D02*
D03*
D56*
Y465203D02*
D03*
Y499703D02*
D03*
Y143831D02*
D03*
Y178331D02*
D03*
D57*
X357008Y363195D02*
D03*
Y359731D02*
D03*
X344109Y315434D02*
D03*
Y311969D02*
D03*
X344011Y325257D02*
D03*
Y328721D02*
D03*
X342408Y357963D02*
D03*
Y354498D02*
D03*
X357008Y330598D02*
D03*
Y334063D02*
D03*
D58*
X311556Y325700D02*
D03*
X306044D02*
D03*
X293808Y257931D02*
D03*
X288296D02*
D03*
X281508Y258031D02*
D03*
X275996D02*
D03*
D59*
X349420Y282202D02*
D03*
X351979D02*
D03*
X354538D02*
D03*
X357097D02*
D03*
X349420Y299722D02*
D03*
X351979D02*
D03*
X354538D02*
D03*
X357097D02*
D03*
D60*
X353259Y290962D02*
D03*
D61*
X357003Y345591D02*
D03*
D62*
X351097Y343583D02*
D03*
Y345591D02*
D03*
Y347599D02*
D03*
X362908D02*
D03*
Y345591D02*
D03*
Y343583D02*
D03*
D63*
X354995Y351497D02*
D03*
X357003D02*
D03*
X359011D02*
D03*
Y339686D02*
D03*
X357003D02*
D03*
X354995D02*
D03*
D64*
X355034Y312914D02*
D03*
X357003D02*
D03*
X358971D02*
D03*
X360940D02*
D03*
Y324725D02*
D03*
X358971D02*
D03*
X357003D02*
D03*
X355034D02*
D03*
D65*
X363893Y315867D02*
D03*
Y317835D02*
D03*
Y319804D02*
D03*
Y321772D02*
D03*
X352081D02*
D03*
Y319804D02*
D03*
Y317835D02*
D03*
Y315867D02*
D03*
D66*
X357987Y318819D02*
D03*
D67*
X335008Y347017D02*
D03*
Y357844D02*
D03*
D68*
X330920Y288911D02*
D03*
Y298557D02*
D03*
D69*
X340467Y301411D02*
D03*
Y295505D02*
D03*
D70*
X342161Y278031D02*
D03*
X336255D02*
D03*
X342161Y271231D02*
D03*
X336255D02*
D03*
D71*
X840000Y60000D02*
D03*
X230000D02*
D03*
X840000Y800000D02*
D03*
X230000D02*
D03*
D72*
X808047Y436264D02*
D03*
X818047D02*
D03*
X808047Y426264D02*
D03*
X818047D02*
D03*
X808047Y416264D02*
D03*
X818047D02*
D03*
X808047Y406264D02*
D03*
X818047D02*
D03*
X808047Y396264D02*
D03*
X818047D02*
D03*
X808047Y386264D02*
D03*
X818047D02*
D03*
X808047Y376264D02*
D03*
X818047D02*
D03*
X808047Y366264D02*
D03*
X818047D02*
D03*
X808047Y356264D02*
D03*
X818047D02*
D03*
X808047Y346264D02*
D03*
X818047D02*
D03*
X808047Y336264D02*
D03*
X818047D02*
D03*
X808047Y326264D02*
D03*
X818047D02*
D03*
X808047Y316264D02*
D03*
X818047D02*
D03*
X808047Y306264D02*
D03*
X818047D02*
D03*
X808047Y296264D02*
D03*
X818047D02*
D03*
X808047Y286264D02*
D03*
X818047D02*
D03*
X808047Y276264D02*
D03*
X818047D02*
D03*
X808047Y266264D02*
D03*
X818047D02*
D03*
X808047Y256264D02*
D03*
X818047D02*
D03*
X808047Y246264D02*
D03*
X818047D02*
D03*
D73*
X772048Y397708D02*
D03*
X847319Y206799D02*
D03*
X740190Y623347D02*
D03*
X766638Y639248D02*
D03*
X766366Y653158D02*
D03*
X771951Y410514D02*
D03*
Y423320D02*
D03*
X772051Y436126D02*
D03*
X787008Y518831D02*
D03*
X720000Y410514D02*
D03*
Y397708D02*
D03*
Y423320D02*
D03*
Y436126D02*
D03*
X226208Y265031D02*
D03*
X241608Y265231D02*
D03*
X787008Y493631D02*
D03*
Y506231D02*
D03*
X772272Y174713D02*
D03*
X851685Y187307D02*
D03*
X772224Y190976D02*
D03*
X794425Y587898D02*
D03*
X785268Y575827D02*
D03*
X739858Y151618D02*
D03*
D74*
X835370Y497051D02*
D03*
Y506894D02*
D03*
Y516736D02*
D03*
X239508Y296931D02*
D03*
Y306773D02*
D03*
Y316616D02*
D03*
X286008Y362831D02*
D03*
Y372673D02*
D03*
D75*
X293004Y274088D02*
D03*
Y293773D02*
D03*
X280012Y283931D02*
D03*
X292604Y318688D02*
D03*
Y338373D02*
D03*
X279612Y328531D02*
D03*
D76*
X705100Y152626D02*
D03*
X314300Y340900D02*
D03*
X704800Y645574D02*
D03*
Y627774D02*
D03*
X842100Y456800D02*
D03*
X848953Y453131D02*
D03*
X791854Y366354D02*
D03*
X791800Y361000D02*
D03*
X765059Y574146D02*
D03*
X753563Y574118D02*
D03*
X764850Y569571D02*
D03*
X759216Y569425D02*
D03*
X762513Y416599D02*
D03*
X758760Y412811D02*
D03*
X755897Y416613D02*
D03*
X759079Y420354D02*
D03*
X775516Y597496D02*
D03*
X775398Y592410D02*
D03*
X780185Y597261D02*
D03*
X780280Y601984D02*
D03*
X844980Y120728D02*
D03*
X838543Y114394D02*
D03*
X789667Y164984D02*
D03*
X486531Y637264D02*
D03*
Y633764D02*
D03*
Y640764D02*
D03*
X490031Y637264D02*
D03*
Y640764D02*
D03*
Y633764D02*
D03*
X494406Y629783D02*
D03*
X495291Y645532D02*
D03*
X497563Y633819D02*
D03*
X676648Y628381D02*
D03*
X685404Y633081D02*
D03*
X483032Y633764D02*
D03*
X387417Y648779D02*
D03*
X389681Y642382D02*
D03*
X391059Y651514D02*
D03*
X396374Y646024D02*
D03*
X397488Y651514D02*
D03*
X403388Y646002D02*
D03*
X404988Y651602D02*
D03*
X409988Y646045D02*
D03*
X466788Y627802D02*
D03*
X466988Y646502D02*
D03*
X483032Y637264D02*
D03*
Y640764D02*
D03*
X497563Y639724D02*
D03*
X674376Y640094D02*
D03*
Y634188D02*
D03*
X485988Y648602D02*
D03*
X677534Y644129D02*
D03*
X681904Y633081D02*
D03*
Y636581D02*
D03*
Y640081D02*
D03*
X686088Y625602D02*
D03*
X688904Y633081D02*
D03*
Y636581D02*
D03*
Y640081D02*
D03*
X486288Y626002D02*
D03*
X685404Y636581D02*
D03*
Y640081D02*
D03*
X685488Y647802D02*
D03*
X828189Y224130D02*
D03*
X828308Y238807D02*
D03*
X830811Y227114D02*
D03*
X830744Y237110D02*
D03*
X784402Y159760D02*
D03*
X685370Y161389D02*
D03*
X677484Y168807D02*
D03*
X681870Y157889D02*
D03*
Y164889D02*
D03*
Y161389D02*
D03*
X685370Y157889D02*
D03*
Y164889D02*
D03*
X686096Y172715D02*
D03*
X688870Y157889D02*
D03*
Y161389D02*
D03*
X674327Y164772D02*
D03*
Y158866D02*
D03*
X688870Y164889D02*
D03*
X704696Y170215D02*
D03*
X685696Y150315D02*
D03*
X676598Y153059D02*
D03*
X490039Y160835D02*
D03*
X486244Y172153D02*
D03*
X492996Y171515D02*
D03*
X483039Y157335D02*
D03*
X490039D02*
D03*
Y164335D02*
D03*
X483039D02*
D03*
X486539Y157335D02*
D03*
Y164335D02*
D03*
X495299Y169004D02*
D03*
X483039Y160835D02*
D03*
X486539D02*
D03*
X497571Y163197D02*
D03*
X445284Y128271D02*
D03*
X448350Y129831D02*
D03*
X445595Y136031D02*
D03*
X453764Y134457D02*
D03*
X497571Y157291D02*
D03*
X448941Y167998D02*
D03*
Y162530D02*
D03*
X466496Y151515D02*
D03*
X494413Y153256D02*
D03*
X458488Y135047D02*
D03*
X447758Y138888D02*
D03*
X463114Y135146D02*
D03*
X452386Y144890D02*
D03*
X457110Y147348D02*
D03*
X463016Y147941D02*
D03*
X486244Y149319D02*
D03*
X466896Y170115D02*
D03*
X297108Y257831D02*
D03*
X342508Y351231D02*
D03*
X334808Y342431D02*
D03*
X330308Y333831D02*
D03*
X344108Y331731D02*
D03*
X354308Y309531D02*
D03*
X344208Y308831D02*
D03*
X332108Y271231D02*
D03*
Y278031D02*
D03*
X336608Y288631D02*
D03*
X239508Y344731D02*
D03*
X230408Y343331D02*
D03*
X209708Y336431D02*
D03*
X804808Y550631D02*
D03*
X806808Y477131D02*
D03*
X841669Y245476D02*
D03*
X833697Y247543D02*
D03*
X796984Y356303D02*
D03*
X797181Y361323D02*
D03*
X830842Y330024D02*
D03*
Y337307D02*
D03*
X356187Y317020D02*
D03*
X359908Y309331D02*
D03*
X354071Y304236D02*
D03*
X352506Y341092D02*
D03*
X351905Y350201D02*
D03*
X361748Y349807D02*
D03*
X362535Y341146D02*
D03*
X340488Y292327D02*
D03*
X363913Y312602D02*
D03*
X351807Y324413D02*
D03*
X364307Y324905D02*
D03*
X367260Y316933D02*
D03*
X828023Y543565D02*
D03*
X216374Y144295D02*
D03*
X216571Y178350D02*
D03*
X216866Y499610D02*
D03*
X216571Y465358D02*
D03*
X835565Y467888D02*
D03*
X826115Y469679D02*
D03*
X836933Y545857D02*
D03*
X356259Y288762D02*
D03*
Y293162D02*
D03*
X350259Y288762D02*
D03*
Y293162D02*
D03*
X353259Y290962D02*
D03*
X355353Y347241D02*
D03*
X358653D02*
D03*
X355353Y343941D02*
D03*
X358653D02*
D03*
X356187Y320620D02*
D03*
X359787D02*
D03*
Y317020D02*
D03*
X359681Y354728D02*
D03*
X354465Y354630D02*
D03*
X353108Y276331D02*
D03*
X360075Y336618D02*
D03*
X353874Y336520D02*
D03*
X360272Y328055D02*
D03*
X354108Y327931D02*
D03*
M02*
