M48
;Layer_Color=9474304
;FILE_FORMAT=2:4
INCH,TZ
;TYPE=PLATED
T1F00S00C0.0118
T2F00S00C0.0315
T3F00S00C0.0400
T4F00S00C0.0402
T5F00S00C0.0472
T6F00S00C0.1378
%
T01
X21637Y14430
X45239Y14489
X45711Y14735
X46302Y14794
X46650Y15151
X46311Y13515
X45849Y13505
X45376Y13446
X44559Y13603
X44776Y13889
X44835Y12983
X44528Y12827
X48624Y14932
X49441Y15326
X67660Y15306
X68570Y15031
X70510Y15263
X83854Y11439
X84498Y12073
X78967Y16498
X78440Y15976
X82819Y22413
X83081Y22711
X83074Y23711
X82831Y23881
X83370Y24754
X84167Y24548
X70470Y17021
X68610Y17271
X68537Y16489
Y16139
X68187
Y15789
X68537
X68887
Y16139
Y16489
X68187
X67433Y16477
Y15887
X67748Y16881
X49530Y16900
X49300Y17151
X48624Y17215
X48654Y16433
X49004
Y16083
Y15733
X48654
X48304
Y16083
Y16433
X48654Y16083
X49757Y16320
Y15729
X46690Y17011
X44894Y16800
Y16253
X35311Y27633
X35326Y29096
X35626Y28876
Y29316
X35026
Y28876
X34049Y29233
X33661Y28863
X33211Y27803
Y27123
X34421Y30883
X35431Y30953
X35407Y30424
X35991Y30933
X29711Y25783
X21657Y17835
X20971Y33643
X23041Y34333
X23951Y34473
X21657Y46536
X31430Y34090
X33481Y34243
X33031Y33383
X34411Y33173
X35411Y32793
X35181Y32441
X35619Y32062
Y31702
X35979
Y32062
X36027Y32806
X36431Y32491
X36726Y31693
X36391Y31260
X36007Y33662
X35387Y33652
X35251Y34109
X35535Y34394
Y34724
X35865
Y34394
X36254Y34115
X36175Y34981
X35968Y35473
X35446Y35463
X35191Y35020
X34251Y35123
X75876Y41281
X75590Y41661
X76251Y41660
X75908Y42035
X79185Y36635
X79180Y36100
X79718Y36132
X79698Y35630
X83084Y33731
Y33002
X84210Y45680
X84895Y45313
X83557Y46789
X82612Y46968
X80681Y47713
X80481Y55063
X82802Y54356
X83693Y54586
X76485Y56957
X76506Y57415
X75922Y56943
X75356Y57412
X77540Y59241
X77552Y59750
X78018Y59726
X78028Y60198
X21687Y49961
X38968Y64238
X38742Y64878
X39106Y65151
X39749
X39637Y64602
X40339Y64600
X40999Y64605
X40499Y65160
X46699Y64650
X46679Y62780
X48629Y62600
X48653Y63376
Y63726
Y64076
X49003
Y63726
Y63376
X48303
Y63726
Y64076
X48599Y64860
X49529Y64553
X49756Y63972
Y63382
X49441Y62978
X67665Y62838
X67438Y63419
Y64009
X67753Y64413
X68190Y64008
Y63658
Y63308
X68540
X68890
Y63658
Y64008
X68540
Y63658
X68549Y64780
X70480Y64557
Y62777
X68609Y62560
T02
X28001Y28393
X29300Y27409
Y29377
X29260Y31869
Y33837
X27961Y32853
T03
X73986Y15162
X85169Y18731
X84732Y20680
X77222Y19098
X77227Y17471
X24161Y26523
X22621Y26503
X72000Y39771
Y41051
Y42332
Y43613
X77205
X77195Y42332
Y41051
X77205Y39771
X78701Y49363
Y50623
Y51883
X78527Y57583
X79443Y58790
X74019Y62335
X76664Y63925
X76637Y65316
T04
X80805Y24626
Y25626
Y26626
Y27626
Y28626
Y29626
Y30626
X81805
Y29626
Y28626
Y27626
Y26626
Y25626
Y24626
Y31626
Y32626
Y33626
Y34626
Y35626
Y36626
Y37626
Y38626
Y39626
Y40626
Y41626
Y42626
Y43626
X80805
Y42626
Y41626
Y40626
Y39626
Y38626
Y37626
Y36626
Y35626
Y34626
Y33626
Y32626
Y31626
T05
X23951Y29693
Y30677
Y31662
X28601Y36283
Y37267
X83537Y49705
Y50689
Y51674
T06
X23000Y6000
X84000
Y80000
X23000
M30
