G04*
G04 #@! TF.GenerationSoftware,Altium Limited,Altium Designer,23.2.1 (34)*
G04*
G04 Layer_Color=32896*
%FSLAX25Y25*%
%MOIN*%
G70*
G04*
G04 #@! TF.SameCoordinates,CA660C8E-C53F-4193-A26E-31EAB45B7BEE*
G04*
G04*
G04 #@! TF.FilePolarity,Positive*
G04*
G01*
G75*
%ADD14C,0.00800*%
D14*
X744800Y617700D02*
X782900Y583100D01*
X773700Y651800D02*
X782900Y583100D01*
X779900Y192600D02*
X842700Y202200D01*
X770500Y633400D02*
X791200Y594200D01*
X779100Y175800D02*
X844800Y187100D01*
X747700Y151900D02*
X842700Y202200D01*
X766534Y54799D02*
X767867D01*
X767201D01*
Y51466D01*
X767867Y50800D01*
X768534D01*
X769200Y51466D01*
X765201Y54799D02*
Y50800D01*
X762535D01*
X758537Y54132D02*
X759203Y54799D01*
X760536D01*
X761203Y54132D01*
Y51466D01*
X760536Y50800D01*
X759203D01*
X758537Y51466D01*
X754538Y54799D02*
X755871D01*
X755204D01*
Y51466D01*
X755871Y50800D01*
X756537D01*
X757204Y51466D01*
X753205Y54799D02*
Y50800D01*
X750539D01*
X746541Y54132D02*
X747207Y54799D01*
X748540D01*
X749206Y54132D01*
Y51466D01*
X748540Y50800D01*
X747207D01*
X746541Y51466D01*
X742542Y54799D02*
X743875D01*
X743208D01*
Y51466D01*
X743875Y50800D01*
X744541D01*
X745208Y51466D01*
X741209Y54799D02*
Y50800D01*
X738543D01*
X734545Y54132D02*
X735211Y54799D01*
X736544D01*
X737210Y54132D01*
Y51466D01*
X736544Y50800D01*
X735211D01*
X734545Y51466D01*
X730546Y54799D02*
X731879D01*
X731212D01*
Y51466D01*
X731879Y50800D01*
X732545D01*
X733212Y51466D01*
X729213Y54799D02*
Y50800D01*
X726547D01*
X722548Y54132D02*
X723215Y54799D01*
X724548D01*
X725214Y54132D01*
Y51466D01*
X724548Y50800D01*
X723215D01*
X722548Y51466D01*
M02*
