G04*
G04 #@! TF.GenerationSoftware,Altium Limited,Altium Designer,23.2.1 (34)*
G04*
G04 Layer_Color=255*
%FSLAX25Y25*%
%MOIN*%
G70*
G04*
G04 #@! TF.SameCoordinates,CA660C8E-C53F-4193-A26E-31EAB45B7BEE*
G04*
G04*
G04 #@! TF.FilePolarity,Positive*
G04*
G01*
G75*
%ADD84C,0.27559*%
%ADD85C,0.07087*%
%ADD86C,0.06400*%
%ADD87C,0.07874*%
%ADD88C,0.06299*%
D84*
X840000Y60000D02*
D03*
X230000D02*
D03*
X840000Y800000D02*
D03*
X230000D02*
D03*
D85*
X808047Y436264D02*
D03*
X818047D02*
D03*
X808047Y426264D02*
D03*
X818047D02*
D03*
X808047Y416264D02*
D03*
X818047D02*
D03*
X808047Y406264D02*
D03*
X818047D02*
D03*
X808047Y396264D02*
D03*
X818047D02*
D03*
X808047Y386264D02*
D03*
X818047D02*
D03*
X808047Y376264D02*
D03*
X818047D02*
D03*
X808047Y366264D02*
D03*
X818047D02*
D03*
X808047Y356264D02*
D03*
X818047D02*
D03*
X808047Y346264D02*
D03*
X818047D02*
D03*
X808047Y336264D02*
D03*
X818047D02*
D03*
X808047Y326264D02*
D03*
X818047D02*
D03*
X808047Y316264D02*
D03*
X818047D02*
D03*
X808047Y306264D02*
D03*
X818047D02*
D03*
X808047Y296264D02*
D03*
X818047D02*
D03*
X808047Y286264D02*
D03*
X818047D02*
D03*
X808047Y276264D02*
D03*
X818047D02*
D03*
X808047Y266264D02*
D03*
X818047D02*
D03*
X808047Y256264D02*
D03*
X818047D02*
D03*
X808047Y246264D02*
D03*
X818047D02*
D03*
D86*
X772048Y397708D02*
D03*
X847319Y206799D02*
D03*
X740190Y623347D02*
D03*
X766638Y639248D02*
D03*
X766366Y653158D02*
D03*
X771951Y410514D02*
D03*
Y423320D02*
D03*
X772051Y436126D02*
D03*
X787008Y518831D02*
D03*
X720000Y410514D02*
D03*
Y397708D02*
D03*
Y423320D02*
D03*
Y436126D02*
D03*
X226208Y265031D02*
D03*
X241608Y265231D02*
D03*
X787008Y493631D02*
D03*
Y506231D02*
D03*
X772272Y174713D02*
D03*
X851685Y187307D02*
D03*
X772224Y190976D02*
D03*
X794425Y587898D02*
D03*
X785268Y575827D02*
D03*
X739858Y151618D02*
D03*
D87*
X835370Y497051D02*
D03*
Y506894D02*
D03*
Y516736D02*
D03*
X239508Y296931D02*
D03*
Y306773D02*
D03*
Y316616D02*
D03*
X286008Y362831D02*
D03*
Y372673D02*
D03*
D88*
X293004Y274088D02*
D03*
Y293773D02*
D03*
X280012Y283931D02*
D03*
X292604Y318688D02*
D03*
Y338373D02*
D03*
X279612Y328531D02*
D03*
M02*
