M48
;Layer_Color=9474304
;FILE_FORMAT=2:4
INCH,TZ
;TYPE=PLATED
T1F00S00C0.0118
T2F00S00C0.0315
T3F00S00C0.0400
T4F00S00C0.0402
T5F00S00C0.0472
T6F00S00C0.1890
%
T01
X8337Y4596
X8356Y8002
X31229Y8496
X31535Y8652
X31260Y9272
X31476Y9557
X32077Y9114
X32549Y9173
X33012Y9183
X33002Y10463
X32411Y10403
X31939Y10157
X33350Y10820
X33390Y12680
X31594Y12468
Y11921
X35004Y11752
X35354
Y12102
X35704
Y11752
Y11402
X35354
X35004
Y12102
X35325Y12884
X36000Y12820
X36230Y12569
X36457Y11988
Y11398
X36142Y10994
X35325Y10600
X54360Y10974
X54133Y11555
Y12146
X54449Y12549
X54887Y12157
X55237
X55587
Y11807
Y11457
X55237
X54887
Y11807
X55237
X55270Y10700
X56890Y10689
X57170Y12690
X55310Y12940
X67712Y11845
X68408Y11848
X69537Y12549
X69774Y12776
X69537Y13996
X69774Y14282
X70069Y14921
X70866Y14715
X70974Y11693
X71634Y12303
X69783Y23169
Y23898
X66398Y25797
X66417Y26299
X65896Y26791
X65560Y26570
X22667Y25640
X22146Y25630
X21890Y25187
X22234Y24891
X22564
Y24561
X22234
X21950Y24276
X22087Y23819
X22707Y23829
X22953Y24281
X22874Y25148
X20950Y25290
X20180Y24410
X19730Y23550
X21110Y23340
X22110Y22960
X21880Y22608
X22318Y22229
Y21869
X22678
Y22229
X22726Y22972
X23130Y22657
X23425Y21860
X23091Y21427
X22690Y21100
X22130Y21120
X22106Y20591
X22325Y19483
Y19043
X22025Y19263
X21725Y19043
Y19483
X20748Y19400
X20360Y19030
X19910Y17970
Y17290
X22010Y17800
X21120Y21050
X16410Y15950
X10650Y24640
X9740Y24500
X7670Y23810
X8356Y36703
X8386Y40128
X67380Y37880
X69311Y37135
X70256Y36956
X70950Y35470
X71594Y35480
X70393Y44753
X69502Y44523
X67180Y45230
X63770Y32057
X63455Y32047
X63455Y31486
X63780Y31506
X63455Y47589
X63792Y47936
X63327Y48415
X62736Y47795
X63878Y49094
X63698Y49358
X63927Y49793
X64184Y49558
X56850Y49439
X55250Y49420
X55242Y48648
X55592
Y48298
Y47948
X55242
X54892
Y48298
Y48648
X55242Y48298
X55310Y47200
X54366Y47478
X54139Y48059
Y48649
X54455Y49053
X56870Y47100
X36142Y47618
X36457Y48022
Y48612
X36230Y49193
X35704Y48716
Y48366
X35354
X35004
Y48716
X35354
Y48016
X35704
X35004
X35330Y47240
X33380Y47420
X33400Y49290
X35300Y49500
X27700Y49244
X27040Y49240
X26339Y49242
X26450Y49791
X25807
X25443Y49518
X25669Y48878
X27200Y49800
T02
X16000Y17576
Y19544
X15960Y22036
Y24004
X14660Y23020
X14700Y18560
T03
X64656Y10699
X63120Y13130
X63130Y14823
X72136Y13740
X70217Y10059
X65549Y29720
X65540Y31000
X56940Y30220
Y28939
Y27659
Y26378
X10860Y16690
X9320Y16670
X65540Y32281
X65550Y33561
X65400Y39530
Y40790
Y42050
X65226Y43858
X66142Y48957
X62687Y50472
X62657Y51900
X61240Y47392
T04
X67504Y14793
X68504
Y15793
X67504
Y16793
X68504
Y17793
X67504
Y18793
X68504
Y19793
X67504
Y20793
X68504
Y21793
X67504
Y22793
X68504
Y23793
X67504
Y24793
X68504
Y25793
X67504
Y26793
X68504
Y27793
X67504
Y28793
X68504
Y29793
X67504
Y30793
X68504
Y31793
X67504
Y32793
X68504
Y33793
X67504
T05
X10650Y19860
Y20844
Y21828
X15300Y26450
Y27434
X70236Y39872
Y40856
Y41841
T06
X7890Y2120
X72770
X7890Y63670
X72770
M30
